<?xml version="1.0" encoding="utf-8"?>
<!-- Generator: Adobe Illustrator 25.2.1, SVG Export Plug-In . SVG Version: 6.00 Build 0)  -->
<svg version="1.1" id="Layer_1" xmlns="http://www.w3.org/2000/svg" xmlns:xlink="http://www.w3.org/1999/xlink" x="0px" y="0px"
	 viewBox="0 0 443.33 74.97" style="enable-background:new 0 0 443.33 74.97;" xml:space="preserve">
<style type="text/css">
	.st0{fill:#FFFFFF;}
	.st1{fill:#2A6DFF;}
	.st2{clip-path:url(#SVGID_2_);}
	.st3{clip-path:url(#SVGID_4_);fill:#FFFFFF;}
	.st4{clip-path:url(#SVGID_6_);}
	.st5{clip-path:url(#SVGID_8_);fill:#FFFFFF;}
	.st6{clip-path:url(#SVGID_10_);}
	.st7{clip-path:url(#SVGID_12_);fill:#FFFFFF;}
	.st8{clip-path:url(#SVGID_14_);}
	.st9{clip-path:url(#SVGID_16_);fill:#FFFFFF;}
	.st10{clip-path:url(#SVGID_18_);}
	.st11{clip-path:url(#SVGID_20_);fill:#FFFFFF;}
	.st12{clip-path:url(#SVGID_22_);}
	.st13{clip-path:url(#SVGID_24_);fill:#FFFFFF;}
	.st14{clip-path:url(#SVGID_26_);}
	.st15{clip-path:url(#SVGID_28_);fill:#FFFFFF;}
</style>
<path class="st0" d="M23.78,45.8L0,2.99h15.44l15.35,29.18h0.33l15.3-29.18H61.9L38.08,45.8v25.53h-14.3V45.8z"/>
<path class="st0" d="M78.15,68.23c-4.94-2.86-8.75-6.93-11.44-12.22c-2.68-5.29-4.03-11.56-4.03-18.83v-0.09
	c0-7.26,1.35-13.53,4.05-18.8c2.7-5.27,6.52-9.34,11.46-12.2C83.14,3.23,88.97,1.8,95.7,1.8c6.76,0,12.6,1.44,17.52,4.31
	c4.93,2.87,8.73,6.94,11.41,12.2c2.68,5.26,4.03,11.52,4.03,18.78v0.09c0,7.26-1.34,13.53-4.03,18.8
	c-2.68,5.27-6.48,9.35-11.39,12.22c-4.91,2.87-10.76,4.31-17.55,4.31C88.94,72.52,83.09,71.09,78.15,68.23z M105.48,57.53
	c2.73-1.91,4.84-4.6,6.32-8.08c1.48-3.47,2.23-7.56,2.23-12.27v-0.09c0-4.74-0.75-8.84-2.25-12.31c-1.5-3.47-3.62-6.15-6.37-8.03
	c-2.75-1.88-5.98-2.82-9.71-2.82c-3.73,0-6.97,0.94-9.73,2.82c-2.76,1.88-4.9,4.55-6.39,8c-1.5,3.46-2.25,7.57-2.25,12.34v0.09
	c0,4.74,0.75,8.84,2.25,12.31c1.5,3.47,3.62,6.16,6.37,8.05c2.75,1.89,6,2.84,9.76,2.84C99.49,60.39,102.75,59.44,105.48,57.53z"/>
<path class="st0" d="M137.85,2.99h14.3v56.55h29.89v11.79h-44.19V2.99z"/>
<path class="st1" d="M441.46,69.64c-3.17,0.92-6.38,1.39-9.62,1.39c-4.7,0-8.22-1.17-10.57-3.51s-3.52-6.15-3.52-11.43V30.14h-9.42
	v-9.11h9.42V7.76h10.71v13.27h13.1v9.11h-13.1v25.25c0,1.78,0.41,3.1,1.24,3.96c0.83,0.86,2.2,1.29,4.12,1.29
	c1.72,0,4.27-0.26,7.64-0.79V69.64z M371.13,56.08v14.45h-10.71V1.23h10.71v41.38l20.44-21.58h14.58l-21.43,21.48l21.43,28.02
	h-13.89l-14.78-20.79L371.13,56.08z M339.48,40.93c-0.33-3.56-1.57-6.39-3.72-8.46s-5.11-3.12-8.88-3.12
	c-3.84,0-6.91,1.01-9.23,3.02c-2.31,2.01-3.8,4.87-4.46,8.56H339.48z M302.18,45.98c0-4.88,1.03-9.31,3.08-13.27
	c2.05-3.96,4.96-7.09,8.73-9.41c3.77-2.31,8.13-3.46,13.1-3.46c5.03,0,9.36,1.11,13,3.32c3.64,2.21,6.4,5.3,8.28,9.26
	c1.88,3.96,2.83,8.48,2.83,13.56v3.07h-38.1v0.1c0.46,4.03,2.12,7.13,4.96,9.31c2.84,2.18,6.15,3.27,9.92,3.27
	c5.75,0,10.71-2.14,14.88-6.44l5.06,8.61c-2.31,2.31-5.13,4.19-8.43,5.64c-3.31,1.45-7.11,2.18-11.41,2.18
	c-5.22,0-9.79-1.07-13.69-3.22c-3.9-2.15-6.91-5.16-9.03-9.06S302.18,51.06,302.18,45.98z M278.37,28.85
	c3.17-6.01,8.04-9.01,14.58-9.01c1.65,0,3.27,0.2,4.86,0.59v11.38c-1.98-0.46-3.8-0.69-5.46-0.69c-4.76,0-8.22,1.42-10.37,4.26
	s-3.22,7-3.22,12.47v22.67h-10.71v-49.5h10.32V28.85z"/>
<g>
	<defs>
		<path id="SVGID_1_" d="M224.27,50.97c1.14,0,2.07-0.93,2.07-2.06s-0.93-2.06-2.07-2.06c-1.14,0-2.07,0.93-2.07,2.06
			S223.13,50.97,224.27,50.97z M224.27,42.81c3.37,0,6.11,2.74,6.11,6.1s-2.74,6.1-6.11,6.1c-3.37,0-6.12-2.74-6.12-6.1
			S220.89,42.81,224.27,42.81z"/>
	</defs>
	<use xlink:href="#SVGID_1_"  style="overflow:visible;fillRule:evenodd;clip-rule:evenodd;fill:#FFFFFF;"/>
	<clipPath id="SVGID_2_">
		<use xlink:href="#SVGID_1_"  style="overflow:visible;"/>
	</clipPath>
	<g class="st2">
		<defs>
			<rect id="SVGID_3_" x="-68.33" y="-129.67" width="1500" height="500"/>
		</defs>
		<use xlink:href="#SVGID_3_"  style="overflow:visible;fill:#FFFFFF;"/>
		<clipPath id="SVGID_4_">
			<use xlink:href="#SVGID_3_"  style="overflow:visible;"/>
		</clipPath>
		<rect x="213.15" y="37.81" class="st3" width="22.23" height="22.2"/>
	</g>
</g>
<g>
	<defs>
		<path id="SVGID_5_" d="M206.16,18.53c1.14,0,2.07-0.93,2.07-2.06c0-1.14-0.93-2.06-2.07-2.06s-2.07,0.93-2.07,2.06
			C204.1,17.6,205.02,18.53,206.16,18.53z M206.16,10.36c3.37,0,6.11,2.74,6.11,6.1c0,3.36-2.74,6.1-6.11,6.1
			c-3.37,0-6.11-2.74-6.11-6.1C200.05,13.1,202.79,10.36,206.16,10.36z"/>
	</defs>
	<use xlink:href="#SVGID_5_"  style="overflow:visible;fillRule:evenodd;clip-rule:evenodd;fill:#FFFFFF;"/>
	<clipPath id="SVGID_6_">
		<use xlink:href="#SVGID_5_"  style="overflow:visible;"/>
	</clipPath>
	<g class="st4">
		<defs>
			<rect id="SVGID_7_" x="-68.33" y="-129.67" width="1500" height="500"/>
		</defs>
		<use xlink:href="#SVGID_7_"  style="overflow:visible;fill:#FFFFFF;"/>
		<clipPath id="SVGID_8_">
			<use xlink:href="#SVGID_7_"  style="overflow:visible;"/>
		</clipPath>
		<rect x="195.05" y="5.36" class="st5" width="22.23" height="22.2"/>
	</g>
</g>
<g>
	<defs>
		<path id="SVGID_9_" d="M232.13,34.95c3.78,0,6.85-3.07,6.85-6.84c0-3.77-3.07-6.84-6.85-6.84c-3.78,0-6.85,3.07-6.85,6.84
			C225.28,31.88,228.35,34.95,232.13,34.95z M232.13,17.23c6.01,0,10.9,4.88,10.9,10.88c0,6-4.89,10.88-10.9,10.88
			c-6.01,0-10.9-4.88-10.9-10.88C221.23,22.11,226.12,17.23,232.13,17.23z"/>
	</defs>
	<use xlink:href="#SVGID_9_"  style="overflow:visible;fillRule:evenodd;clip-rule:evenodd;fill:#FFFFFF;"/>
	<clipPath id="SVGID_10_">
		<use xlink:href="#SVGID_9_"  style="overflow:visible;"/>
	</clipPath>
	<g class="st6">
		<defs>
			<rect id="SVGID_11_" x="-68.33" y="-129.67" width="1500" height="500"/>
		</defs>
		<use xlink:href="#SVGID_11_"  style="overflow:visible;fill:#FFFFFF;"/>
		<clipPath id="SVGID_12_">
			<use xlink:href="#SVGID_11_"  style="overflow:visible;"/>
		</clipPath>
		<rect x="216.23" y="12.23" class="st7" width="31.8" height="31.75"/>
	</g>
</g>
<g>
	<defs>
		<path id="SVGID_13_" d="M222.63,63.28c2.51,0,5.02-0.38,7.45-1.12c6.65-2.03,12.13-6.57,15.43-12.8
			c3.3-6.23,4.02-13.39,2.03-20.17c-3.26-11.14-13.5-18.92-24.89-18.92c-2.51,0-5.02,0.38-7.45,1.12
			c-6.65,2.02-12.13,6.57-15.43,12.8c-3.3,6.23-4.02,13.39-2.03,20.17C201.01,55.5,211.24,63.28,222.63,63.28z M222.24,2.52
			c15.11,0,28.69,10.1,33.02,24.56c2.64,8.81,1.68,18.11-2.7,26.19c-4.38,8.08-11.64,13.99-20.47,16.62
			c-3.22,0.96-6.55,1.45-9.88,1.45c-15.11,0-28.69-10.1-33.02-24.56c-2.64-8.8-1.68-18.1,2.7-26.19
			c4.37-8.09,11.64-13.99,20.46-16.62C215.58,3,218.9,2.52,222.24,2.52z"/>
	</defs>
	<use xlink:href="#SVGID_13_"  style="overflow:visible;fillRule:evenodd;clip-rule:evenodd;fill:#FFFFFF;"/>
	<clipPath id="SVGID_14_">
		<use xlink:href="#SVGID_13_"  style="overflow:visible;"/>
	</clipPath>
	<g class="st8">
		<defs>
			<rect id="SVGID_15_" x="-68.33" y="-129.67" width="1500" height="500"/>
		</defs>
		<use xlink:href="#SVGID_15_"  style="overflow:visible;fill:#FFFFFF;"/>
		<clipPath id="SVGID_16_">
			<use xlink:href="#SVGID_15_"  style="overflow:visible;"/>
		</clipPath>
		<rect x="182.73" y="-2.48" class="st9" width="78.98" height="78.82"/>
	</g>
</g>
<g>
	<defs>
		<path id="SVGID_17_" d="M234.53,52.95c0-1.51,1.22-2.73,2.73-2.73c1.51,0,2.73,1.22,2.73,2.73c0,1.51-1.22,2.73-2.73,2.73
			C235.75,55.68,234.53,54.46,234.53,52.95"/>
	</defs>
	<use xlink:href="#SVGID_17_"  style="overflow:visible;fillRule:evenodd;clip-rule:evenodd;fill:#FFFFFF;"/>
	<clipPath id="SVGID_18_">
		<use xlink:href="#SVGID_17_"  style="overflow:visible;"/>
	</clipPath>
	<g class="st10">
		<defs>
			<rect id="SVGID_19_" x="-68.33" y="-129.67" width="1500" height="500"/>
		</defs>
		<use xlink:href="#SVGID_19_"  style="overflow:visible;fill:#FFFFFF;"/>
		<clipPath id="SVGID_20_">
			<use xlink:href="#SVGID_19_"  style="overflow:visible;"/>
		</clipPath>
		<rect x="229.53" y="45.22" class="st11" width="15.47" height="15.46"/>
	</g>
</g>
<g>
	<defs>
		<path id="SVGID_21_" d="M212.66,27.04c0-1.51,1.22-2.73,2.73-2.73c1.51,0,2.73,1.22,2.73,2.73c0,1.51-1.22,2.73-2.73,2.73
			C213.88,29.76,212.66,28.54,212.66,27.04"/>
	</defs>
	<use xlink:href="#SVGID_21_"  style="overflow:visible;fillRule:evenodd;clip-rule:evenodd;fill:#FFFFFF;"/>
	<clipPath id="SVGID_22_">
		<use xlink:href="#SVGID_21_"  style="overflow:visible;"/>
	</clipPath>
	<g class="st12">
		<defs>
			<rect id="SVGID_23_" x="-68.33" y="-129.67" width="1500" height="500"/>
		</defs>
		<use xlink:href="#SVGID_23_"  style="overflow:visible;fill:#FFFFFF;"/>
		<clipPath id="SVGID_24_">
			<use xlink:href="#SVGID_23_"  style="overflow:visible;"/>
		</clipPath>
		<rect x="207.66" y="19.31" class="st13" width="15.47" height="15.46"/>
	</g>
</g>
<g>
	<defs>
		<path id="SVGID_25_" d="M201.99,48.03c0-1.49,1.21-2.69,2.7-2.69c1.49,0,2.7,1.21,2.7,2.69c0,1.49-1.21,2.69-2.7,2.69
			C203.2,50.72,201.99,49.52,201.99,48.03"/>
	</defs>
	<use xlink:href="#SVGID_25_"  style="overflow:visible;fillRule:evenodd;clip-rule:evenodd;fill:#FFFFFF;"/>
	<clipPath id="SVGID_26_">
		<use xlink:href="#SVGID_25_"  style="overflow:visible;"/>
	</clipPath>
	<g class="st14">
		<defs>
			<rect id="SVGID_27_" x="-68.33" y="-129.67" width="1500" height="500"/>
		</defs>
		<use xlink:href="#SVGID_27_"  style="overflow:visible;fill:#FFFFFF;"/>
		<clipPath id="SVGID_28_">
			<use xlink:href="#SVGID_27_"  style="overflow:visible;"/>
		</clipPath>
		<rect x="196.99" y="40.34" class="st15" width="15.4" height="15.39"/>
	</g>
</g>
</svg>
