<?xml version="1.0" encoding="utf-8"?>
<!-- Generator: Adobe Illustrator 26.0.1, SVG Export Plug-In . SVG Version: 6.00 Build 0)  -->
<svg version="1.1" id="Layer_1" xmlns="http://www.w3.org/2000/svg" xmlns:xlink="http://www.w3.org/1999/xlink" x="0px" y="0px"
	 viewBox="0 0 496 496" style="enable-background:new 0 0 496 496;" xml:space="preserve">
<style type="text/css">
	.st0{fill:#FFFFFF;}
	.st1{fill:#FF0000;}
</style>
<rect x="178.6" y="95.1" class="st0" width="150.3" height="313.7"/>
<path class="st1" d="M496,248c0,137-111,248-248,248S0,385,0,248C0,111.1,111,0,248,0S496,111.1,496,248z M248,298
	c-25.4,0-46,20.6-46,46s20.6,46,46,46s46-20.6,46-46S273.4,298,248,298z M204.3,132.7l7.4,136c0.3,6.4,5.6,11.3,12,11.3h48.5
	c6.4,0,11.6-5,12-11.3l7.4-136c0.4-6.9-5.1-12.7-12-12.7h-63.4C209.4,120,204,125.8,204.3,132.7L204.3,132.7z"/>
</svg>
