<?xml version="1.0" encoding="utf-8"?>
<!-- Generator: Adobe Illustrator 25.4.1, SVG Export Plug-In . SVG Version: 6.00 Build 0)  -->
<svg version="1.1" id="Layer_1" xmlns="http://www.w3.org/2000/svg" xmlns:xlink="http://www.w3.org/1999/xlink" x="0px" y="0px"
	 viewBox="0 0 155 155" style="enable-background:new 0 0 155 155;" xml:space="preserve">
<style type="text/css">
	.st0{fill:#2A6DFF;}
	.st1{clip-path:url(#SVGID_00000085971342968034959850000007322084347937248666_);fill:#2A6DFF;}
</style>
<g>
	<path class="st0" d="M155,77.5c0,42.8-34.7,77.5-77.5,77.5S0,120.3,0,77.5S34.7,0,77.5,0S155,34.7,155,77.5z M77.5,13.4
		c-35.4,0-64.1,28.7-64.1,64.1s28.7,64.1,64.1,64.1s64.1-28.7,64.1-64.1S112.9,13.4,77.5,13.4z"/>
	<path class="st0" d="M129.5,63.2c0,13.8-12,26.1-27,26.1c-15.1-0.5-27-12.4-27-26.1s12-25.8,27-26.1
		C117.5,37.5,129.5,49.5,129.5,63.2z M118.9,63.2c0-8.8-7.3-15.9-16.3-15.9c-9,0-16.3,7.1-16.3,15.9s7.3,15.9,16.3,15.9
		C111.5,79.2,118.9,72,118.9,63.2z"/>
	<path class="st0" d="M96.5,111.8c0,7.4-6.3,13.4-14.4,13.6c-8.1,0-14.4-6.2-14.4-13.6c0-7.4,6.4-13.7,14.4-13.7
		C90.1,98.3,96.5,104.4,96.5,111.8z M87.6,111.8c0-3-2.5-5.4-5.5-5.4c-3.1,0-5.5,2.4-5.5,5.4s2.5,5.4,5.5,5.4
		C85.1,117.2,87.6,114.8,87.6,111.8z"/>
	<path class="st0" d="M61,55.2c-3.3,0-6.2,2.7-6.2,5.9s2.8,5.8,6.2,5.8c3.6,0,6.2-2.6,6.2-5.8S64.4,55.2,61,55.2z"/>
	<path class="st0" d="M40.2,97.3c-3.3,0-6.2,2.7-6.2,5.9c0,3.2,2.8,5.8,6.2,5.8c3.6,0,6.2-2.6,6.2-5.8
		C46.4,99.9,43.6,97.3,40.2,97.3z"/>
	<path class="st0" d="M115.4,105c-3.3,0-6.2,2.7-6.2,5.9c0,3.2,2.8,5.8,6.2,5.8c3.6,0,6.2-2.6,6.2-5.8
		C121.6,107.6,118.8,105,115.4,105z"/>
	<g>
		<defs>
			<circle id="SVGID_1_" cx="77.5" cy="77.5" r="64.1"/>
		</defs>
		<clipPath id="SVGID_00000139981598031419552660000005614759172815122077_">
			<use xlink:href="#SVGID_1_"  style="overflow:visible;"/>
		</clipPath>
		<path style="clip-path:url(#SVGID_00000139981598031419552660000005614759172815122077_);fill:#2A6DFF;" d="M55.2,36
			c-0.4,7.3-7.1,13-15.2,12.7c-8-0.5-14-7.1-13.6-14.5c0.4-7.3,7.3-13.2,15.2-12.8C49.6,22.2,55.6,28.6,55.2,36z M46.3,35.4
			c0.2-3-2.1-5.5-5.2-5.7c-3.1-0.2-5.7,2.1-5.9,5.1c-0.2,3,2.1,5.5,5.2,5.7C43.5,40.7,46.1,38.4,46.3,35.4z"/>
	</g>
</g>
</svg>
