<?xml version="1.0" encoding="utf-8"?>
<!-- Generator: Adobe Illustrator 25.4.1, SVG Export Plug-In . SVG Version: 6.00 Build 0)  -->
<svg version="1.1" id="Layer_1" xmlns="http://www.w3.org/2000/svg" xmlns:xlink="http://www.w3.org/1999/xlink" x="0px" y="0px"
	 viewBox="0 0 450 612.1" style="enable-background:new 0 0 450 612.1;" xml:space="preserve">
<style type="text/css">
	.st0{fill:#A8D3D8;}
	.st1{fill:#7CA1B1;}
	.st2{fill:#B2053A;}
	.st3{fill:#9B0030;}
	.st4{fill:#DEECF1;}
</style>
<path class="st0" d="M255,400.1v197c0,8.4-6.6,15-15,15h-30c-8.4,0-15-6.6-15-15v-197H255z"/>
<path class="st1" d="M255,400.1v197c0,8.4-6.6,15-15,15h-15v-212H255z"/>
<path class="st2" d="M450,15v370.1c0,8.4-6.6,15-15,15H15c-8.4,0-15-6.6-15-15V15C0,6.6,6.6,0,15,0h420C443.4,0,450,6.6,450,15z"/>
<path class="st3" d="M450,15v370.1c0,8.4-6.6,15-15,15H225V0h210C443.4,0,450,6.6,450,15z"/>
<path class="st4" d="M240,64.2v120c0,8.4-6.6,15-15,15s-15-6.6-15-15v-120c0-8.4,6.6-15,15-15S240,55.8,240,64.2z"/>
<path class="st4" d="M180,94.2c0-24.8-20.2-45-45-45h-30c-8.3,0-15,6.7-15,15v120c0,8.3,6.7,15,15,15h30c24.8,0,45-20.2,45-45
	c0-11.6-4.5-22-11.7-30C175.5,116.2,180,105.8,180,94.2z M120,79.2h15c8.3,0,15,6.7,15,15s-6.7,15-15,15h-15V79.2z M135,169.2h-15
	v-30h15c8.3,0,15,6.7,15,15S143.3,169.2,135,169.2z"/>
<path class="st0" d="M315,199.2h-30c-8.3,0-15-6.7-15-15v-120c0-8.3,6.7-15,15-15h30c24.8,0,45,20.2,45,45v60
	C360,179,339.8,199.2,315,199.2z M300,169.2h15c8.3,0,15-6.7,15-15v-60c0-8.3-6.7-15-15-15h-15V169.2z"/>
<path class="st0" d="M225,199.2v-150c8.4,0,15,6.6,15,15v120C240,192.6,233.4,199.2,225,199.2z"/>
<path class="st4" d="M315,370.1H135c-8.4,0-15,6.6-15,15v30c0,8.4,6.6,15,15,15h180c8.4,0,15-6.6,15-15v-30
	C330,376.7,323.4,370.1,315,370.1z"/>
<path class="st0" d="M330,385.1v30c0,8.4-6.6,15-15,15h-90v-60h90C323.4,370.1,330,376.7,330,385.1z"/>
<g>
	<g>
		<path class="st4" d="M225,320.1c4.1,0,7.9-2,10.8-5.6l44-55.7c2-2.6,3.1-5.1,3.1-7.3c0-4.2-3.9-6.7-10.3-6.7h-95.2
			c-6.5,0-10.3,2.6-10.3,6.7c0,2.2,1.1,4.7,3.1,7.3l44,55.7C217.1,318.1,220.9,320.1,225,320.1z"/>
	</g>
</g>
</svg>
