<?xml version="1.0" encoding="utf-8"?>
<!-- Generator: Adobe Illustrator 25.4.1, SVG Export Plug-In . SVG Version: 6.00 Build 0)  -->
<svg version="1.1" id="Layer_1" xmlns="http://www.w3.org/2000/svg" xmlns:xlink="http://www.w3.org/1999/xlink" x="0px" y="0px"
	 viewBox="0 0 450 612.1" style="enable-background:new 0 0 450 612.1;" xml:space="preserve">
<style type="text/css">
	.st0{fill:#A8D3D8;}
	.st1{fill:#7CA1B1;}
	.st2{fill:#00C213;}
	.st3{fill:#00870D;}
	.st4{fill:#DEECF1;}
</style>
<path class="st0" d="M255,400.1v197c0,8.4-6.6,15-15,15h-30c-8.4,0-15-6.6-15-15v-197H255z"/>
<path class="st1" d="M255,400.1v197c0,8.4-6.6,15-15,15h-15v-212H255z"/>
<path class="st2" d="M450,15v370.1c0,8.4-6.6,15-15,15H15c-8.4,0-15-6.6-15-15V15C0,6.6,6.6,0,15,0h420C443.4,0,450,6.6,450,15z"/>
<path class="st3" d="M450,15v370.1c0,8.4-6.6,15-15,15H225V0h210C443.4,0,450,6.6,450,15z"/>
<path class="st4" d="M240,185.1v120c0,8.4-6.6,15-15,15s-15-6.6-15-15v-120c0-8.4,6.6-15,15-15S240,176.7,240,185.1z"/>
<path class="st4" d="M180,215.1c0-24.8-20.2-45-45-45h-30c-8.3,0-15,6.7-15,15v120c0,8.3,6.7,15,15,15h30c24.8,0,45-20.2,45-45
	c0-11.6-4.5-22-11.7-30C175.5,237.1,180,226.7,180,215.1z M120,200.1h15c8.3,0,15,6.7,15,15s-6.7,15-15,15h-15V200.1z M135,290.1
	h-15v-30h15c8.3,0,15,6.7,15,15S143.3,290.1,135,290.1z"/>
<path class="st0" d="M315,320.1h-30c-8.3,0-15-6.7-15-15v-120c0-8.3,6.7-15,15-15h30c24.8,0,45,20.2,45,45v60
	C360,299.9,339.8,320.1,315,320.1z M300,290.1h15c8.3,0,15-6.7,15-15v-60c0-8.3-6.7-15-15-15h-15V290.1z"/>
<path class="st0" d="M225,320.1v-150c8.4,0,15,6.6,15,15v120C240,313.5,233.4,320.1,225,320.1z"/>
<path class="st4" d="M315,370.1H135c-8.4,0-15,6.6-15,15v30c0,8.4,6.6,15,15,15h180c8.4,0,15-6.6,15-15v-30
	C330,376.7,323.4,370.1,315,370.1z"/>
<path class="st0" d="M330,385.1v30c0,8.4-6.6,15-15,15h-90v-60h90C323.4,370.1,330,376.7,330,385.1z"/>
<g>
	<g>
		<path class="st4" d="M214.2,54.5l-44,55.7c-2,2.6-3.1,5.2-3.1,7.3c0,4.2,3.9,6.7,10.3,6.7h95.2c6.5,0,10.3-2.6,10.3-6.7
			c0-2.2-1.1-4.7-3.1-7.3l-44-55.7c-2.8-3.6-6.7-5.6-10.8-5.6C220.9,48.9,217.1,50.9,214.2,54.5z"/>
	</g>
</g>
</svg>
