<?xml version="1.0" encoding="utf-8"?>
<!-- Generator: Adobe Illustrator 26.0.1, SVG Export Plug-In . SVG Version: 6.00 Build 0)  -->
<svg version="1.1" id="Layer_1" xmlns="http://www.w3.org/2000/svg" xmlns:xlink="http://www.w3.org/1999/xlink" x="0px" y="0px"
	 viewBox="0 0 450 400.1" style="enable-background:new 0 0 450 400.1;" xml:space="preserve">
<style type="text/css">
	.st0{fill:#B2053A;}
	.st1{fill:#9B0030;}
	.st2{fill:#DEECF1;}
	.st3{fill:#A8D3D8;}
</style>
<path class="st0" d="M450,50v300.1c0,27.6-22.4,50-50,50H50c-27.6,0-50-22.4-50-50V50C0,22.4,22.4,0,50,0h350
	C427.6,0,450,22.4,450,50z"/>
<path class="st1" d="M450,50v300.1c0,27.6-22.4,50-50,50H225V0h175C427.6,0,450,22.4,450,50z"/>
<path class="st2" d="M240,84.2v120c0,8.4-6.6,15-15,15s-15-6.6-15-15v-120c0-8.4,6.6-15,15-15S240,75.8,240,84.2z"/>
<path class="st2" d="M180,114.2c0-24.8-20.2-45-45-45h-30c-8.3,0-15,6.7-15,15v120c0,8.3,6.7,15,15,15h30c24.8,0,45-20.2,45-45
	c0-11.6-4.5-22-11.7-30C175.5,136.2,180,125.8,180,114.2z M120,99.2h15c8.3,0,15,6.7,15,15s-6.7,15-15,15h-15V99.2z M135,189.2h-15
	v-30h15c8.3,0,15,6.7,15,15S143.3,189.2,135,189.2z"/>
<path class="st3" d="M315,219.2h-30c-8.3,0-15-6.7-15-15v-120c0-8.3,6.7-15,15-15h30c24.8,0,45,20.2,45,45v60
	C360,199,339.8,219.2,315,219.2z M300,189.2h15c8.3,0,15-6.7,15-15v-60c0-8.3-6.7-15-15-15h-15V189.2z"/>
<path class="st3" d="M225,219.2v-150c8.4,0,15,6.6,15,15v120C240,212.6,233.4,219.2,225,219.2z"/>
<g>
	<path class="st2" d="M263.4,268.6c5.1-5.1,13.4-5.1,18.5,0s5.1,13.4,0,18.5l-47.7,47.7c-5.1,5.1-13.4,5.1-18.5,0L168,287.1
		c-5.1-5.1-5.1-13.4,0-18.5s13.4-5.1,18.5,0l38.4,38.4L263.4,268.6z"/>
</g>
</svg>
