<?xml version="1.0" encoding="utf-8"?>
<!-- Generator: Adobe Illustrator 26.0.1, SVG Export Plug-In . SVG Version: 6.00 Build 0)  -->
<svg version="1.1" id="Layer_1" xmlns="http://www.w3.org/2000/svg" xmlns:xlink="http://www.w3.org/1999/xlink" x="0px" y="0px"
	 viewBox="0 0 450 400.1" style="enable-background:new 0 0 450 400.1;" xml:space="preserve">
<style type="text/css">
	.st0{fill:#00C213;}
	.st1{fill:#00870D;}
	.st2{fill:#DEECF1;}
	.st3{fill:#A8D3D8;}
</style>
<path class="st0" d="M450,50v300.1c0,27.6-22.4,50-50,50H50c-27.6,0-50-22.4-50-50V50C0,22.4,22.4,0,50,0h350
	C427.6,0,450,22.4,450,50z"/>
<path class="st1" d="M450,50.1v300c0,27.6-22.4,50-50,50H225V0h174.9C427.6,0,450,22.4,450,50.1z"/>
<path class="st2" d="M240,195.1v120c0,8.4-6.6,15-15,15s-15-6.6-15-15v-120c0-8.4,6.6-15,15-15S240,186.7,240,195.1z"/>
<path class="st2" d="M180,225.1c0-24.8-20.2-45-45-45h-30c-8.3,0-15,6.7-15,15v120c0,8.3,6.7,15,15,15h30c24.8,0,45-20.2,45-45
	c0-11.6-4.5-22-11.7-30C175.5,247.1,180,236.7,180,225.1z M120,210.1h15c8.3,0,15,6.7,15,15s-6.7,15-15,15h-15V210.1z M135,300.1
	h-15v-30h15c8.3,0,15,6.7,15,15S143.3,300.1,135,300.1z"/>
<path class="st3" d="M315,330.1h-30c-8.3,0-15-6.7-15-15v-120c0-8.3,6.7-15,15-15h30c24.8,0,45,20.2,45,45v60
	C360,309.9,339.8,330.1,315,330.1z M300,300.1h15c8.3,0,15-6.7,15-15v-60c0-8.3-6.7-15-15-15h-15V300.1z"/>
<path class="st3" d="M225,330.1v-150c8.4,0,15,6.6,15,15v120C240,323.5,233.4,330.1,225,330.1z"/>
<g>
	<path class="st2" d="M263.4,130.5c5.1,5.1,13.4,5.1,18.5,0c5.1-5.1,5.1-13.4,0-18.5l-47.7-47.7c-5.1-5.1-13.4-5.1-18.5,0L168,112
		c-5.1,5.1-5.1,13.4,0,18.5c5.1,5.1,13.4,5.1,18.5,0L225,92.1L263.4,130.5z"/>
</g>
</svg>
