<?xml version="1.0" encoding="utf-8"?>
<!-- Generator: Adobe Illustrator 26.0.1, SVG Export Plug-In . SVG Version: 6.00 Build 0)  -->
<svg version="1.1" id="Layer_1" xmlns="http://www.w3.org/2000/svg" xmlns:xlink="http://www.w3.org/1999/xlink" x="0px" y="0px"
	 viewBox="0 0 28 31" style="enable-background:new 0 0 28 31;" xml:space="preserve">
<path d="M27.4,6.1l-13-6c-0.3-0.1-0.6-0.1-0.8,0l-13,6C0.2,6.3,0,6.6,0,7v17c0,0.4,0.2,0.7,0.6,0.9l13,6c0.3,0.1,0.6,0.1,0.8,0l13-6
	c0.4-0.2,0.6-0.5,0.6-0.9V7C28,6.6,27.8,6.3,27.4,6.1z M14,2.1L24.6,7L14,11.9L3.4,7L14,2.1z M2,8.6l11,5.1v14.8L2,23.4V8.6z
	 M15,28.4V13.6l11-5.1v14.8L15,28.4z"/>
</svg>
