<?xml version="1.0" encoding="utf-8"?>
<!-- Generator: Adobe Illustrator 25.2.1, SVG Export Plug-In . SVG Version: 6.00 Build 0)  -->
<svg version="1.1" id="Layer_1" xmlns="http://www.w3.org/2000/svg" xmlns:xlink="http://www.w3.org/1999/xlink" x="0px" y="0px"
	 viewBox="0 0 217.6 255.47" style="enable-background:new 0 0 217.6 255.47;" xml:space="preserve">
<style type="text/css">
	.st0{fillRule:evenodd;clip-rule:evenodd;fill:url(#Head_1_);}
	.st1{fillRule:evenodd;clip-rule:evenodd;fill:#FFFFFF;}
	.st2{fillRule:evenodd;clip-rule:evenodd;fill:url(#path-3_2_);}
</style>
<linearGradient id="Head_1_" gradientUnits="userSpaceOnUse" x1="-194.2187" y1="269.5411" x2="-193.2187" y2="269.5411" gradientTransform="matrix(217.6 0 0 255.4727 42261.9844 -68732.6641)">
	<stop  offset="0" style="stop-color:#F05822"/>
	<stop  offset="0.4099" style="stop-color:#F05822"/>
	<stop  offset="0.582" style="stop-color:#ED2F24"/>
	<stop  offset="1" style="stop-color:#ED2F24"/>
</linearGradient>
<path id="Head" class="st0" d="M209.98,61.28l5.98-14.71c0,0-7.62-8.17-16.86-17.43s-28.83-3.81-28.83-3.81L147.97,0H108.8H69.63
	l-22.3,25.34c0,0-19.58-5.45-28.83,3.81S1.63,46.58,1.63,46.58l5.98,14.71L0,83.07c0,0,22.4,84.95,25.02,95.32
	c5.17,20.43,8.7,28.32,23.39,38.67s41.34,28.32,45.7,31.05c4.35,2.72,9.79,7.36,14.69,7.36s10.34-4.64,14.69-7.36
	c4.35-2.72,31.01-20.7,45.7-31.05s18.22-18.25,23.39-38.67c2.62-10.37,25.02-95.32,25.02-95.32L209.98,61.28z"/>
<path id="Face" class="st1" d="M164.02,41.4c0,0,28.69,34.72,28.69,42.14s-3.61,9.38-7.24,13.24s-19.48,20.71-21.51,22.87
	c-2.04,2.16-6.27,5.44-3.78,11.35c2.49,5.9,6.17,13.42,2.08,21.04c-4.09,7.62-11.09,12.71-15.58,11.87
	c-4.49-0.84-15.03-6.36-18.9-8.88c-3.88-2.52-16.16-12.66-16.16-16.54s12.7-10.85,15.04-12.43c2.35-1.58,13.05-7.71,13.27-10.12
	s0.14-3.11-3.02-9.05s-8.84-13.88-7.9-19.15c0.95-5.28,10.12-8.02,16.66-10.5c6.54-2.47,19.15-7.15,20.72-7.88
	c1.57-0.73,1.17-1.42-3.6-1.87c-4.77-0.45-18.3-2.25-24.4-0.55c-6.1,1.7-16.52,4.29-17.37,5.67c-0.84,1.37-1.59,1.42-0.72,6.16
	c0.87,4.74,5.33,27.48,5.76,31.52c0.43,4.04,1.28,6.71-3.07,7.7c-4.35,1-11.67,2.72-14.19,2.72s-9.84-1.73-14.19-2.72
	c-4.35-1-3.5-3.67-3.07-7.7c0.43-4.04,4.9-26.78,5.76-31.52c0.87-4.74,0.12-4.79-0.72-6.16c-0.84-1.37-11.27-3.96-17.37-5.67
	c-6.1-1.7-19.63,0.1-24.4,0.55s-5.18,1.14-3.6,1.87c1.57,0.73,14.18,5.4,20.72,7.88c6.54,2.48,15.72,5.22,16.66,10.5
	c0.95,5.28-4.74,13.21-7.9,19.15s-3.24,6.65-3.02,9.05c0.22,2.41,10.92,8.53,13.27,10.12c2.35,1.58,15.04,8.55,15.04,12.43
	s-12.28,14.03-16.16,16.54s-14.42,8.03-18.9,8.88c-4.49,0.84-11.49-4.25-15.58-11.87S54.93,136.9,57.42,131
	c2.49-5.9-1.74-9.19-3.78-11.35c-2.03-2.16-17.88-19.01-21.51-22.87c-3.63-3.86-7.24-5.82-7.24-13.24S53.58,41.4,53.58,41.4
	s24.21,4.63,27.47,4.63s10.34-2.72,16.86-4.9c6.53-2.18,10.88-2.19,10.88-2.19s4.35,0.02,10.88,2.19s13.6,4.9,16.86,4.9
	C139.81,46.03,164.02,41.4,164.02,41.4z M142.51,174.23c1.78,1.11,0.69,3.21-0.92,4.36c-1.62,1.14-23.36,18-25.47,19.86
	s-5.21,4.94-7.32,4.94s-5.21-3.08-7.32-4.94s-23.85-18.72-25.47-19.86s-2.7-3.24-0.92-4.36c1.78-1.11,7.33-3.92,15-7.89
	s17.22-7.35,18.71-7.35s11.04,3.38,18.71,7.35S140.73,173.12,142.51,174.23z"/>
<g id="Top-Head">
	
		<linearGradient id="path-3_2_" gradientUnits="userSpaceOnUse" x1="-194.0138" y1="274.2784" x2="-193.0353" y2="274.2784" gradientTransform="matrix(180.608 0 0 46.0337 35062.8125 -12603.0322)">
		<stop  offset="0" style="stop-color:#EF4933"/>
		<stop  offset="1" style="stop-color:#ED2F24"/>
	</linearGradient>
	<path id="path-3_1_" class="st2" d="M170.27,25.34L147.97,0H108.8H69.63l-22.3,25.34c0,0-19.58-5.45-28.83,3.81
		c0,0,26.11-2.36,35.09,12.26c0,0,24.21,4.63,27.47,4.63s10.34-2.72,16.86-4.9c6.53-2.18,10.88-2.19,10.88-2.19
		s4.35,0.02,10.88,2.19s13.6,4.9,16.86,4.9s27.47-4.63,27.47-4.63c8.98-14.62,35.09-12.26,35.09-12.26
		C189.86,19.89,170.27,25.34,170.27,25.34"/>
</g>
</svg>
