<?xml version="1.0" encoding="utf-8"?>
<!-- Generator: Adobe Illustrator 25.3.1, SVG Export Plug-In . SVG Version: 6.00 Build 0)  -->
<svg version="1.1" id="Layer_1" xmlns="http://www.w3.org/2000/svg" xmlns:xlink="http://www.w3.org/1999/xlink" x="0px" y="0px"
	 viewBox="0 0 512.1 480" style="enable-background:new 0 0 512.1 480;" xml:space="preserve">
<style type="text/css">
	.st0{fill:#244277;}
	.st1{fill:#2A6DFF;}
</style>
<g>
	<path class="st0" d="M467.5,412.9C496.3,382,512,343.8,512,304c0-49.8-24.6-94.9-64-126.9C447.1,291.2,339.8,384,208,384h-89.2
		c34.5,56.9,104.6,96,185.2,96h192c6.5,0,12.3-3.9,14.8-9.9c2.5-6,1.1-12.9-3.5-17.4L467.5,412.9z"/>
	<path class="st1" d="M208,0C93.3,0,0,78.9,0,176c0,39.8,15.7,77.9,44.5,108.9L4.7,324.7c-4.6,4.6-6,11.5-3.5,17.4
		c2.5,6,8.3,9.9,14.8,9.9h192c114.7,0,208-78.9,208-176S322.7,0,208,0z"/>
</g>
</svg>
