<?xml version="1.0" encoding="utf-8"?>
<!-- Generator: Adobe Illustrator 25.2.1, SVG Export Plug-In . SVG Version: 6.00 Build 0)  -->
<svg version="1.1" id="Layer_1" xmlns="http://www.w3.org/2000/svg" xmlns:xlink="http://www.w3.org/1999/xlink" x="0px" y="0px"
	 viewBox="0 0 542 543" style="enable-background:new 0 0 542 543;" xml:space="preserve">
<style type="text/css">
	.st0{clipPath:url(#SVGID_2_);}
	.st1{fill:#DB4437;}
	.st2{fill:url(#SVGID_3_);}
	.st3{clipPath:url(#SVGID_5_);fill:#3E2723;fill-opacity:0.15;}
	.st4{clipPath:url(#SVGID_7_);}
	.st5{fill:#0F9D58;}
	.st6{fill:url(#SVGID_8_);}
	.st7{clipPath:url(#SVGID_10_);fill:#263238;fill-opacity:0.15;}
	.st8{clipPath:url(#SVGID_12_);}
	.st9{clipPath:url(#SVGID_14_);}
	.st10{fill:#FFCD40;}
	.st11{fill:url(#SVGID_15_);}
	.st12{clipPath:url(#SVGID_17_);}
	.st13{fill:url(#SVGID_18_);}
	.st14{clipPath:url(#SVGID_20_);}
	.st15{clipPath:url(#SVGID_22_);}
	.st16{fill:url(#SVGID_23_);}
	.st17{clipPath:url(#SVGID_25_);fill:url(#SVGID_26_);}
	.st18{clipPath:url(#SVGID_28_);}
	.st19{clipPath:url(#SVGID_30_);}
	.st20{fill:url(#SVGID_31_);}
	.st21{clipPath:url(#SVGID_33_);fill:url(#SVGID_34_);}
	.st22{clipPath:url(#SVGID_36_);fill:url(#SVGID_37_);}
	.st23{clipPath:url(#SVGID_39_);}
	.st24{fill:#F1F1F1;}
	.st25{fill:#4285F4;}
	.st26{clipPath:url(#SVGID_41_);}
	.st27{fill:#3E2723;fill-opacity:0.2;}
	.st28{fill:#FFFFFF;fill-opacity:0.1;}
	.st29{opacity:0.1;fill:#3E2723;enable-background:new    ;}
	.st30{fill:#FFFFFF;fill-opacity:0.2;}
	.st31{clipPath:url(#SVGID_43_);}
	.st32{fill:#3E2723;fill-opacity:0.15;}
	.st33{fill:url(#SVGID_44_);}
</style>
<g>
	<defs>
		<circle id="SVGID_1_" cx="270" cy="272" r="266.67"/>
	</defs>
	<clipPath id="SVGID_2_">
		<use xlink:href="#SVGID_1_"  style="overflow:visible;"/>
	</clipPath>
	<g transform="translate(-8 -8)" class="st0">
		<path class="st1" d="M53.67,13.33v327.27h119.36L278,158.79h266.67V13.33H53.67z"/>
		
			<linearGradient id="SVGID_3_" gradientUnits="userSpaceOnUse" x1="-86.9713" y1="587.7795" x2="-34.4713" y2="618.4465" gradientTransform="matrix(3.0303 0 0 -3.0303 339.5394 1997.5757)">
			<stop  offset="0" style="stop-color:#A52714;stop-opacity:0.6"/>
			<stop  offset="0.66" style="stop-color:#A52714;stop-opacity:0"/>
		</linearGradient>
		<path class="st2" d="M53.67,13.33v327.27h119.36L278,158.79h266.67V13.33H53.67z"/>
	</g>
</g>
<g>
	<defs>
		<circle id="SVGID_4_" cx="270" cy="272" r="266.67"/>
	</defs>
	<clipPath id="SVGID_5_">
		<use xlink:href="#SVGID_4_"  style="overflow:visible;"/>
	</clipPath>
	<path class="st3" d="M167.91,331.55l-120.7-207l-1.76,3.03l119.82,205.45L167.91,331.55z"/>
</g>
<g>
	<defs>
		<circle id="SVGID_6_" cx="270" cy="272" r="266.67"/>
	</defs>
	<clipPath id="SVGID_7_">
		<use xlink:href="#SVGID_6_"  style="overflow:visible;"/>
	</clipPath>
	<g transform="translate(-8 -8)" class="st4">
		<path class="st5" d="M11.33,546.67h253.85L383,428.85v-88.24H173.03L11.33,63.27V546.67z"/>
		
			<linearGradient id="SVGID_8_" gradientUnits="userSpaceOnUse" x1="-5.4379" y1="498.3003" x2="-63.7699" y2="532.4702" gradientTransform="matrix(3.0303 0 0 -3.0303 339.5394 1997.5757)">
			<stop  offset="0" style="stop-color:#055524;stop-opacity:0.4"/>
			<stop  offset="0.33" style="stop-color:#055524;stop-opacity:0"/>
		</linearGradient>
		<path class="st6" d="M11.33,546.67h253.85L383,428.85v-88.24H173.03L11.33,63.27V546.67z"/>
	</g>
</g>
<g>
	<defs>
		<circle id="SVGID_9_" cx="270" cy="272" r="266.67"/>
	</defs>
	<clipPath id="SVGID_10_">
		<use xlink:href="#SVGID_9_"  style="overflow:visible;"/>
	</clipPath>
	<path class="st7" d="M372.55,336.64l-2.52-1.45L253.7,538.67h3.48l115.45-201.94L372.55,336.64z"/>
</g>
<g>
	<defs>
		<circle id="SVGID_11_" cx="270" cy="272" r="266.67"/>
	</defs>
	<clipPath id="SVGID_12_">
		<use xlink:href="#SVGID_11_"  style="overflow:visible;"/>
	</clipPath>
	<g transform="translate(-8 -8)" class="st8">
		<g>
			<defs>
				<polygon id="SVGID_13_" points="11.33,546.67 265.18,546.67 383,428.85 383,340.61 173.03,340.61 11.33,63.27 				"/>
			</defs>
			<clipPath id="SVGID_14_">
				<use xlink:href="#SVGID_13_"  style="overflow:visible;"/>
			</clipPath>
			<g class="st9">
				<path class="st10" d="M278,158.79l105,181.82L265.18,546.67h279.48V158.79H278z"/>
				
					<linearGradient id="SVGID_15_" gradientUnits="userSpaceOnUse" x1="5.5467" y1="612.9948" x2="20.2367" y2="548.6688" gradientTransform="matrix(3.0303 0 0 -3.0303 339.5394 1997.5757)">
					<stop  offset="0" style="stop-color:#EA6100;stop-opacity:0.3"/>
					<stop  offset="0.66" style="stop-color:#EA6100;stop-opacity:0"/>
				</linearGradient>
				<path class="st11" d="M278,158.79l105,181.82L265.18,546.67h279.48V158.79H278z"/>
			</g>
		</g>
	</g>
</g>
<g>
	<defs>
		<circle id="SVGID_16_" cx="270" cy="272" r="266.67"/>
	</defs>
	<clipPath id="SVGID_17_">
		<use xlink:href="#SVGID_16_"  style="overflow:visible;"/>
	</clipPath>
	<g transform="translate(-8 -8)" class="st12">
		<path class="st10" d="M278,158.79l105,181.82L265.18,546.67h279.48V158.79H278z"/>
		
			<linearGradient id="SVGID_18_" gradientUnits="userSpaceOnUse" x1="5.5467" y1="612.9948" x2="20.2367" y2="548.6688" gradientTransform="matrix(3.0303 0 0 -3.0303 339.5394 1997.5757)">
			<stop  offset="0" style="stop-color:#EA6100;stop-opacity:0.3"/>
			<stop  offset="0.66" style="stop-color:#EA6100;stop-opacity:0"/>
		</linearGradient>
		<path class="st13" d="M278,158.79l105,181.82L265.18,546.67h279.48V158.79H278z"/>
	</g>
</g>
<g>
	<defs>
		<circle id="SVGID_19_" cx="270" cy="272" r="266.67"/>
	</defs>
	<clipPath id="SVGID_20_">
		<use xlink:href="#SVGID_19_"  style="overflow:visible;"/>
	</clipPath>
	<g transform="translate(-8 -8)" class="st14">
		<g>
			<defs>
				<polygon id="SVGID_21_" points="278,158.79 383,340.61 265.18,546.67 544.67,546.67 544.67,158.79 				"/>
			</defs>
			<clipPath id="SVGID_22_">
				<use xlink:href="#SVGID_21_"  style="overflow:visible;"/>
			</clipPath>
			<g class="st15">
				<path class="st1" d="M53.67,13.33v327.27h119.36L278,158.79h266.67V13.33H53.67z"/>
				
					<linearGradient id="SVGID_23_" gradientUnits="userSpaceOnUse" x1="-86.9713" y1="587.7795" x2="-34.4713" y2="618.4465" gradientTransform="matrix(3.0303 0 0 -3.0303 339.5394 1997.5757)">
					<stop  offset="0" style="stop-color:#A52714;stop-opacity:0.6"/>
					<stop  offset="0.66" style="stop-color:#A52714;stop-opacity:0"/>
				</linearGradient>
				<path class="st16" d="M53.67,13.33v327.27h119.36L278,158.79h266.67V13.33H53.67z"/>
			</g>
		</g>
	</g>
</g>
<g>
	<defs>
		<circle id="SVGID_24_" cx="270" cy="272" r="266.67"/>
	</defs>
	<clipPath id="SVGID_25_">
		<use xlink:href="#SVGID_24_"  style="overflow:visible;"/>
	</clipPath>
	
		<radialGradient id="SVGID_26_" cx="543.872" cy="598.852" r="84.078" gradientTransform="matrix(3.0303 0 0 -3.0303 -1389.6727 1965.3333)" gradientUnits="userSpaceOnUse">
		<stop  offset="0" style="stop-color:#3E2723;stop-opacity:0.2"/>
		<stop  offset="1" style="stop-color:#3E2723;stop-opacity:0"/>
	</radialGradient>
	<path class="st17" d="M270,150.79v63.48l237.58-63.48H270z"/>
</g>
<g>
	<defs>
		<circle id="SVGID_27_" cx="270" cy="272" r="266.67"/>
	</defs>
	<clipPath id="SVGID_28_">
		<use xlink:href="#SVGID_27_"  style="overflow:visible;"/>
	</clipPath>
	<g transform="translate(-8 -8)" class="st18">
		<g>
			<defs>
				<polygon id="SVGID_29_" points="53.67,13.33 53.67,135.58 173.03,340.61 278,158.79 544.67,158.79 544.67,13.33 				"/>
			</defs>
			<clipPath id="SVGID_30_">
				<use xlink:href="#SVGID_29_"  style="overflow:visible;"/>
			</clipPath>
			<g class="st19">
				<path class="st5" d="M11.33,546.67h253.85L383,428.85v-88.24H173.03L11.33,63.27V546.67z"/>
				
					<linearGradient id="SVGID_31_" gradientUnits="userSpaceOnUse" x1="-5.4379" y1="498.3003" x2="-63.7699" y2="532.4702" gradientTransform="matrix(3.0303 0 0 -3.0303 339.5394 1997.5757)">
					<stop  offset="0" style="stop-color:#055524;stop-opacity:0.4"/>
					<stop  offset="0.33" style="stop-color:#055524;stop-opacity:0"/>
				</linearGradient>
				<path class="st20" d="M11.33,546.67h253.85L383,428.85v-88.24H173.03L11.33,63.27V546.67z"/>
			</g>
		</g>
	</g>
</g>
<g>
	<defs>
		<circle id="SVGID_32_" cx="270" cy="272" r="266.67"/>
	</defs>
	<clipPath id="SVGID_33_">
		<use xlink:href="#SVGID_32_"  style="overflow:visible;"/>
	</clipPath>
	
		<radialGradient id="SVGID_34_" cx="473.572" cy="606.28" r="78.044" gradientTransform="matrix(3.0303 0 0 -3.0303 -1389.6727 1965.3333)" gradientUnits="userSpaceOnUse">
		<stop  offset="0" style="stop-color:#3E2723;stop-opacity:0.2"/>
		<stop  offset="1" style="stop-color:#3E2723;stop-opacity:0"/>
	</radialGradient>
	<path class="st21" d="M45.67,127.91l173.48,173.45l-54.12,31.24L45.67,127.91z"/>
</g>
<g>
	<defs>
		<circle id="SVGID_35_" cx="270" cy="272" r="266.67"/>
	</defs>
	<clipPath id="SVGID_36_">
		<use xlink:href="#SVGID_35_"  style="overflow:visible;"/>
	</clipPath>
	
		<radialGradient id="SVGID_37_" cx="547.532" cy="558.662" r="87.87" gradientTransform="matrix(3.0303 0 0 -3.0303 -1389.6727 1965.3333)" gradientUnits="userSpaceOnUse">
		<stop  offset="0" style="stop-color:#263238;stop-opacity:0.2"/>
		<stop  offset="1" style="stop-color:#263238;stop-opacity:0"/>
	</radialGradient>
	<path class="st22" d="M257.36,538.33l63.52-236.97L375,332.61L257.36,538.33z"/>
</g>
<g>
	<defs>
		<circle id="SVGID_38_" cx="270" cy="272" r="266.67"/>
	</defs>
	<clipPath id="SVGID_39_">
		<use xlink:href="#SVGID_38_"  style="overflow:visible;"/>
	</clipPath>
	<g transform="translate(-8 -8)" class="st23">
		<circle class="st24" cx="278" cy="280" r="121.21"/>
		<circle class="st25" cx="278" cy="280" r="96.97"/>
	</g>
</g>
<g>
	<defs>
		<circle id="SVGID_40_" cx="270" cy="272" r="266.67"/>
	</defs>
	<clipPath id="SVGID_41_">
		<use xlink:href="#SVGID_40_"  style="overflow:visible;"/>
	</clipPath>
	<g transform="translate(-8 -8)" class="st26">
		<path class="st27" d="M278,155.76c-66.94,0-121.21,54.27-121.21,121.21V280c0-66.94,54.27-121.21,121.21-121.21h266.67v-3.03H278z
			"/>
		<path class="st28" d="M382.85,340.61c-20.97,36.18-60.03,60.61-104.85,60.61c-44.85,0-83.91-24.42-104.88-60.61H173L11.33,63.27
			v3.03l161.7,277.33h0.12c20.97,36.18,60.03,60.61,104.88,60.61c44.82,0,83.88-24.39,104.85-60.61h0.15v-3.03H382.85z"/>
		<path class="st29" d="M281.03,158.79c-0.52,0-1,0.06-1.52,0.09c66.24,0.82,119.7,54.7,119.7,121.12s-53.45,120.3-119.7,121.12
			c0.52,0,1,0.09,1.52,0.09c66.94,0,121.21-54.27,121.21-121.21S347.97,158.79,281.03,158.79z"/>
		<path class="st30" d="M384.06,344.64c10.3-17.82,16.27-38.42,16.27-60.48c0-12.79-2-25.09-5.67-36.64
			c2.88,10.36,4.55,21.24,4.55,32.52c0,22.06-5.97,42.67-16.27,60.48l0.06,0.12L265.18,546.7h3.52l115.42-201.94L384.06,344.64z"/>
	</g>
</g>
<g>
	<defs>
		<circle id="SVGID_42_" cx="270" cy="272" r="266.67"/>
	</defs>
	<clipPath id="SVGID_43_">
		<use xlink:href="#SVGID_42_"  style="overflow:visible;"/>
	</clipPath>
	<g transform="translate(-8 -8)" class="st31">
		<path class="st30" d="M278,16.36c146.76,0,265.82,118.58,266.64,265.15c0-0.52,0.03-1,0.03-1.52
			c0-147.27-119.39-266.67-266.67-266.67S11.33,132.73,11.33,280c0,0.52,0.03,1,0.03,1.52C12.18,134.94,131.24,16.36,278,16.36z"/>
		<path class="st32" d="M278,543.64c146.76,0,265.82-118.58,266.64-265.15c0,0.52,0.03,1,0.03,1.52
			c0,147.27-119.39,266.67-266.67,266.67S11.33,427.27,11.33,280c0-0.52,0.03-1,0.03-1.52C12.18,425.06,131.24,543.64,278,543.64z"
			/>
	</g>
</g>
<radialGradient id="SVGID_44_" cx="-90.022" cy="622.786" r="176.75" gradientTransform="matrix(3.0303 0 0 -3.0303 355.7818 1965.3333)" gradientUnits="userSpaceOnUse">
	<stop  offset="0" style="stop-color:#FFFFFF;stop-opacity:0.1"/>
	<stop  offset="1" style="stop-color:#FFFFFF;stop-opacity:0"/>
</radialGradient>
<circle class="st33" cx="270" cy="272" r="266.67"/>
</svg>
