<svg width="32px" height="32px" viewBox="0 0 32 32" id="Lager_28" data-name="Lager 28" xmlns="http://www.w3.org/2000/svg">
  <g id="Group_6" data-name="Group 6">
    <path id="Path_29" data-name="Path 29" d="M16,0A16,16,0,1,0,32,16,16,16,0,0,0,16,0Zm0,28A12,12,0,1,1,28,16,12.013,12.013,0,0,1,16,28Z" fill="#040405"/>
    <path id="Path_30" data-name="Path 30" d="M21.443,10.584l-.027-.027a1.9,1.9,0,0,0-2.688,0L16,13.285l-2.728-2.728a1.9,1.9,0,0,0-2.688,0l-.027.027a1.9,1.9,0,0,0,0,2.688L13.285,16l-2.728,2.728a1.9,1.9,0,0,0,0,2.688l.027.027a1.9,1.9,0,0,0,2.688,0L16,18.715l2.728,2.728a1.9,1.9,0,0,0,2.688,0l.027-.027a1.9,1.9,0,0,0,0-2.688L18.715,16l2.728-2.728A1.9,1.9,0,0,0,21.443,10.584Z" fill="#040405"/>
  </g>
</svg>
