<?xml version="1.0" encoding="UTF-8"?>
<svg width="32px" height="32px" viewBox="0 0 32 32" version="1.1" xmlns="http://www.w3.org/2000/svg" xmlns:xlink="http://www.w3.org/1999/xlink">
    <!-- Generator: Sketch 54.1 (76490) - https://sketchapp.com -->
    <title>Group 7</title>
    <desc>Created with Sketch.</desc>
    <g id="Wallets" stroke="none" strokeWidth="1" fill="none" fillRule="evenodd">
        <g id="Wallet---History" transform="translate(-1767.000000, -189.000000)" fillRule="nonzero">
            <g id="Group-7" transform="translate(1767.000000, 189.000000)">
                <path d="M10.2555408,-4.14336123e-16 L21.7444592,4.14336123e-16 C25.3105342,-2.4074122e-16 26.6036791,0.371302445 27.9073828,1.06853082 C29.2110865,1.76575919 30.2342408,2.78891348 30.9314692,4.09261719 C31.6286976,5.39632089 32,6.68946584 32,10.2555408 L32,21.7444592 C32,25.3105342 31.6286976,26.6036791 30.9314692,27.9073828 C30.2342408,29.2110865 29.2110865,30.2342408 27.9073828,30.9314692 C26.6036791,31.6286976 25.3105342,32 21.7444592,32 L10.2555408,32 C6.68946584,32 5.39632089,31.6286976 4.09261719,30.9314692 C2.78891348,30.2342408 1.76575919,29.2110865 1.06853082,27.9073828 C0.371302445,26.6036791 1.60494146e-16,25.3105342 -2.76224082e-16,21.7444592 L2.76224082e-16,10.2555408 C-1.60494146e-16,6.68946584 0.371302445,5.39632089 1.06853082,4.09261719 C1.76575919,2.78891348 2.78891348,1.76575919 4.09261719,1.06853082 C5.39632089,0.371302445 6.68946584,2.4074122e-16 10.2555408,-4.14336123e-16 Z" id="Rectangle" fill="#FFFFFF" opacity="0.100000001"></path>
                <g id="Group-22" transform="translate(16.000000, 16.000000) rotate(45.000000) translate(-16.000000, -16.000000) translate(8.000000, 8.000000)" stroke="#FFFFFF" stroke-linecap="round" strokeWidth="2.4">
                    <path d="M0,8 L16,8" id="Line-8"></path>
                    <path d="M0,8 L16,8" id="Line-8" transform="translate(8.000000, 8.000000) rotate(-270.000000) translate(-8.000000, -8.000000) "></path>
                </g>
            </g>
        </g>
    </g>
</svg>
