<?xml version="1.0" encoding="iso-8859-1"?>
<!-- Generator: Adobe Illustrator 19.0.0, SVG Export Plug-In . SVG Version: 6.00 Build 0)  -->
<svg version="1.1" id="Layer_1" xmlns="http://www.w3.org/2000/svg" xmlns:xlink="http://www.w3.org/1999/xlink" x="0px" y="0px"
	 viewBox="0 0 512 512" style="enable-background:new 0 0 512 512;" xml:space="preserve">
<g>
	<g>
		<path d="M447.481,168.016c-3.941-7.885-11.999-12.865-20.815-12.865H309.17L369.906,33.68c3.607-7.213,3.222-15.782-1.018-22.643
			C364.648,4.177,357.157,0,349.091,0H209.455c-8.816,0-16.874,4.98-20.817,12.865L64.517,261.107
			c-3.607,7.213-3.221,15.782,1.019,22.643c4.242,6.861,11.732,11.037,19.797,11.037h126.363l-40.513,189.062
			c-2.29,10.687,3.165,21.527,13.112,26.056c3.106,1.415,6.389,2.095,9.635,2.095c7.148,0,14.119-3.299,18.627-9.311
			l232.727-310.302C450.575,185.336,451.424,175.899,447.481,168.016z M238.898,389.994l24.343-113.603
			c1.472-6.873-0.239-14.041-4.658-19.507c-4.417-5.466-11.07-8.642-18.098-8.642H122.991L223.839,46.545h87.597L250.7,168.016
			c-3.607,7.213-3.221,15.782,1.019,22.643c4.24,6.861,11.732,11.037,19.797,11.037h108.606L238.898,389.994z"/>
	</g>
</g>
<g>
</g>
<g>
</g>
<g>
</g>
<g>
</g>
<g>
</g>
<g>
</g>
<g>
</g>
<g>
</g>
<g>
</g>
<g>
</g>
<g>
</g>
<g>
</g>
<g>
</g>
<g>
</g>
<g>
</g>
</svg>
