<?xml version="1.0" encoding="iso-8859-1"?>
<!-- Generator: Adobe Illustrator 16.0.0, SVG Export Plug-In . SVG Version: 6.00 Build 0)  -->
<!DOCTYPE svg PUBLIC "-//W3C//DTD SVG 1.1//EN" "http://www.w3.org/Graphics/SVG/1.1/DTD/svg11.dtd">
<svg version="1.1" id="Capa_1" xmlns="http://www.w3.org/2000/svg" xmlns:xlink="http://www.w3.org/1999/xlink" x="0px" y="0px"
	 width="478.125px" height="478.125px" viewBox="0 0 478.125 478.125" style="enable-background:new 0 0 478.125 478.125;"
	 xml:space="preserve">
<g>
	<g>
		<g>
			<path d="M251.379,217.795c-15.759-7.65-31.289-11.475-31.289-24.021c0-11.246,6.579-14.611,17.06-14.611
				c7.42,0,13.846,2.754,19.814,7.42c4.513,3.825,9.715,6.35,15.988,6.35c11.704,0,20.196-11.016,20.196-21.497
				c0-7.879-4.055-14.611-11.476-19.813c-6.35-4.819-13.388-8.492-20.655-11.016v-10.021c0-9.715-7.879-17.595-17.595-17.595
				h-12.775c-9.715,0-17.595,7.88-17.595,17.595v11.016c-22.338,9.409-35.955,31.441-35.955,53.091
				c0,34.425,30.6,49.036,56.304,60.971c20.426,9.409,27.234,15.3,27.234,24.021c0,14.612-12.164,21.879-26.316,21.879
				c-8.109,0-15.529-0.918-24.48-7.42c-4.513-3.825-9.792-6.962-16.142-6.962c-11.704,0-20.196,11.017-20.196,21.497
				c0,7.649,3.825,13.847,10.863,19.277c7.803,5.968,19.584,11.093,28.688,13.541v7.65c0,9.715,7.879,17.595,17.595,17.595h12.775
				c9.716,0,17.595-7.88,17.595-17.595v-9.104c25.704-8.645,43.3-30.218,43.3-61.659
				C304.24,246.865,282.361,232.866,251.379,217.795z"/>
			<path d="M239.062,0C106.947,0,0,106.947,0,239.062s106.947,239.062,239.062,239.062c132.115,0,239.062-106.947,239.062-239.062
				S371.178,0,239.062,0z M239.292,409.734c-94.171,0-170.595-76.348-170.595-170.596c0-94.248,76.347-170.595,170.595-170.595
				s170.595,76.347,170.595,170.595C409.887,333.387,333.464,409.734,239.292,409.734z"/>
		</g>
	</g>
</g>
<g>
</g>
<g>
</g>
<g>
</g>
<g>
</g>
<g>
</g>
<g>
</g>
<g>
</g>
<g>
</g>
<g>
</g>
<g>
</g>
<g>
</g>
<g>
</g>
<g>
</g>
<g>
</g>
<g>
</g>
</svg>
