<?xml version="1.0" encoding="utf-8"?>
<!-- Generator: Adobe Illustrator 25.3.1, SVG Export Plug-In . SVG Version: 6.00 Build 0)  -->
<svg version="1.1" id="Layer_1" xmlns="http://www.w3.org/2000/svg" xmlns:xlink="http://www.w3.org/1999/xlink" x="0px" y="0px"
	 viewBox="0 0 359 359.1" style="enable-background:new 0 0 359 359.1;" xml:space="preserve">
<style type="text/css">
	.st0{fill:#FFFFFF;}
</style>
<g>
	<path class="st0" d="M313.3,299.3c63.1-70.4,60.8-179.1-6.9-246.8c-69.2-69.1-181.1-70.1-251.5-2.2c-70.4,67.9-73.6,179.7-7,251.4
		s178.3,76.9,251.2,11.7 M66.5,292.4C3.9,230.4,3.4,129.3,65.5,66.6C127.5,4,228.6,3.5,291.3,65.6c0.4,0.4,0.7,0.7,1.1,1.1
		c62.3,62.3,62.3,163.5,0,225.8C230.1,354.7,128.8,354.7,66.5,292.4z"/>
	<path class="st0" d="M239.3,169.6h-49.9v-49.9c0-5.5-4.5-10-10-10c-5.5,0-10,4.5-10,10v49.9h-49.9c-5.5,0-10,4.5-10,10
		c0,5.5,4.5,10,10,10h49.9v49.9c0,5.5,4.5,10,10,10c5.5,0,10-4.5,10-10v-49.9h49.9c5.5,0,10-4.5,10-10
		C249.3,174,244.8,169.6,239.3,169.6z"/>
</g>
</svg>
