<?xml version="1.0" encoding="utf-8"?>
<!-- Generator: Adobe Illustrator 25.4.1, SVG Export Plug-In . SVG Version: 6.00 Build 0)  -->
<svg version="1.1" id="Layer_1" xmlns="http://www.w3.org/2000/svg" xmlns:xlink="http://www.w3.org/1999/xlink" x="0px" y="0px"
	 viewBox="0 0 289 492" style="enable-background:new 0 0 289 492;" xml:space="preserve">
<style type="text/css">
	.st0{fill:#FFFFFF;}
</style>
<g>
	<g>
		<path class="st0" d="M281.2,226.8L62.3,7.9C57.2,2.8,50.4,0,43.2,0s-14,2.8-19,7.9L8.1,24C-2.4,34.5-2.4,51.6,8.1,62l183.9,183.9
			L7.9,430C2.8,435,0,441.8,0,449c0,7.2,2.8,14,7.9,19L24,484.1c5.1,5.1,11.8,7.9,19,7.9s14-2.8,19-7.9L281.2,265
			c5.1-5.1,7.9-11.9,7.8-19.1C289.1,238.7,286.3,231.9,281.2,226.8z"/>
	</g>
</g>
</svg>
