<?xml version="1.0" encoding="utf-8"?>
<!-- Generator: Adobe Illustrator 25.3.1, SVG Export Plug-In . SVG Version: 6.00 Build 0)  -->
<svg version="1.1" id="Layer_1" xmlns="http://www.w3.org/2000/svg" xmlns:xlink="http://www.w3.org/1999/xlink" x="0px" y="0px"
	 viewBox="0 0 442.6 221.3" style="enable-background:new 0 0 442.6 221.3;" xml:space="preserve">
<path d="M442.6,221.3c0-59.1-23-114.7-64.8-156.5S280.4,0,221.3,0S106.6,23,64.8,64.8S0,162.2,0,221.3 M15.1,221.3
	c0.8-22.6,5.3-51.8,12.8-72l22.7,9.4c3.8,1.6,8.2-0.2,9.8-4.1c1.6-3.8-0.2-8.2-4.1-9.8l-22.7-9.4c9.2-20.1,21.7-38.5,36.6-54.6
	l17.3,17.3c2.9,2.9,7.7,2.9,10.6,0c2.9-2.9,2.9-7.7,0-10.6L80.9,70.3c16-14.9,34.4-27.3,54.6-36.6l9.4,22.7c1.6,3.8,6,5.6,9.8,4.1
	c3.8-1.6,5.6-6,4.1-9.8L149.3,28c20.2-7.5,41.9-12,64.5-12.8v6.6c0,4.1,3.4,7.5,7.5,7.5c4.1,0,7.5-3.4,7.5-7.5v-6.6
	c22.6,0.8,44.3,5.3,64.5,12.8l-9.4,22.7c-0.4,0.9-0.6,1.9-0.6,2.9c0,2.9,1.7,5.7,4.6,6.9c3.8,1.6,8.2-0.2,9.8-4.1l9.4-22.7
	c20.1,9.3,38.5,21.7,54.6,36.6l-17.3,17.3c-1.5,1.5-2.2,3.4-2.2,5.3s0.7,3.8,2.2,5.3c2.9,2.9,7.7,2.9,10.6,0l17.3-17.3
	c14.9,16,27.3,34.4,36.6,54.6l-22.7,9.4c-2.9,1.2-4.6,4-4.6,6.9c0,1,0.2,1.9,0.6,2.9c1.6,3.8,6,5.6,9.8,4.1l22.7-9.4
	c7.5,20.2,12,49.4,12.8,72"/>
</svg>
