<?xml version="1.0" encoding="utf-8"?>
<!-- Generator: Adobe Illustrator 25.3.1, SVG Export Plug-In . SVG Version: 6.00 Build 0)  -->
<svg version="1.1" id="Layer_1" xmlns="http://www.w3.org/2000/svg" xmlns:xlink="http://www.w3.org/1999/xlink" x="0px" y="0px"
	 viewBox="0 0 204.3 204.3" style="enable-background:new 0 0 204.3 204.3;" xml:space="preserve">
<style type="text/css">
	.st0{fill:#2A6DFF;}
</style>
<path class="st0" d="M102.2,0C45.7,0,0,45.7,0,102.2c0,56.5,45.7,102.2,102.2,102.2c56.5,0,102.2-45.7,102.2-102.2
	C204.3,45.7,158.6,0,102.2,0z M102.2,188.4c-47.6,0-86.2-38.6-86.2-86.2C16,54.5,54.5,16,102.2,16c47.6,0,86.2,38.6,86.2,86.2
	C188.4,149.8,149.8,188.4,102.2,188.4z M174,80.9v30.3c0,4.4-3.6,8-8,8s-8-3.6-8-8v-11.1l-28.9,28.9c-3.1,3.1-8.2,3.1-11.3,0
	L80.9,92.2L44,129.1c-3.1,3.1-8.2,3.1-11.3,0c-3.1-3.1-3.1-8.2,0-11.3l42.6-42.6c3.1-3.1,8.2-3.1,11.3,0l36.9,36.9l23.3-23.3h-11.1
	c-4.4,0-8-3.6-8-8s3.6-8,8-8H166C170.5,72.9,174,76.6,174,80.9z"/>
</svg>
