<?xml version="1.0" encoding="utf-8"?>
<!-- Generator: Adobe Illustrator 25.3.1, SVG Export Plug-In . SVG Version: 6.00 Build 0)  -->
<svg version="1.1" id="Layer_1" xmlns="http://www.w3.org/2000/svg" xmlns:xlink="http://www.w3.org/1999/xlink" x="0px" y="0px"
	 viewBox="0 0 138.8 138.8" style="enable-background:new 0 0 138.8 138.8;" xml:space="preserve">
<style type="text/css">
	.st0{fill:#56575A;}
</style>
<path class="st0" d="M69.4,0C31,0,0,31,0,69.4c0,38.4,31,69.4,69.4,69.4c38.4,0,69.4-31,69.4-69.4C138.8,31,107.7,0,69.4,0z
	 M69.4,127.9c-32.4,0-58.5-26.2-58.5-58.5C10.8,37,37,10.8,69.4,10.8c32.4,0,58.5,26.2,58.5,58.5
	C127.9,101.7,101.8,127.9,69.4,127.9z M118.2,54.9v20.6c0,3-2.4,5.4-5.4,5.4c-3,0-5.4-2.4-5.4-5.4V68L87.7,87.7
	c-2.1,2.1-5.6,2.1-7.7,0L54.9,62.6L29.9,87.7c-2.1,2.1-5.5,2.1-7.7,0c-2.1-2.1-2.1-5.6,0-7.7l28.9-28.9c2.1-2.1,5.5-2.1,7.7,0
	l25.1,25.1l15.8-15.8h-7.5c-3,0-5.4-2.4-5.4-5.4c0-3,2.4-5.4,5.4-5.4h20.6C115.8,49.5,118.2,52,118.2,54.9z"/>
</svg>
