<?xml version="1.0" encoding="utf-8"?>
<!-- Generator: Adobe Illustrator 25.2.3, SVG Export Plug-In . SVG Version: 6.00 Build 0)  -->
<svg version="1.1" id="Layer_1" xmlns="http://www.w3.org/2000/svg" xmlns:xlink="http://www.w3.org/1999/xlink" x="0px" y="0px"
	 viewBox="0 0 793.21 388.04" style="enable-background:new 0 0 793.21 388.04;" xml:space="preserve">
<style type="text/css">
	.st0{clipPath:url(#SVGID_2_);fill:#FFFFFF;}
	.st1{fill:#FFFFFF;}
</style>
<g>
	<defs>
		<path id="SVGID_1_" d="M0,388.04h518.51c0,0-99.81-58.7-99.81-194.02C418.7,52.3,518.51,0,518.51,0H0V388.04z"/>
	</defs>
	<clipPath id="SVGID_2_">
		<use xlink:href="#SVGID_1_"  style="overflow:visible;"/>
	</clipPath>
	<path class="st0" d="M35.82,0H517.6c19,0,34.41,14.63,34.41,32.67S536.6,65.35,517.6,65.35H35.82c-19,0-34.41-14.63-34.41-32.67
		S16.82,0,35.82,0z M1.41,194.02c0,18.04,15.41,32.67,34.41,32.67H517.6c19,0,34.41-14.63,34.41-32.67s-15.41-32.67-34.41-32.67
		H35.82C16.82,161.35,1.41,175.98,1.41,194.02z M1.41,355.37c0,18.04,15.41,32.67,34.41,32.67H517.6c19,0,34.41-14.63,34.41-32.67
		c0-18.04-15.41-32.67-34.41-32.67H35.82C16.82,322.7,1.41,337.33,1.41,355.37z"/>
</g>
<g>
	<g>
		<path class="st1" d="M786.33,214.06c-2.98-0.74-5.95,0-8.56,1.86c-9.67,8.18-20.83,14.88-33.1,19.34
			c-11.53,4.46-24.18,6.7-37.57,6.7c-30.13,0-57.65-12.27-77.37-31.99c-19.71-19.71-31.99-47.24-31.99-77.37
			c0-12.65,2.23-24.92,5.95-36.08c4.09-11.9,10.04-22.69,17.85-31.99c3.35-4.09,2.6-10.04-1.49-13.39c-2.6-1.86-5.58-2.6-8.56-1.86
			c-31.62,8.56-59.14,27.53-78.86,52.82c-18.97,24.92-30.5,55.79-30.5,89.64c0,40.54,16.37,77.37,43.15,104.15
			c26.78,26.78,63.61,43.15,104.15,43.15c34.22,0,65.84-11.9,91.13-31.62c25.67-20.09,44.26-48.73,52.07-81.46
			C794.51,220.39,791.53,215.18,786.33,214.06z M729.42,291.8c-21.57,17.11-49.1,27.53-79.23,27.53
			c-35.34,0-67.33-14.51-90.39-37.57c-23.06-23.06-37.57-55.05-37.57-90.39c0-29.38,9.67-56.17,26.41-77.74
			c11.53-14.88,26.04-27.15,42.78-35.71c-1.86,4.09-3.72,8.18-5.21,12.65c-4.84,13.39-7.07,27.53-7.07,42.4
			c0,35.34,14.51,67.7,37.57,90.76c23.06,23.06,55.42,37.57,90.76,37.57c15.62,0,30.5-2.6,44.26-7.81
			c4.84-1.86,9.67-3.72,14.13-5.95C756.94,264.65,744.67,279.9,729.42,291.8z"/>
	</g>
</g>
</svg>
