<?xml version="1.0" encoding="utf-8"?>
<!-- Generator: Adobe Illustrator 25.2.3, SVG Export Plug-In . SVG Version: 6.00 Build 0)  -->
<svg version="1.1" id="Layer_1" xmlns="http://www.w3.org/2000/svg" xmlns:xlink="http://www.w3.org/1999/xlink" x="0px" y="0px"
	 viewBox="0 0 512 380.05" style="enable-background:new 0 0 512 380.05;" xml:space="preserve">
<style type="text/css">
	.st0{fill:#2A6DFF;}
</style>
<path class="st0" d="M32,0h448c17.67,0,32,14.33,32,32s-14.33,32-32,32H32C14.33,64,0,49.67,0,32S14.33,0,32,0z"/>
<path class="st0" d="M32,158.02h448c17.67,0,32,14.33,32,32s-14.33,32-32,32H32c-17.67,0-32-14.33-32-32S14.33,158.02,32,158.02z"/>
<path class="st0" d="M32,316.05h448c17.67,0,32,14.33,32,32s-14.33,32-32,32H32c-17.67,0-32-14.33-32-32S14.33,316.05,32,316.05z"/>
</svg>
