<?xml version="1.0" encoding="utf-8"?>
<!-- Generator: Adobe Illustrator 25.3.1, SVG Export Plug-In . SVG Version: 6.00 Build 0)  -->
<svg version="1.1" id="Layer_1" xmlns="http://www.w3.org/2000/svg" xmlns:xlink="http://www.w3.org/1999/xlink" x="0px" y="0px"
	 viewBox="0 0 1024 225" style="enable-background:new 0 0 1024 225;" xml:space="preserve">
<style type="text/css">
	.st0{clip-path:url(#SVGID_2_);}
	.st1{fill:#FFFFFF;}
	.st2{fill:#8247E5;}
</style>
<g>
	<defs>
		<rect id="SVGID_1_" width="1024" height="225"/>
	</defs>
	<clipPath id="SVGID_2_">
		<use xlink:href="#SVGID_1_"  style="overflow:visible;"/>
	</clipPath>
	<g class="st0">
		<path class="st1" d="M400.6,71.7c6.3,3.8,11.6,9,15,16.1c3.9,7.1,5.8,15.7,5.8,25.2c0,9.5-1.9,17.6-6.3,24.7
			c-3.9,7.1-9.7,12.3-16.9,15.7c-7.2,3.8-15.9,5.7-25.1,5.7c-5.3,0-10.1-0.9-15-2.8c-4.8-1.4-9.2-4.3-12.6-7.6v49.4h-28V67.9h24.2
			l2.4,10.4c10.6-8.5,22.2-12.8,34.3-12.8C386.6,65.5,394.3,67.4,400.6,71.7z M385.1,130.5c4.8-4.3,7.2-10,7.2-17.1
			s-2.4-12.8-6.8-17.6c-4.3-4.7-10.1-6.6-16.4-6.6c-5.3,0-10.1,0.9-14,3.3c-3.9,1.9-6.8,5.2-9.2,9.5v21.4c1.4,4.3,4.3,7.6,7.7,10
			c3.9,2.4,8.2,3.8,13.5,3.8C374.5,137.2,380.3,134.8,385.1,130.5z"/>
		<path class="st1" d="M437.8,88.3c4.3-6.6,10.1-12.3,17.9-16.1c7.7-3.8,16.4-6.2,26.1-6.2s18.4,1.9,26.1,6.2
			c7.2,3.8,13,9.5,17.4,16.6c4.3,7.1,6.3,14.7,6.3,23.7s-1.9,16.6-6.3,23.7s-9.7,12.8-17.4,16.6c-7.2,3.8-16.4,6.2-26.1,6.2
			s-18.4-1.9-26.1-5.7c-7.7-3.8-13.5-9-17.9-16.1c-3.9-7.1-6.3-15.2-6.3-24.7C431.5,103.5,434,95.4,437.8,88.3z M466.3,129.6
			c3.9,4.7,9.2,6.6,15.5,6.6c6.3,0,11.6-2.4,15.5-6.6c3.9-4.3,5.8-10.4,5.8-17.1c0-7.1-1.9-12.8-5.8-17.1c-4.3-4.7-9.2-7.1-15.9-7.1
			c-6.3,0-11.1,2.4-15.5,6.6c-3.9,4.7-5.8,10.4-5.8,17.6C460.1,119.1,462,124.8,466.3,129.6z"/>
		<path class="st1" d="M577,0.5v156.2h-28V0.5H577z"/>
		<path class="st1" d="M692,70.2l-57,128.2h-27.1l21.3-46l-40.6-82.1h31.9l23.2,51.3l23.2-51.3H692z"/>
		<path class="st1" d="M799.3,70.2v86.4c0,8.1-2.4,15.7-7.2,22.3c-4.8,6.6-11.1,11.9-19.3,15.7c-8.2,3.8-16.9,5.7-26.6,5.7
			c-7.2,0-13.5-0.9-18.8-2.4c-5.3-1.9-9.7-3.8-13-5.7c-3.9-2.4-7.7-5.2-12.1-9l16.4-19c3.9,3.8,8.2,6.6,12.1,8.5
			c3.9,1.9,9.2,3.3,15,3.3c7.2,0,13-1.9,17.9-5.2c4.8-3.3,7.2-8.5,7.2-14.7v-12.3c-2.9,4.3-6.8,8.1-12.6,10.9
			c-5.8,2.8-12.6,4.3-20.3,4.3s-15.5-1.9-22.2-6.2c-6.8-3.8-12.1-9.5-16.4-16.6c-3.9-7.1-6.3-14.7-6.3-23.3c0-8.5,1.9-16.6,6.3-23.7
			c4.3-7.1,9.7-12.8,16.9-17.1c6.8-4.3,14-6.2,21.7-6.2c7.2,0,13.5,0.9,19.3,2.8c5.8,1.9,10.1,4.7,13,8.1l2.9-6.6H799.3z
			 M770.8,123.4V102c-1.9-4.3-4.8-7.6-9.2-10c-4.3-2.4-9.2-3.8-15-3.8c-6.8,0-12.6,2.4-17.4,6.6c-4.8,4.3-7.2,10-7.2,17.1
			c0,6.6,2.4,12.8,7.2,17.6c4.8,4.7,10.6,7.1,17.4,7.1C757.7,136.2,765.9,131.9,770.8,123.4z"/>
		<path class="st1" d="M822.5,88.3c4.3-7.1,10.1-12.3,17.9-16.6c7.7-3.8,16.4-6.2,26.1-6.2c9.7,0,18.4,1.9,26.1,6.2
			c7.2,3.8,13,9.5,17.4,16.6c3.9,7.1,6.3,14.7,6.3,23.7s-1.9,16.6-6.3,23.7c-3.9,7.1-9.7,12.8-17.4,16.6c-7.2,3.8-16.4,6.2-26.1,6.2
			c-9.7,0-18.4-1.9-26.1-5.7c-7.7-3.8-13.5-9-17.9-16.1c-4.3-7.1-6.3-15.2-6.3-25.2C816.2,103.5,818.1,95.4,822.5,88.3z
			 M850.5,129.6c3.9,4.7,9.2,6.6,15.5,6.6c6.3,0,11.6-2.4,15.5-6.6c3.9-4.3,5.8-10.4,5.8-17.1c0-7.1-1.9-12.8-5.8-17.1
			c-3.9-4.3-9.2-6.6-15.5-6.6c-6.3,0-11.1,2.4-15.5,6.6c-4.4,4.3-6.3,10.4-6.3,17.1C844.7,119.1,846.7,124.8,850.5,129.6z"/>
		<path class="st1" d="M1015.3,73.1c5.8,4.7,8.2,10.9,8.7,18.5v65h-28.5V102c-0.5-8.5-4.8-12.8-13-12.8c-6.3,0-11.6,2.8-15.5,9
			c-3.9,6.2-5.8,13.8-5.8,22.8v35.6h-28V70.2h25.6l1.9,13.8c3.4-5.7,7.7-10,13.5-13.3c5.8-3.3,12.6-4.7,20.3-4.7
			C1002.7,66,1010,68.3,1015.3,73.1z"/>
		<path class="st2" d="M197.6,68.8c-4.8-2.8-11.1-2.8-16.4,0l-37.7,21.8l-25.6,14.2l-37.7,21.8c-4.8,2.8-11.1,2.8-16.4,0l-30-17.1
			c-4.8-2.8-8.2-8.1-8.2-13.8V62.2c0-5.7,2.9-10.9,8.2-13.8l29.5-16.6c4.8-2.8,11.1-2.8,16.4,0l29.5,16.6c4.8,2.8,8.2,8.1,8.2,13.8
			V84L143,69.3V47.5c0-5.7-2.9-10.9-8.2-13.8L80.2,2.4c-4.8-2.8-11.1-2.8-16.4,0L8.2,33.7C2.9,36.5,0,41.8,0,47.5v63.1
			c0,5.7,2.9,10.9,8.2,13.8l55.6,31.3c4.8,2.8,11.1,2.8,16.4,0l37.7-21.4l25.6-14.7l37.7-21.4c4.8-2.8,11.1-2.8,16.4,0l29.5,16.6
			c4.8,2.8,8.2,8.1,8.2,13.8v33.7c0,5.7-2.9,10.9-8.2,13.8l-29.5,17.1c-4.8,2.8-11.1,2.8-16.4,0l-29.5-16.6
			c-4.8-2.8-8.2-8.1-8.2-13.8V141l-25.6,14.7v21.8c0,5.7,2.9,10.9,8.2,13.8l55.6,31.3c4.8,2.8,11.1,2.8,16.4,0l55.6-31.3
			c4.8-2.8,8.2-8.1,8.2-13.8v-63.1c0-5.7-2.9-10.9-8.2-13.8L197.6,68.8z"/>
	</g>
</g>
</svg>
