<?xml version="1.0" encoding="utf-8"?>
<!-- Generator: Adobe Illustrator 25.2.3, SVG Export Plug-In . SVG Version: 6.00 Build 0)  -->
<svg version="1.1" id="Layer_1" xmlns="http://www.w3.org/2000/svg" xmlns:xlink="http://www.w3.org/1999/xlink" x="0px" y="0px"
	 viewBox="0 0 217.4 190" style="enable-background:new 0 0 217.4 190;" xml:space="preserve">
<style type="text/css">
	.st0{fill:#8247E5;}
</style>
<path class="st0" d="M162.5,59c-3.9-2.3-9-2.3-13.3,0l-30.5,18L97.9,88.7l-30.5,18c-3.9,2.3-9,2.3-13.3,0L29.9,92.6
	c-3.9-2.3-6.7-6.7-6.7-11.3V53.5c0-4.7,2.3-9,6.7-11.3l23.9-13.7c3.9-2.3,9-2.3,13.3,0l23.9,13.7c3.9,2.3,6.7,6.7,6.7,11.3v18
	l20.7-12.1v-18c0-4.7-2.3-9-6.7-11.3L67.4,4.2c-3.9-2.3-9-2.3-13.3,0L9.1,30c-4.3,2.3-6.7,6.7-6.7,11.3v52c0,4.7,2.3,9,6.7,11.3
	l45,25.8c3.9,2.3,9,2.3,13.3,0l30.5-17.6l20.7-12.1l30.5-17.6c3.9-2.3,9-2.3,13.3,0l23.9,13.7c3.9,2.3,6.7,6.7,6.7,11.3V136
	c0,4.7-2.3,9-6.7,11.3l-23.9,14.1c-3.9,2.3-9,2.3-13.3,0l-23.9-13.7c-3.9-2.3-6.7-6.7-6.7-11.3v-18l-20.7,12.1v18
	c0,4.7,2.3,9,6.7,11.3l45,25.8c3.9,2.3,9,2.3,13.3,0l45-25.8c3.9-2.3,6.7-6.7,6.7-11.3v-52c0-4.7-2.3-9-6.7-11.3L162.5,59z"/>
</svg>
