<?xml version="1.0" encoding="utf-8"?>
<!-- Generator: Adobe Illustrator 25.4.1, SVG Export Plug-In . SVG Version: 6.00 Build 0)  -->
<svg version="1.1" id="Layer_1" xmlns="http://www.w3.org/2000/svg" xmlns:xlink="http://www.w3.org/1999/xlink" x="0px" y="0px"
	 viewBox="0 0 383.3 383.3" style="enable-background:new 0 0 383.3 383.3;" xml:space="preserve">
<style type="text/css">
	.st0{fill:#FED233;}
	.st1{fill:#808080;}
	.st2{fill:#4D1E1E;}
	.st3{fill:#FFFFFF;}
</style>
<circle class="st0" cx="191.7" cy="191.7" r="191.6"/>
<path class="st1" d="M28.3,170C48.1,72.9,138.1,8,234.7,17.6c-4.3-1.2-8.7-2.4-13.2-3.3c-11.6-2.4-23.4-3.6-35.2-3.6
	c-82.7,0-154.8,59-171.4,140.2c-9,43.9-1,88.6,22.4,126.6C24.6,244.4,20.7,207.4,28.3,170z"/>
<g>
	<g>
		<g>
			<g>
				<path class="st2" d="M113.9,206.3c-18.3-0.1-34.7-7.6-46.2-19.6c4.7,21.3,22.5,39.7,45.6,39.8c23.1,0.1,41-18.8,47-39.4
					C148.7,199,132.2,206.4,113.9,206.3z"/>
			</g>
		</g>
		<g>
			<g>
				<path class="st2" d="M269.3,206.2c-18.3,0-34.8-7.4-46.3-19.4c6.8,22.7,24.8,38.5,47.9,38.5c23.1,0,38.5-16.5,44.7-38.6
					C304.1,198.7,287.6,206.2,269.3,206.2z"/>
			</g>
		</g>
	</g>
</g>
<path class="st3" d="M153,304.6c16.3-29.4,42.3-33.3,62.5-17.8c5.5,4.2,10.4,10.2,14.7,17.8c-4.5-2.3-8.9-4.9-13.4-6.8
	c-5.2-2.2-10.5-3.7-15.8-4.4c-10.9-1.4-21.6-0.4-32.4,3.3C163.3,298.5,158.2,301.7,153,304.6z"/>
<path class="st2" d="M67.7,152.3c39.6,0,95.2-14.2,92.6-30.7C156.1,105.1,120.2,138.2,67.7,152.3z"/>
<path class="st2" d="M315.7,152.3c-39.6,0-95.2-14.2-92.6-30.7C227.3,105.1,263.2,138.2,315.7,152.3z"/>
</svg>
