<?xml version="1.0" encoding="utf-8"?>
<!-- Generator: Adobe Illustrator 25.4.1, SVG Export Plug-In . SVG Version: 6.00 Build 0)  -->
<svg version="1.1" id="Layer_1" xmlns="http://www.w3.org/2000/svg" xmlns:xlink="http://www.w3.org/1999/xlink" x="0px" y="0px"
	 viewBox="0 0 106.7 96" style="enable-background:new 0 0 106.7 96;" xml:space="preserve">
<style type="text/css">
	.st0{fill-rule:evenodd;clip-rule:evenodd;fill:url(#SVGID_1_);}
</style>
<linearGradient id="SVGID_1_" gradientUnits="userSpaceOnUse" x1="3.2191" y1="-1.0742" x2="103.4159" y2="99.1223" gradientTransform="matrix(1 0 0 -1 0 97.0406)">
	<stop  offset="0" style="stop-color:#9945FF"/>
	<stop  offset="0.14" style="stop-color:#8A53F4"/>
	<stop  offset="0.42" style="stop-color:#6377D6"/>
	<stop  offset="0.79" style="stop-color:#24B0A7"/>
	<stop  offset="0.99" style="stop-color:#00D18C"/>
	<stop  offset="1" style="stop-color:#00D18C"/>
</linearGradient>
<path class="st0" d="M18.3,73.2c0.3-0.4,0.8-0.7,1.2-0.9c0.5-0.2,1-0.3,1.5-0.3h83.8c0.4,0,0.7,0.1,1,0.3c0.3,0.2,0.5,0.5,0.7,0.8
	c0.1,0.3,0.2,0.7,0.1,1c-0.1,0.3-0.2,0.7-0.5,0.9L88.3,94.8c-0.3,0.4-0.8,0.7-1.2,0.9c-0.5,0.2-1,0.3-1.5,0.3H1.8
	c-0.4,0-0.7-0.1-1-0.3c-0.3-0.2-0.5-0.5-0.7-0.8c-0.1-0.3-0.2-0.7-0.1-1s0.2-0.7,0.5-0.9L18.3,73.2z M106.2,56.9
	c0.2,0.3,0.4,0.6,0.5,0.9c0.1,0.3,0,0.7-0.1,1c-0.1,0.3-0.4,0.6-0.7,0.8c-0.3,0.2-0.6,0.3-1,0.3L21,60c-0.5,0-1-0.1-1.5-0.3
	c-0.5-0.2-0.9-0.5-1.2-0.9L0.5,39.1c-0.2-0.3-0.4-0.6-0.5-0.9c-0.1-0.3,0-0.7,0.1-1c0.1-0.3,0.4-0.6,0.7-0.8c0.3-0.2,0.6-0.3,1-0.3
	L85.6,36c0.5,0,1,0.1,1.5,0.3c0.5,0.2,0.9,0.5,1.2,0.9L106.2,56.9z M18.3,1.2c0.3-0.4,0.8-0.7,1.2-0.9C20,0.1,20.5,0,21,0l83.8,0.1
	c0.4,0,0.7,0.1,1,0.3c0.3,0.2,0.5,0.5,0.7,0.8c0.1,0.3,0.2,0.7,0.1,1c-0.1,0.3-0.2,0.7-0.5,0.9L88.3,22.8c-0.3,0.4-0.8,0.7-1.2,0.9
	c-0.5,0.2-1,0.3-1.5,0.3H1.8c-0.4,0-0.7-0.1-1-0.3c-0.3-0.2-0.5-0.5-0.7-0.8c-0.1-0.3-0.2-0.7-0.1-1c0.1-0.3,0.2-0.7,0.5-0.9
	L18.3,1.2z"/>
</svg>
