<?xml version="1.0" encoding="utf-8"?>
<!-- Generator: Adobe Illustrator 25.4.1, SVG Export Plug-In . SVG Version: 6.00 Build 0)  -->
<svg version="1.1" id="Layer_1" xmlns="http://www.w3.org/2000/svg" xmlns:xlink="http://www.w3.org/1999/xlink" x="0px" y="0px"
	 viewBox="0 0 176.6 180.2" style="enable-background:new 0 0 176.6 180.2;" xml:space="preserve">
<style type="text/css">
	.st0{fill:#E82127;}
</style>
<g>
	<path class="st0" d="M88.3,180.2L113,37.9c23.6,0,31,2.6,32.1,13.4c0,0,15.8-6,23.8-18.3c-31.1-14.8-62.3-15.4-62.3-15.4L88.3,40.3
		l0,0L70.1,17.6c0,0-31.2,0.7-62.3,15.4c8,12.3,23.8,18.3,23.8,18.3c1.1-10.8,8.5-13.4,31.9-13.5L88.3,180.2"/>
	<path class="st0" d="M88.3,11c25.1-0.2,53.9,4,83.4,17.1c3.9-7.3,4.9-10.5,4.9-10.5C144.4,4.6,114.2,0.1,88.3,0
		C62.3,0.1,32.2,4.6,0,17.6c0,0,1.4,4,4.9,10.5C34.4,15,63.2,10.8,88.3,11L88.3,11"/>
</g>
</svg>
