<svg id="Layer_1" height="512" viewBox="0 0 128 128" width="512" xmlns="http://www.w3.org/2000/svg" data-name="Layer 1"><path d="m70.634 112.715v8.845h-12.577v-9.26a56.649 56.649 0 0 1 -32.2-14.787l9.95-12.3a47.287 47.287 0 0 0 22.25 11.887v-26.95c-17-4.423-28.469-10.5-28.469-26.811 0-14.925 11.47-26.4 28.469-28.469v-8.43h12.577v8.569a51.408 51.408 0 0 1 29.022 12.852l-9.4 12.714a45.169 45.169 0 0 0 -19.622-10.364v25.981c18.933 4.284 31.509 10.779 31.509 27.639 0 15.894-11.471 27.502-31.509 28.884zm-12.577-59.84v-22.941c-6.771 1.658-11.057 6.495-11.057 11.885 0 5.528 3.594 8.43 11.057 11.056zm26.811 32.614c0-6.357-4.423-9.259-14.234-12.161v24.6c9.397-1.106 14.234-6.357 14.234-12.439z" fill="#72bd39"/></svg>