<?xml version="1.0" encoding="utf-8"?>
<!-- Generator: Adobe Illustrator 25.4.1, SVG Export Plug-In . SVG Version: 6.00 Build 0)  -->
<svg version="1.1" id="Capa_1" xmlns="http://www.w3.org/2000/svg" xmlns:xlink="http://www.w3.org/1999/xlink" x="0px" y="0px"
	 viewBox="0 0 27.3 27.3" style="enable-background:new 0 0 27.3 27.3;" xml:space="preserve">
<style type="text/css">
	.st0{fill:#AEB0D4;}
</style>
<g>
	<path class="st0" d="M7.3,18.9h4.1v-2.6H7.3c-1.7,0-2.6-0.6-2.6-1.7c0-1.1,0.9-1.7,2.6-1.7h2.3L4.2,4.5C3.8,3.8,3.5,3.3,3.3,3
		c-0.1-0.3-0.2-0.6-0.2-1c0-0.6,0.2-1.1,0.6-1.5C4.1,0.2,4.6,0,5.2,0c0.6,0,1.1,0.2,1.5,0.6C7,0.9,7.5,1.5,8,2.4l5.8,9.1L19,2.9
		c0.2-0.3,0.4-0.7,0.6-1.1c0.2-0.4,0.4-0.7,0.6-0.9c0.2-0.3,0.5-0.5,0.8-0.6C21.3,0.1,21.7,0,22.1,0c0.6,0,1.1,0.2,1.5,0.5
		c0.4,0.4,0.6,0.8,0.6,1.3c0,0.4-0.1,0.8-0.2,1.2c-0.1,0.3-0.4,0.8-0.7,1.3L18,12.9h2.3c1.7,0,2.5,0.6,2.5,1.7
		c0,1.1-0.8,1.7-2.5,1.7h-4.1v2.6h4.1c1.7,0,2.5,0.6,2.5,1.7c0,1.1-0.8,1.7-2.5,1.7h-4.1v1.4c0,2.4-0.8,3.7-2.4,3.7
		c-1.6,0-2.5-1.2-2.5-3.7v-1.4h-4c-1.7,0-2.6-0.6-2.6-1.7C4.7,19.4,5.6,18.9,7.3,18.9z"/>
</g>
</svg>
