<?xml version="1.0" encoding="utf-8"?>
<!-- Generator: Adobe Illustrator 25.4.1, SVG Export Plug-In . SVG Version: 6.00 Build 0)  -->
<svg version="1.1" id="Layer_1" xmlns="http://www.w3.org/2000/svg" xmlns:xlink="http://www.w3.org/1999/xlink" x="0px" y="0px"
	 viewBox="0 0 486 486" style="enable-background:new 0 0 486 486;" xml:space="preserve">
<style type="text/css">
	.st0{fill:#186CF1;}
	.st1{fill:#0A56D4;}
	.st2{fill:#0553DB;}
	.st3{fill:#0547B7;}
	.st4{fill:#115FDD;}
	.st5{fill:#FFFFFF;}
</style>
<rect x="9" y="153" class="st0" width="36" height="45"/>
<rect x="45" y="153" class="st0" width="9" height="18"/>
<rect x="18" y="198" class="st0" width="27" height="18"/>
<rect x="18" y="216" class="st0" width="18" height="81"/>
<rect x="36" y="270" class="st0" width="9" height="72"/>
<rect x="27" y="297" class="st0" width="9" height="27"/>
<rect x="45" y="315" class="st0" width="9" height="45"/>
<rect x="54" y="333" class="st0" width="9" height="36"/>
<rect x="63" y="351" class="st0" width="9" height="27"/>
<rect x="72" y="369" class="st0" width="9" height="18"/>
<rect x="81" y="378" class="st0" width="9" height="18"/>
<rect x="90" y="387" class="st0" width="9" height="18"/>
<rect x="99" y="396" class="st0" width="9" height="18"/>
<rect x="108" y="405" class="st0" width="9" height="9"/>
<rect x="18" y="135" class="st0" width="45" height="18"/>
<rect x="27" y="117" class="st0" width="45" height="18"/>
<rect x="36" y="108" class="st0" width="45" height="9"/>
<rect x="45" y="99" class="st0" width="45" height="9"/>
<rect x="54" y="90" class="st0" width="45" height="9"/>
<rect x="63" y="81" class="st0" width="45" height="9"/>
<rect x="72" y="72" class="st0" width="45" height="9"/>
<rect x="81" y="63" class="st0" width="54" height="9"/>
<rect x="81" y="54" class="st0" width="72" height="9"/>
<rect x="90" y="45" class="st0" width="81" height="9"/>
<rect x="108" y="36" class="st0" width="171" height="9"/>
<rect x="189" y="27" class="st0" width="36" height="9"/>
<rect x="207" y="45" class="st0" width="99" height="9"/>
<rect x="171" y="63" class="st0" width="162" height="63"/>
<rect x="180" y="54" class="st0" width="144" height="9"/>
<rect x="162" y="63" class="st0" width="9" height="45"/>
<rect x="153" y="72" class="st0" width="9" height="27"/>
<rect x="144" y="81" class="st0" width="9" height="9"/>
<rect x="333" y="72" class="st0" width="18" height="54"/>
<rect x="333" y="126" class="st0" width="9" height="9"/>
<rect x="351" y="81" class="st0" width="9" height="36"/>
<rect x="360" y="90" class="st0" width="9" height="27"/>
<rect x="369" y="99" class="st0" width="9" height="27"/>
<rect x="378" y="108" class="st0" width="9" height="36"/>
<rect x="387" y="126" class="st0" width="9" height="36"/>
<rect x="396" y="135" class="st0" width="9" height="63"/>
<rect x="405" y="153" class="st0" width="9" height="27"/>
<rect x="405" y="180" class="st0" width="18" height="126"/>
<rect x="423" y="234" class="st0" width="9" height="18"/>
<rect x="171" y="126" class="st0" width="63" height="54"/>
<rect x="234" y="126" class="st0" width="9" height="45"/>
<rect x="243" y="126" class="st0" width="9" height="27"/>
<rect x="252" y="126" class="st0" width="9" height="18"/>
<rect x="261" y="126" class="st0" width="18" height="9"/>
<rect x="126" y="117" class="st0" width="18" height="18"/>
<rect x="135" y="108" class="st0" width="9" height="9"/>
<rect x="162" y="144" class="st0" width="9" height="18"/>
<rect x="153" y="153" class="st0" width="9" height="9"/>
<rect x="99" y="153" class="st0" width="9" height="9"/>
<rect x="90" y="144" class="st0" width="9" height="18"/>
<rect x="81" y="162" class="st0" width="90" height="144"/>
<rect x="72" y="189" class="st0" width="9" height="108"/>
<rect x="171" y="180" class="st0" width="9" height="27"/>
<rect x="207" y="180" class="st0" width="27" height="27"/>
<rect x="234" y="234" class="st0" width="9" height="18"/>
<rect x="180" y="207" class="st0" width="54" height="54"/>
<rect x="171" y="207" class="st0" width="9" height="117"/>
<rect x="180" y="261" class="st0" width="9" height="54"/>
<rect x="189" y="261" class="st0" width="9" height="45"/>
<rect x="198" y="261" class="st0" width="9" height="27"/>
<rect x="207" y="261" class="st0" width="9" height="18"/>
<rect x="216" y="261" class="st0" width="9" height="9"/>
<rect x="153" y="306" class="st0" width="18" height="27"/>
<rect x="81" y="306" class="st0" width="45" height="9"/>
<rect x="81" y="315" class="st0" width="45" height="9"/>
<rect x="90" y="324" class="st0" width="36" height="18"/>
<rect x="126" y="333" class="st0" width="36" height="9"/>
<rect x="99" y="342" class="st0" width="54" height="9"/>
<rect x="99" y="351" class="st0" width="18" height="9"/>
<rect x="108" y="360" class="st0" width="9" height="9"/>
<rect x="135" y="351" class="st0" width="9" height="18"/>
<rect x="117" y="351" class="st0" width="18" height="27"/>
<rect x="117" y="414" class="st0" width="18" height="9"/>
<rect x="135" y="423" class="st0" width="18" height="9"/>
<rect x="153" y="432" class="st0" width="18" height="9"/>
<rect x="396" y="288" class="st0" width="9" height="54"/>
<rect x="405" y="306" class="st0" width="9" height="18"/>
<rect x="387" y="324" class="st0" width="9" height="36"/>
<rect x="378" y="342" class="st0" width="9" height="27"/>
<rect x="369" y="360" class="st0" width="9" height="18"/>
<rect x="360" y="369" class="st0" width="9" height="18"/>
<rect x="351" y="378" class="st0" width="9" height="18"/>
<rect x="342" y="387" class="st0" width="9" height="18"/>
<rect x="333" y="396" class="st0" width="9" height="18"/>
<rect x="324" y="405" class="st0" width="9" height="9"/>
<rect x="315" y="414" class="st0" width="9" height="9"/>
<rect x="297" y="423" class="st0" width="9" height="9"/>
<rect x="270" y="432" class="st0" width="18" height="9"/>
<rect x="198" y="441" class="st0" width="54" height="9"/>
<rect x="243" y="333" class="st0" width="18" height="27"/>
<rect x="234" y="351" class="st0" width="9" height="9"/>
<rect x="279" y="171" class="st0" width="63" height="54"/>
<rect x="288" y="162" class="st0" width="45" height="9"/>
<rect x="297" y="153" class="st0" width="18" height="9"/>
<rect x="288" y="225" class="st0" width="36" height="9"/>
<rect x="297" y="234" class="st0" width="27" height="9"/>
<rect x="324" y="225" class="st0" width="9" height="18"/>
<rect x="171" y="45" class="st1" width="36" height="9"/>
<rect x="153" y="54" class="st1" width="27" height="9"/>
<rect x="135" y="63" class="st1" width="27" height="9"/>
<rect x="117" y="72" class="st1" width="36" height="9"/>
<rect x="108" y="81" class="st1" width="36" height="9"/>
<rect x="99" y="90" class="st1" width="36" height="9"/>
<rect x="90" y="99" class="st1" width="27" height="18"/>
<rect x="81" y="108" class="st1" width="9" height="9"/>
<rect x="81" y="117" class="st1" width="27" height="9"/>
<rect x="72" y="126" class="st1" width="27" height="18"/>
<rect x="63" y="135" class="st1" width="9" height="9"/>
<rect x="63" y="144" class="st1" width="27" height="18"/>
<rect x="54" y="153" class="st1" width="9" height="9"/>
<rect x="54" y="162" class="st1" width="27" height="27"/>
<rect x="45" y="171" class="st1" width="9" height="18"/>
<rect x="45" y="189" class="st1" width="27" height="117"/>
<rect x="36" y="216" class="st1" width="9" height="54"/>
<rect x="72" y="297" class="st1" width="9" height="63"/>
<rect x="54" y="306" class="st1" width="18" height="27"/>
<rect x="63" y="333" class="st1" width="9" height="18"/>
<rect x="81" y="324" class="st1" width="9" height="54"/>
<rect x="90" y="342" class="st1" width="9" height="45"/>
<rect x="99" y="360" class="st1" width="9" height="36"/>
<rect x="108" y="369" class="st1" width="9" height="36"/>
<rect x="117" y="378" class="st1" width="117" height="36"/>
<rect x="135" y="369" class="st1" width="90" height="9"/>
<rect x="144" y="360" class="st1" width="72" height="9"/>
<rect x="144" y="351" class="st1" width="63" height="9"/>
<rect x="153" y="342" class="st1" width="54" height="9"/>
<rect x="162" y="333" class="st1" width="45" height="9"/>
<rect x="171" y="324" class="st1" width="45" height="9"/>
<rect x="180" y="315" class="st1" width="36" height="9"/>
<rect x="189" y="306" class="st1" width="36" height="9"/>
<rect x="198" y="288" class="st1" width="198" height="18"/>
<rect x="270" y="306" class="st1" width="126" height="10"/>
<rect x="279" y="316" class="st1" width="117" height="8"/>
<rect x="279" y="324" class="st1" width="45" height="9"/>
<rect x="351" y="324" class="st1" width="36" height="9"/>
<rect x="288" y="333" class="st1" width="36" height="27"/>
<rect x="351" y="333" class="st1" width="27" height="9"/>
<rect x="351" y="342" class="st1" width="18" height="9"/>
<rect x="342" y="351" class="st1" width="18" height="9"/>
<rect x="279" y="360" class="st1" width="72" height="18"/>
<rect x="270" y="369" class="st1" width="9" height="9"/>
<rect x="261" y="378" class="st1" width="81" height="9"/>
<rect x="234" y="387" class="st1" width="99" height="9"/>
<rect x="234" y="396" class="st1" width="90" height="9"/>
<rect x="234" y="405" class="st1" width="81" height="9"/>
<rect x="135" y="414" class="st1" width="180" height="9"/>
<rect x="153" y="423" class="st1" width="144" height="9"/>
<rect x="171" y="432" class="st1" width="99" height="9"/>
<rect x="207" y="279" class="st1" width="198" height="9"/>
<rect x="216" y="270" class="st1" width="63" height="9"/>
<rect x="225" y="261" class="st1" width="36" height="9"/>
<rect x="234" y="252" class="st1" width="18" height="9"/>
<rect x="324" y="270" class="st1" width="81" height="9"/>
<rect x="342" y="261" class="st1" width="63" height="9"/>
<rect x="351" y="252" class="st1" width="54" height="9"/>
<rect x="360" y="234" class="st1" width="45" height="18"/>
<rect x="369" y="207" class="st1" width="36" height="27"/>
<rect x="378" y="198" class="st1" width="27" height="9"/>
<rect x="369" y="162" class="st1" width="27" height="36"/>
<rect x="360" y="144" class="st1" width="27" height="18"/>
<rect x="351" y="144" class="st1" width="9" height="9"/>
<rect x="342" y="126" class="st1" width="36" height="18"/>
<rect x="351" y="117" class="st1" width="18" height="9"/>
<rect x="324" y="351" class="st1" width="18" height="9"/>
<rect x="117" y="99" class="st1" width="9" height="9"/>
<rect y="180" class="st2" width="9" height="126"/>
<rect x="9" y="198" class="st2" width="9" height="135"/>
<rect x="18" y="297" class="st2" width="9" height="54"/>
<rect x="27" y="324" class="st2" width="9" height="45"/>
<rect x="36" y="342" class="st2" width="9" height="45"/>
<rect x="45" y="360" class="st2" width="9" height="36"/>
<rect x="54" y="369" class="st2" width="9" height="36"/>
<rect x="63" y="378" class="st2" width="9" height="36"/>
<rect x="72" y="387" class="st2" width="9" height="36"/>
<rect x="81" y="396" class="st2" width="9" height="36"/>
<rect x="90" y="405" class="st2" width="9" height="36"/>
<rect x="99" y="414" class="st2" width="18" height="36"/>
<rect x="117" y="423" class="st2" width="18" height="36"/>
<rect x="135" y="432" class="st2" width="18" height="36"/>
<rect x="153" y="441" class="st2" width="45" height="36"/>
<rect x="180" y="477" class="st2" width="126" height="9"/>
<rect x="198" y="450" class="st2" width="135" height="27"/>
<rect x="252" y="441" class="st2" width="90" height="9"/>
<rect x="288" y="432" class="st2" width="72" height="9"/>
<rect x="315" y="423" class="st2" width="54" height="9"/>
<rect x="324" y="414" class="st2" width="54" height="9"/>
<rect x="342" y="405" class="st2" width="45" height="9"/>
<rect x="351" y="396" class="st2" width="45" height="9"/>
<rect x="360" y="387" class="st2" width="45" height="9"/>
<rect x="369" y="378" class="st2" width="36" height="9"/>
<rect x="378" y="369" class="st2" width="72" height="9"/>
<rect x="387" y="360" class="st2" width="72" height="9"/>
<rect x="396" y="342" class="st2" width="63" height="18"/>
<rect x="459" y="342" class="st2" width="9" height="9"/>
<rect x="405" y="324" class="st2" width="27" height="18"/>
<rect x="414" y="306" class="st2" width="27" height="18"/>
<rect x="423" y="252" class="st2" width="63" height="54"/>
<rect x="432" y="234" class="st2" width="54" height="18"/>
<rect x="423" y="207" class="st2" width="63" height="27"/>
<rect x="423" y="189" class="st2" width="27" height="18"/>
<rect x="423" y="180" class="st2" width="18" height="9"/>
<rect x="414" y="153" class="st2" width="63" height="27"/>
<rect x="405" y="135" class="st2" width="63" height="18"/>
<rect x="396" y="126" class="st2" width="36" height="9"/>
<rect x="387" y="117" class="st2" width="36" height="9"/>
<rect x="387" y="108" class="st2" width="27" height="9"/>
<rect x="378" y="90" class="st2" width="27" height="18"/>
<rect x="369" y="90" class="st2" width="9" height="9"/>
<rect x="360" y="81" class="st2" width="36" height="9"/>
<rect x="351" y="72" class="st2" width="72" height="9"/>
<rect x="333" y="63" class="st2" width="81" height="9"/>
<rect x="324" y="54" class="st2" width="81" height="9"/>
<rect x="306" y="45" class="st2" width="90" height="9"/>
<rect x="279" y="36" class="st2" width="108" height="9"/>
<rect x="225" y="27" class="st2" width="144" height="9"/>
<rect x="117" y="27" class="st2" width="72" height="9"/>
<rect x="135" y="18" class="st2" width="216" height="9"/>
<rect x="153" y="9" class="st2" width="180" height="9"/>
<rect x="180" class="st2" width="126" height="9"/>
<rect x="36" y="99" class="st2" width="9" height="9"/>
<rect x="45" y="90" class="st2" width="9" height="9"/>
<rect x="54" y="81" class="st2" width="9" height="9"/>
<rect x="63" y="72" class="st2" width="9" height="9"/>
<rect x="72" y="63" class="st2" width="9" height="9"/>
<rect x="99" y="36" class="st2" width="9" height="9"/>
<rect x="333" y="459" class="st2" width="18" height="9"/>
<rect x="333" y="450" class="st2" width="36" height="9"/>
<rect x="234" y="333" class="st2" width="9" height="27"/>
<rect x="288" y="153" class="st2" width="9" height="9"/>
<rect x="270" y="162" class="st2" width="18" height="9"/>
<rect x="261" y="180" class="st2" width="18" height="45"/>
<rect x="270" y="171" class="st2" width="9" height="9"/>
<rect x="270" y="225" class="st2" width="18" height="9"/>
<rect x="279" y="234" class="st2" width="18" height="9"/>
<rect x="126" y="108" class="st2" width="9" height="9"/>
<rect x="117" y="117" class="st2" width="9" height="18"/>
<rect x="126" y="135" class="st2" width="9" height="9"/>
<rect x="396" y="81" class="st3" width="36" height="9"/>
<rect x="405" y="90" class="st3" width="36" height="18"/>
<rect x="432" y="117" class="st3" width="27" height="18"/>
<rect x="441" y="99" class="st3" width="9" height="18"/>
<rect x="414" y="108" class="st3" width="27" height="9"/>
<rect x="423" y="117" class="st3" width="9" height="9"/>
<rect x="441" y="180" class="st3" width="45" height="9"/>
<rect x="450" y="189" class="st3" width="36" height="18"/>
<rect x="441" y="306" class="st3" width="36" height="27"/>
<rect x="432" y="324" class="st3" width="9" height="18"/>
<rect x="441" y="333" class="st3" width="27" height="9"/>
<rect x="405" y="378" class="st3" width="45" height="9"/>
<rect x="405" y="387" class="st3" width="36" height="9"/>
<rect x="396" y="396" class="st3" width="36" height="9"/>
<rect x="387" y="405" class="st3" width="36" height="9"/>
<rect x="378" y="414" class="st3" width="36" height="9"/>
<rect x="369" y="423" class="st3" width="36" height="9"/>
<rect x="360" y="432" class="st3" width="36" height="9"/>
<rect x="342" y="441" class="st3" width="45" height="9"/>
<rect x="315" y="405" class="st3" width="9" height="9"/>
<rect x="324" y="396" class="st3" width="9" height="9"/>
<rect x="333" y="387" class="st3" width="9" height="9"/>
<rect x="342" y="378" class="st3" width="9" height="9"/>
<rect x="378" y="333" class="st3" width="9" height="9"/>
<rect x="369" y="342" class="st3" width="9" height="18"/>
<rect x="360" y="351" class="st3" width="9" height="18"/>
<rect x="351" y="360" class="st3" width="9" height="18"/>
<rect x="369" y="198" class="st4" width="9" height="9"/>
<rect x="72" y="117" class="st4" width="9" height="9"/>
<rect x="45" y="306" class="st4" width="9" height="9"/>
<rect x="72" y="360" class="st4" width="9" height="9"/>
<rect x="306" y="423" class="st4" width="9" height="9"/>
<rect x="144" y="90" class="st5" width="9" height="18"/>
<rect x="144" y="108" class="st5" width="27" height="36"/>
<rect x="153" y="99" class="st5" width="9" height="9"/>
<rect x="99" y="144" class="st5" width="63" height="9"/>
<rect x="135" y="135" class="st5" width="9" height="9"/>
<rect x="117" y="108" class="st5" width="9" height="9"/>
<rect x="135" y="90" class="st5" width="9" height="9"/>
<rect x="126" y="99" class="st5" width="18" height="9"/>
<rect x="99" y="126" class="st5" width="18" height="18"/>
<rect x="117" y="135" class="st5" width="9" height="9"/>
<rect x="108" y="117" class="st5" width="9" height="9"/>
<rect x="108" y="153" class="st5" width="45" height="9"/>
<rect x="180" y="180" class="st5" width="27" height="27"/>
<rect x="324" y="324" class="st5" width="27" height="27"/>
<rect x="279" y="126" class="st5" width="54" height="9"/>
<rect x="261" y="135" class="st5" width="81" height="18"/>
<rect x="342" y="144" class="st5" width="9" height="9"/>
<rect x="315" y="153" class="st5" width="45" height="9"/>
<rect x="333" y="162" class="st5" width="36" height="9"/>
<rect x="342" y="171" class="st5" width="27" height="63"/>
<rect x="333" y="225" class="st5" width="9" height="9"/>
<rect x="333" y="234" class="st5" width="27" height="18"/>
<rect x="252" y="144" class="st5" width="9" height="9"/>
<rect x="243" y="153" class="st5" width="45" height="9"/>
<rect x="243" y="162" class="st5" width="27" height="18"/>
<rect x="234" y="171" class="st5" width="9" height="9"/>
<rect x="234" y="180" class="st5" width="27" height="54"/>
<rect x="261" y="225" class="st5" width="9" height="9"/>
<rect x="243" y="234" class="st5" width="36" height="18"/>
<rect x="279" y="243" class="st5" width="18" height="36"/>
<rect x="252" y="252" class="st5" width="27" height="9"/>
<rect x="261" y="261" class="st5" width="18" height="9"/>
<rect x="297" y="243" class="st5" width="9" height="36"/>
<rect x="306" y="243" class="st5" width="18" height="36"/>
<rect x="324" y="243" class="st5" width="9" height="27"/>
<rect x="333" y="252" class="st5" width="18" height="9"/>
<rect x="333" y="261" class="st5" width="9" height="9"/>
<rect x="126" y="306" class="st5" width="27" height="27"/>
<rect x="225" y="306" class="st5" width="45" height="27"/>
<rect x="216" y="315" class="st5" width="9" height="54"/>
<rect x="207" y="333" class="st5" width="9" height="27"/>
<rect x="225" y="333" class="st5" width="9" height="45"/>
<rect x="279" y="333" class="st5" width="9" height="27"/>
<rect x="270" y="316" class="st5" width="9" height="53"/>
<rect x="261" y="333" class="st5" width="9" height="45"/>
<rect x="234" y="360" class="st5" width="27" height="27"/>
</svg>
