<?xml version="1.0" encoding="utf-8"?>
<!-- Generator: Adobe Illustrator 25.2.3, SVG Export Plug-In . SVG Version: 6.00 Build 0)  -->
<svg version="1.1" id="Layer_1" xmlns="http://www.w3.org/2000/svg" xmlns:xlink="http://www.w3.org/1999/xlink" x="0px" y="0px"
	 viewBox="0 0 257.06 271.06" style="enable-background:new 0 0 257.06 271.06;" xml:space="preserve">
<style type="text/css">
	.st0{fillRule:evenodd;clip-rule:evenodd;fill:#2A6DFF;}
</style>
<path class="st0" d="M144.86,242.9c6.82,0,12.36-5.54,12.36-12.34c0-6.8-5.54-12.34-12.36-12.34c-6.83,0-12.37,5.54-12.37,12.34
	C132.49,237.36,138.04,242.9,144.86,242.9z M144.86,194.06c20.16,0,36.57,16.37,36.57,36.5s-16.41,36.5-36.57,36.5
	c-20.18,0-36.58-16.37-36.58-36.5S124.69,194.06,144.86,194.06z"/>
<path class="st0" d="M36.57,48.84c6.82,0,12.37-5.54,12.37-12.34c0-6.8-5.55-12.34-12.37-12.34S24.21,29.69,24.21,36.5
	C24.21,43.3,29.75,48.84,36.57,48.84z M36.57,0c20.17,0,36.57,16.37,36.57,36.5c0,20.12-16.4,36.5-36.57,36.5
	C16.41,72.99,0,56.62,0,36.5C0,16.37,16.41,0,36.57,0z"/>
<path class="st0" d="M191.87,147.03c22.59,0,40.98-18.34,40.98-40.9c0-22.55-18.39-40.9-40.98-40.9c-22.59,0-40.98,18.34-40.98,40.9
	C150.89,128.69,169.28,147.03,191.87,147.03z M191.87,41.08c35.95,0,65.19,29.19,65.19,65.06c0,35.87-29.24,65.05-65.19,65.05
	c-35.95,0-65.19-29.18-65.19-65.05C126.68,70.27,155.92,41.08,191.87,41.08z"/>
<path class="st0" d="M206.22,254.75c0-9.01,7.32-16.32,16.35-16.32c9.03,0,16.35,7.31,16.35,16.32c0,9.01-7.32,16.31-16.35,16.31
	C213.54,271.06,206.22,263.76,206.22,254.75"/>
<path class="st0" d="M75.41,99.73c0-9.02,7.32-16.32,16.35-16.32c9.03,0,16.35,7.3,16.35,16.32c0,9.01-7.32,16.31-16.35,16.31
	C82.73,116.05,75.41,108.74,75.41,99.73"/>
<path class="st0" d="M11.6,225.32c0-8.9,7.22-16.11,16.13-16.11c8.92,0,16.14,7.21,16.14,16.11c0,8.89-7.22,16.1-16.14,16.1
	C18.83,241.42,11.6,234.21,11.6,225.32"/>
</svg>
