<?xml version="1.0" encoding="utf-8"?>
<!-- Generator: Adobe Illustrator 25.2.3, SVG Export Plug-In . SVG Version: 6.00 Build 0)  -->
<svg version="1.1" id="Layer_1" xmlns="http://www.w3.org/2000/svg" xmlns:xlink="http://www.w3.org/1999/xlink" x="0px" y="0px"
	 viewBox="0 0 1054.1 1037.2" style="enable-background:new 0 0 1054.1 1037.2;" xml:space="preserve">
<style type="text/css">
	.st0{fill:url(#SVGID_1_);}
	.st1{fill:url(#SVGID_2_);}
	.st2{fill:url(#SVGID_3_);}
	.st3{fill:url(#SVGID_4_);}
	.st4{fill:url(#SVGID_5_);}
	.st5{fill:url(#SVGID_6_);}
	.st6{fill:url(#SVGID_7_);}
	.st7{fill:url(#SVGID_8_);}
	.st8{fill:url(#SVGID_9_);}
	.st9{fill:#FFFAE6;}
	.st10{fill:url(#SVGID_10_);}
	.st11{fill:url(#SVGID_11_);}
	.st12{fill:url(#SVGID_12_);}
	.st13{fill:url(#SVGID_13_);}
	.st14{clip-path:url(#SVGID_15_);}
	.st15{fill:url(#SVGID_16_);}
	.st16{fill:url(#SVGID_17_);}
</style>
<g>
	
		<radialGradient id="SVGID_1_" cx="501.1677" cy="-348.657" r="527.0175" gradientTransform="matrix(1 0 0 -0.9901 0 153.7016)" gradientUnits="userSpaceOnUse">
		<stop  offset="0" style="stop-color:#1152DC"/>
		<stop  offset="0.3227" style="stop-color:#1152DA"/>
		<stop  offset="0.6649" style="stop-color:#1050D8"/>
		<stop  offset="1" style="stop-color:#1050D8"/>
	</radialGradient>
	<path class="st0" d="M1031.7,516.2c0,276.7-226.5,501-506,501s-506-224.3-506-501s226.5-501,506-501S1031.7,239.5,1031.7,516.2z"/>
	
		<linearGradient id="SVGID_2_" gradientUnits="userSpaceOnUse" x1="525.7378" y1="-264.4817" x2="525.7378" y2="-1159.7722" gradientTransform="matrix(1 0 0 -1 0 172.5544)">
		<stop  offset="0" style="stop-color:#3759A0;stop-opacity:4.000000e-02"/>
		<stop  offset="0.4671" style="stop-color:#0E45BA"/>
		<stop  offset="0.8016" style="stop-color:#305194"/>
		<stop  offset="1" style="stop-color:#3C63B5"/>
	</linearGradient>
	<path class="st1" d="M19.7,516.2c0,178.8,94.6,335.7,237,424.4h538c142.4-88.7,237-245.6,237-424.4s-94.6-335.7-237-424.4h-538
		C114.4,180.5,19.7,337.4,19.7,516.2z"/>
	
		<linearGradient id="SVGID_3_" gradientUnits="userSpaceOnUse" x1="525.7378" y1="-464.8779" x2="525.7378" y2="439.8502" gradientTransform="matrix(1 0 0 -1 0 172.5544)">
		<stop  offset="0" style="stop-color:#3759A0;stop-opacity:4.000000e-02"/>
		<stop  offset="0.4671" style="stop-color:#0E45BA"/>
		<stop  offset="0.8016" style="stop-color:#305194"/>
		<stop  offset="1" style="stop-color:#3C63B5"/>
	</linearGradient>
	<path class="st2" d="M19.7,516.2c0,127.6,48.2,244,127.5,332.4h757.1c79.3-88.5,127.5-204.9,127.5-332.4s-48.2-244-127.5-332.4
		H147.2C67.9,272.2,19.7,388.6,19.7,516.2z"/>
	
		<linearGradient id="SVGID_4_" gradientUnits="userSpaceOnUse" x1="525.7378" y1="-358.7856" x2="525.7378" y2="-648.1317" gradientTransform="matrix(1 0 0 -1 0 172.5544)">
		<stop  offset="0" style="stop-color:#3759A0;stop-opacity:4.000000e-02"/>
		<stop  offset="0.4671" style="stop-color:#0E45BA"/>
		<stop  offset="0.8016" style="stop-color:#305194"/>
		<stop  offset="1" style="stop-color:#3C63B5"/>
	</linearGradient>
	<path class="st3" d="M19.7,516.2c0,74.6,16.5,145.3,46,208.9h920.1c29.5-63.6,46-134.3,46-208.9s-16.5-145.3-46-208.9H65.7
		C36.2,370.9,19.7,441.6,19.7,516.2z"/>
	
		<linearGradient id="SVGID_5_" gradientUnits="userSpaceOnUse" x1="525.7378" y1="-453.0897" x2="525.7378" y2="39.6229" gradientTransform="matrix(1 0 0 -1 0 172.5544)">
		<stop  offset="0" style="stop-color:#3759A0;stop-opacity:4.000000e-02"/>
		<stop  offset="0.4671" style="stop-color:#0E45BA"/>
		<stop  offset="0.8016" style="stop-color:#305194"/>
		<stop  offset="1" style="stop-color:#3C63B5"/>
	</linearGradient>
	<path class="st4" d="M19.7,516.2c0,43.2,5.5,85,15.9,125h980.2c10.4-40,15.9-81.8,15.9-125c0-43.2-5.5-85-15.9-125H35.6
		C25.3,431.2,19.7,473,19.7,516.2z"/>
	
		<radialGradient id="SVGID_6_" cx="337.47" cy="-229.6043" r="708.3687" gradientTransform="matrix(1 0 0 -0.9901 0 153.7016)" gradientUnits="userSpaceOnUse">
		<stop  offset="0" style="stop-color:#3571F0"/>
		<stop  offset="0.2837" style="stop-color:#2767EF"/>
		<stop  offset="0.5391" style="stop-color:#2062EE"/>
		<stop  offset="0.7827" style="stop-color:#195DEE"/>
		<stop  offset="1" style="stop-color:#175CEE"/>
	</radialGradient>
	<path class="st5" d="M485.6,16.7C224.9,37,19.7,252.9,19.7,516.2s205.2,479.2,465.8,499.4c260.7-20.3,465.8-236.1,465.8-499.4
		S746.2,37,485.6,16.7z"/>
	
		<radialGradient id="SVGID_7_" cx="485.558" cy="-366.0974" r="443.0939" gradientTransform="matrix(1 0 0 -0.9901 0 153.7016)" gradientUnits="userSpaceOnUse">
		<stop  offset="0" style="stop-color:#FFFCF8"/>
		<stop  offset="0.9485" style="stop-color:#FFFCF8;stop-opacity:5.098000e-02"/>
		<stop  offset="1" style="stop-color:#FFFCF8;stop-opacity:0"/>
	</radialGradient>
	<path class="st6" d="M511.7,62.6c-17.4-2.3-35-2.3-52.4,0C233.8,93,59.9,284.5,59.9,516.2s173.9,423.2,399.5,453.6
		c17.4,2.3,35,2.3,52.4,0c225.6-30.4,399.5-221.9,399.5-453.6S737.3,93,511.7,62.6z"/>
	
		<radialGradient id="SVGID_8_" cx="559.8332" cy="-310.3859" r="639.573" gradientTransform="matrix(0.9201 0 0 -0.994 6.8952 155.5744)" gradientUnits="userSpaceOnUse">
		<stop  offset="0" style="stop-color:#1154E1"/>
		<stop  offset="0.3227" style="stop-color:#1154E1"/>
		<stop  offset="0.6649" style="stop-color:#1155E3"/>
		<stop  offset="1" style="stop-color:#1155E3"/>
	</radialGradient>
	<path class="st7" d="M859.5,516.2c0-224.3-168.3-406.2-376-406.2c-207.7,0-376,181.9-376,406.2s168.3,406.2,376,406.2
		C691.2,922.4,859.5,740.5,859.5,516.2z"/>
	
		<linearGradient id="SVGID_9_" gradientUnits="userSpaceOnUse" x1="794.6771" y1="-603.1747" x2="235.1682" y2="-129.0194" gradientTransform="matrix(1 0 0 -0.9901 0 153.7016)">
		<stop  offset="2.257436e-03" style="stop-color:#244DA3"/>
		<stop  offset="0.4631" style="stop-color:#2365EE"/>
		<stop  offset="1" style="stop-color:#628DF0"/>
	</linearGradient>
	<path class="st8" d="M586.7,125.5c-46.8-14.4-96.8-14.4-143.6,0c-157.5,48.5-272.8,205-272.8,390.7
		c0,189.3,119.9,348.3,282.1,393.4c40.8,11.3,84.2,11.3,125,0c162.2-45.1,282.1-204.1,282.1-393.4
		C859.5,330.5,744.2,174,586.7,125.5z"/>
	<g>
		<path class="st9" d="M647.1,275.3C566,277.4,501,349.4,501,432s64.5,153.5,146.2,156.7c81.1,0,146.2-74.1,146.2-156.7
			S728.3,277.4,647.1,275.3z"/>
		<g>
			
				<radialGradient id="SVGID_10_" cx="705.6836" cy="-265.759" r="150.3586" gradientTransform="matrix(0.9201 0 0 -0.994 6.8952 155.5744)" gradientUnits="userSpaceOnUse">
				<stop  offset="0" style="stop-color:#1154E1"/>
				<stop  offset="1" style="stop-color:#1154E1"/>
			</radialGradient>
			<path class="st10" d="M735.5,432c0-52.7-39.6-95.5-88.4-95.5c-48.8,0-88.4,42.8-88.4,95.5s39.6,95.5,88.4,95.5
				C696,527.5,735.5,484.7,735.5,432z"/>
			
				<radialGradient id="SVGID_11_" cx="996.9077" cy="-248.1187" r="140.6558" fx="1128.2635" fy="-298.4146" gradientTransform="matrix(0.8799 0 0 -0.9901 -242.6215 153.7016)" gradientUnits="userSpaceOnUse">
				<stop  offset="1" style="stop-color:#427AF1"/>
				<stop  offset="1" style="stop-color:#FFA700"/>
			</radialGradient>
			<path class="st11" d="M677.1,342.4c-9.7-3.4-18.1-5.6-27.7-2.2C616.8,351.5,593,388.3,593,432c0,44.5,24.8,81.9,58.4,92.5
				c8.5,2.7,18.9-1,27.4-3.7c27.7-12.5,56.8-44.3,56.8-88.8C735.5,388.3,709.7,353.8,677.1,342.4z"/>
		</g>
	</g>
	<g>
		<path class="st9" d="M536.4,641.1c-43.3,0-78.1,37.8-78.1,81.9s34.5,81.6,78.1,81.6c44-1.4,78.1-37.4,78.1-81.6
			S579.7,642.5,536.4,641.1z"/>
		<g>
			
				<radialGradient id="SVGID_12_" cx="974.6296" cy="-755.0665" r="54.5197" gradientTransform="matrix(0.8612 0 0 -0.9304 -299.886 16.3755)" gradientUnits="userSpaceOnUse">
				<stop  offset="0" style="stop-color:#1155E5"/>
				<stop  offset="1" style="stop-color:#1155E3"/>
			</radialGradient>
			<path class="st12" d="M566.4,723c0-17.9-13.4-32.4-30-32.4c-16.6,0-30,14.5-30,32.4c0,17.9,13.4,32.4,30,32.4
				C553,755.5,566.4,740.9,566.4,723z"/>
			
				<radialGradient id="SVGID_13_" cx="2617.7644" cy="-824.839" r="50.9872" fx="2665.3804" fy="-843.071" gradientTransform="matrix(0.6672 0 0 -0.9046 -1207.8624 -33.8901)" gradientUnits="userSpaceOnUse">
				<stop  offset="1" style="stop-color:#427AF1"/>
				<stop  offset="1" style="stop-color:#FFA700"/>
			</radialGradient>
			<path class="st13" d="M548.2,693.3c-2.7-1.1-2.8-1.7-5.4-0.6c-9,3.8-15.5,16-15.5,30.4c0,14.7,6.8,27.1,16,30.6
				c2.3,0.9,5.5-1.6,7.8-2.5c6.5-4,15.3-13.4,15.3-28.2C566.4,708.5,557.1,697.1,548.2,693.3z"/>
		</g>
	</g>
	<path class="st9" d="M422.3,383.6c-18,0-33.7,16-33.7,35.1c0,19.1,15,34.8,33.7,34.8c19.3,0,33.7-15.8,33.7-34.8
		C456,399.6,440.5,383.6,422.3,383.6z"/>
	<path class="st9" d="M309.7,636.1c-18,0-33.7,16-33.7,35.1s15,34.8,33.7,34.8c19.3,0,33.7-15.8,33.7-34.8S327.9,636.1,309.7,636.1z
		"/>
	<path class="st9" d="M716.7,682.2c-18,0-33.7,16-33.7,35.1c0,19.1,15,34.8,33.7,34.8c19.3,0,33.7-15.8,33.7-34.8
		C750.5,698.2,735,682.2,716.7,682.2z"/>
	<g>
		<defs>
			<path id="SVGID_14_" d="M586.7,125.3c-46.8-14.4-96.8-14.4-143.6,0c-157.5,48.5-272.8,205-272.8,390.7
				c0,189.3,119.9,348.3,282.1,393.4c40.8,11.3,84.2,11.3,125,0C739.6,864.3,859.5,705.3,859.5,516
				C859.5,330.3,744.2,173.8,586.7,125.3z"/>
		</defs>
		<clipPath id="SVGID_15_">
			<use xlink:href="#SVGID_14_"  style="overflow:visible;"/>
		</clipPath>
		<g class="st14">
			<path class="st9" d="M299.2,195.4c-43.3,0-78.1,37.8-78.1,81.9s34.5,81.6,78.1,81.6c44-1.4,78.1-37.4,78.1-81.6
				S342.5,196.8,299.2,195.4z"/>
			<g>
				
					<radialGradient id="SVGID_16_" cx="699.2153" cy="-276.0053" r="54.5197" gradientTransform="matrix(0.8612 0 0 -0.9304 -299.886 16.3755)" gradientUnits="userSpaceOnUse">
					<stop  offset="0" style="stop-color:#1155E5"/>
					<stop  offset="1" style="stop-color:#1155E3"/>
				</radialGradient>
				<path class="st15" d="M329.2,277.3c0-17.9-13.4-32.4-30-32.4c-16.6,0-30,14.5-30,32.4c0,17.9,13.4,32.4,30,32.4
					C315.8,309.7,329.2,295.2,329.2,277.3z"/>
				
					<radialGradient id="SVGID_17_" cx="2262.2563" cy="-332.1213" r="50.9872" fx="2309.8723" fy="-350.3534" gradientTransform="matrix(0.6672 0 0 -0.9046 -1207.8624 -33.8901)" gradientUnits="userSpaceOnUse">
					<stop  offset="1" style="stop-color:#427AF1"/>
					<stop  offset="1" style="stop-color:#FFA700"/>
				</radialGradient>
				<path class="st16" d="M311,247.6c-2.7-1.1-2.8-1.7-5.4-0.6c-9,3.8-15.5,16-15.5,30.4c0,14.7,6.8,27.1,16,30.6
					c2.3,0.9,5.5-1.6,7.8-2.5c6.5-4,15.3-13.4,15.3-28.2C329.2,262.8,319.9,251.4,311,247.6z"/>
			</g>
		</g>
	</g>
</g>
</svg>
