<?xml version="1.0" encoding="UTF-8"?>
<svg width="72px" height="71px" viewBox="0 0 72 71" version="1.1" xmlns="http://www.w3.org/2000/svg" xmlns:xlink="http://www.w3.org/1999/xlink">
    <!-- Generator: Sketch 53.2 (72643) - https://sketchapp.com -->
    <title>Group 3</title>
    <desc>Created with Sketch.</desc>
    <g id="Page-1" stroke="none" strokeWidth="1" fill="none" fillRule="evenodd">
        <g id="Wallet---Wait-Screen" transform="translate(-1594.000000, -229.000000)" fill="#FFFFFE">
            <g id="Group-3" transform="translate(1594.000000, 229.000000)">
                <g id="MOON-2" transform="translate(36.000000, 36.000000) scale(-1, -1) translate(-36.000000, -36.000000) ">
                    <path d="M34.2845714,30.3691429 C30.824,30.3691429 28.008,27.5531429 28.008,24.0925714 C28.008,20.632 30.824,17.816 34.2845714,17.816 C37.7474286,17.816 40.5622857,20.632 40.5622857,24.0925714 C40.5622857,27.5531429 37.7474286,30.3691429 34.2845714,30.3691429 L34.2845714,30.3691429 Z M34.2845714,21.9702857 C33.1142857,21.9702857 32.1634286,22.9222857 32.1634286,24.0925714 C32.1634286,25.2628571 33.1142857,26.2148571 34.2845714,26.2148571 C35.456,26.2148571 36.408,25.2628571 36.408,24.0925714 C36.408,22.9222857 35.456,21.9702857 34.2845714,21.9702857 L34.2845714,21.9702857 Z" id="Fill-1"></path>
                    <path d="M52.8697143,63.744 C49.408,63.744 46.5931429,60.928 46.5931429,57.4674286 C46.5931429,54.0068571 49.408,51.1908571 52.8697143,51.1908571 C56.3302857,51.1908571 59.1462857,54.0068571 59.1462857,57.4674286 C59.1462857,60.928 56.3302857,63.744 52.8697143,63.744 L52.8697143,63.744 Z M52.8697143,55.3451429 C51.6994286,55.3451429 50.7474286,56.2971429 50.7474286,57.4674286 C50.7474286,58.6377143 51.6994286,59.5897143 52.8697143,59.5897143 C54.04,59.5897143 54.9908571,58.6377143 54.9908571,57.4674286 C54.9908571,56.2971429 54.04,55.3451429 52.8697143,55.3451429 L52.8697143,55.3451429 Z" id="Fill-2"></path>
                    <path d="M26.2171429,56.6788571 C20.048,56.6788571 15.0297143,51.6594286 15.0297143,45.4902857 C15.0297143,39.3211429 20.048,34.3028571 26.2171429,34.3028571 C32.3862857,34.3028571 37.4045714,39.3211429 37.4045714,45.4902857 C37.4045714,51.6594286 32.3862857,56.6788571 26.2171429,56.6788571 L26.2171429,56.6788571 Z M26.2171429,38.4571429 C22.3394286,38.4571429 19.184,41.6114286 19.184,45.4902857 C19.184,49.3691429 22.3394286,52.5234286 26.2171429,52.5234286 C30.0948571,52.5234286 33.2502857,49.3691429 33.2502857,45.4902857 C33.2502857,41.6114286 30.0948571,38.4571429 26.2171429,38.4571429 L26.2171429,38.4571429 Z" id="Fill-3"></path>
                    <path d="M36.3691429,71.816 C20.8582857,71.816 6.92,61.4274286 2.47542857,46.552 C-0.230857143,37.4937143 0.752,27.9245714 5.24228571,19.6068571 C9.73371429,11.2902857 17.1942857,5.21828571 26.2514286,2.512 C29.5588571,1.52457143 32.9714286,1.02285714 36.3954286,1.02285714 C51.9074286,1.02285714 65.8445714,11.4114286 70.2891429,26.288 C72.9965714,35.3451429 72.0137143,44.912 67.5222857,53.232 C63.032,61.5497143 55.5702857,67.6205714 46.5142857,70.3268571 C43.2057143,71.3154286 39.792,71.816 36.3691429,71.816 L36.3691429,71.816 Z M36.3954286,7.25485714 C33.576,7.25485714 30.7645714,7.66857143 28.0354286,8.48457143 C20.5737143,10.7142857 14.4262857,15.7142857 10.7268571,22.5691429 C7.02628571,29.4217143 6.21714286,37.3051429 8.44571429,44.7668571 C12.1085714,57.0228571 23.5908571,65.584 36.3691429,65.584 C39.1874286,65.584 42.0011429,65.1702857 44.7291429,64.3542857 C52.192,62.1257143 58.3382857,57.1245714 62.0388571,50.2697143 C65.7394286,43.4171429 66.5485714,35.5337143 64.3188571,28.0731429 C60.656,15.816 49.1737143,7.25485714 36.3954286,7.25485714 L36.3954286,7.25485714 Z" id="Fill-4"></path>
                    <path d="M23.7542857,19.9325714 C23.7542857,21.4822857 22.4982857,22.7394286 20.9474286,22.7394286 C19.3977143,22.7394286 18.1417143,21.4822857 18.1417143,19.9325714 C18.1417143,18.3828571 19.3977143,17.1268571 20.9474286,17.1268571 C22.4982857,17.1268571 23.7542857,18.3828571 23.7542857,19.9325714" id="Fill-5"></path>
                    <path d="M46.2045714,46.592 C46.2045714,48.1428571 44.9485714,49.3988571 43.3977143,49.3988571 C41.848,49.3988571 40.592,48.1428571 40.592,46.592 C40.592,45.0422857 41.848,43.7862857 43.3977143,43.7862857 C44.9485714,43.7862857 46.2045714,45.0422857 46.2045714,46.592" id="Fill-6"></path>
                    <path d="M57.1554286,24.9942857 C57.1554286,26.5245714 55.9154286,27.7645714 54.3862857,27.7645714 C52.856,27.7645714 51.616,26.5245714 51.616,24.9942857 C51.616,23.4651429 52.856,22.2251429 54.3862857,22.2251429 C55.9154286,22.2251429 57.1554286,23.4651429 57.1554286,24.9942857" id="Fill-7"></path>
                </g>
            </g>
        </g>
    </g>
</svg>
