<?xml version="1.0" encoding="utf-8"?>
<!-- Generator: Adobe Illustrator 25.3.1, SVG Export Plug-In . SVG Version: 6.00 Build 0)  -->
<svg version="1.1" id="Layer_1" xmlns="http://www.w3.org/2000/svg" xmlns:xlink="http://www.w3.org/1999/xlink" x="0px" y="0px"
	 viewBox="0 0 609.6 114.4" style="enable-background:new 0 0 609.6 114.4;" xml:space="preserve">
<style type="text/css">
	.st0{fill:#FFFFFF;}
	.st1{clip-path:url(#SVGID_2_);fill:#FFFFFF;}
</style>
<g>
	<g>
		<path class="st0" d="M112.1,57.5c0,29.9-24.2,54.1-54.1,54.1S3.9,87.4,3.9,57.5S28.1,3.4,58,3.4S112.1,27.6,112.1,57.5z M58,12.8
			c-24.7,0-44.7,20-44.7,44.7s20,44.7,44.7,44.7s44.7-20,44.7-44.7S82.7,12.8,58,12.8z"/>
		<path class="st0" d="M94.3,47.5c0,9.6-8.4,18.2-18.8,18.2c-10.5-0.4-18.8-8.6-18.8-18.2s8.4-18,18.8-18.2
			C85.9,29.6,94.3,37.9,94.3,47.5z M86.8,47.5c0-6.1-5.1-11.1-11.4-11.1c-6.3,0-11.4,5-11.4,11.1s5.1,11.1,11.4,11.1
			C81.7,58.7,86.8,53.7,86.8,47.5z"/>
		<path class="st0" d="M71.2,81.4c0,5.1-4.4,9.3-10.1,9.5c-5.6,0-10.1-4.4-10.1-9.5c0-5.1,4.5-9.5,10.1-9.5
			C66.7,72,71.2,76.3,71.2,81.4z M65,81.4c0-2.1-1.7-3.8-3.9-3.8c-2.1,0-3.9,1.7-3.9,3.8s1.7,3.8,3.9,3.8C63.3,85.2,65,83.5,65,81.4
			z"/>
		<path class="st0" d="M46.4,41.9c-2.3,0-4.4,1.9-4.4,4.1c0,2.2,1.9,4.1,4.4,4.1c2.5,0,4.4-1.8,4.4-4.1
			C50.8,43.8,48.8,41.9,46.4,41.9z"/>
		<path class="st0" d="M31.9,71.3c-2.3,0-4.4,1.9-4.4,4.1c0,2.2,1.9,4.1,4.4,4.1c2.5,0,4.4-1.8,4.4-4.1
			C36.3,73.2,34.3,71.3,31.9,71.3z"/>
		<path class="st0" d="M84.4,76.7c-2.3,0-4.4,1.9-4.4,4.1s1.9,4.1,4.4,4.1c2.5,0,4.4-1.8,4.4-4.1S86.7,76.7,84.4,76.7z"/>
		<g>
			<defs>
				<circle id="SVGID_1_" cx="58" cy="57.5" r="44.7"/>
			</defs>
			<clipPath id="SVGID_2_">
				<use xlink:href="#SVGID_1_"  style="overflow:visible;"/>
			</clipPath>
			<path class="st1" d="M42.4,28.5c-0.3,5.1-5,9-10.6,8.9c-5.6-0.3-9.8-5-9.5-10.1s5.1-9.2,10.6-8.9C38.5,18.9,42.7,23.4,42.4,28.5z
				 M36.2,28.1c0.1-2.1-1.5-3.9-3.6-4c-2.1-0.1-4,1.4-4.1,3.5c-0.1,2.1,1.5,3.9,3.6,4C34.2,31.8,36,30.2,36.2,28.1z"/>
		</g>
	</g>
	<g>
		<path class="st0" d="M425,41.6C424.9,41.5,424.7,41.3,425,41.6C424.9,41.5,424.8,40.9,425,41.6L425,41.6c-3-3.1-6.2-4.4-10.3-4.4
			c-4.2,0-7.8,1.5-10.7,4.5c-3,3-4.4,6.6-4.4,10.7v25.2c0,2.8-1,5.2-3,7.1c-2,1.9-4.3,2.9-7.1,2.9c-2.8,0-5.2-1-7.1-2.9
			c-1.9-1.9-2.9-4.3-2.9-7.1V51.6c0.3-9.4,3.8-17.5,10.3-24.1c6.6-6.7,14.9-10.1,24.8-10.3c5.7,0.1,10.9,1.4,15.5,3.7
			c3.4,1.7,4.2,2.3,4.2,2.3c0,0,0,0,0,0C425.8,32,425,41.6,425,41.6z"/>
		<path class="st0" d="M286.5,4.5c2.7,0,5,1,7,3c2,2,3,4.3,3,7v62.3c0,2.8-1,5.1-3,7c-2,1.9-4.3,2.8-7,2.8c-2.8,0-5.1-0.9-7-2.8
			c-1.9-1.9-2.8-4.2-2.8-7V14.4c0-2.7,0.9-5,2.8-7S283.7,4.5,286.5,4.5z"/>
		<path class="st0" d="M172.1,60.6c2.6,0,4.9,0.9,6.9,2.8c2,1.9,3,4.2,3,7c0,2.7-1,5-2.9,6.9s-4.2,2.9-6.9,3
			c-9.8-0.2-24.7-3.5-31.2-10.2c-6.6-6.6-10-14.6-10.3-24V26.8c0-2.8,0.9-5.1,2.8-7s4.2-2.8,7-2.8c2.7,0,5,0.9,7,2.8
			c2,1.9,3,4.2,3,7v18.7c0,4.1,1.5,7.6,4.4,10.6C157.7,59.1,167.9,60.6,172.1,60.6z M159.8,111.6c-2.7-0.1-5-1.1-6.9-3
			c-1.9-1.9-2.9-4.2-2.9-6.9c0-2.8,1-5.1,2.9-7c2-1.9,4.3-2.8,6.9-2.8c4.2,0,7.7-1.5,10.6-4.5s4.4-6.5,4.4-10.6v-50
			c0-2.8,0.9-5.1,2.8-7c1.9-1.9,4.2-2.8,7-2.8c2.7,0,5,0.9,7,2.8c2,1.9,3,4.2,3,7v50.8c-0.3,9.3-3.7,17.2-10.3,23.8
			C177.8,108.1,169.6,111.5,159.8,111.6z"/>
		<path class="st0" d="M235.2,16.6c9.9,0.2,18.2,3.7,24.8,10.4c6.6,6.7,10.1,15,10.4,24.9c-0.3,9.9-3.8,18.2-10.4,24.9
			c-6.6,6.7-14.9,10.1-24.8,10.4c-10-0.2-18.3-3.7-24.9-10.4c-6.6-6.7-10.1-15-10.4-24.9c0.3-9.9,3.8-18.2,10.4-24.9
			C216.9,20.3,225.2,16.8,235.2,16.6z M250.4,51.8c0-4.1-1.5-7.7-4.5-10.7c-3-3-6.5-4.5-10.7-4.5c-4.2,0-7.8,1.5-10.8,4.5
			c-3,3-4.5,6.6-4.5,10.7c0,4.1,1.5,7.7,4.5,10.7c3,3,6.6,4.5,10.8,4.5c4.1,0,7.7-1.5,10.7-4.5C248.9,59.5,250.4,55.9,250.4,51.8z"
			/>
		<path class="st0" d="M505.5,4.6c2.7,0,5,1,7,3c2,2,3,4.3,3,7v62.3c0,2.8-1,5.1-3,7c-2,1.9-4.3,2.8-7,2.8c-2.8,0-5.1-0.9-7-2.8
			c-1.9-1.9-2.8-4.2-2.8-7V14.5c0-2.7,0.9-5,2.8-7S502.7,4.6,505.5,4.6z M553.6,26.8c-0.2,9.6-3.7,17.9-10.6,24.9
			c6.9,7,10.5,15.4,10.6,25c0,2.8-0.9,5.1-2.8,7c-1.9,1.9-4.2,2.8-7,2.8c-2.7,0-5-0.9-7-2.8c-2-1.9-3-4.2-3-7
			c0-4.1-1.5-7.6-4.4-10.6s-11.3-4.5-15.4-4.5c-2.6,0-4.9-0.9-6.9-2.8c-2-1.9-3-4.2-3-7c0-2.9,1-5.2,3-7.1c2-1.9,4.3-2.8,6.9-2.8
			c4.2,0,12.5-1.5,15.4-4.5c2.9-3,4.4-6.5,4.4-10.6c0-2.8,1-5.1,3-7s4.3-2.8,7-2.8c2.8,0,5.1,0.9,7,2.8
			C552.7,21.7,553.6,24,553.6,26.8z"/>
		<path class="st0" d="M594.6,66.8c2.6,0,4.9,0.9,6.9,2.8c2,1.9,3,4.2,3,7c0,2.7-1,5-2.9,6.9s-4.2,2.9-6.9,3
			c-9.8-0.2-18-3.5-24.5-10.2c-6.6-6.6-10-14.6-10.3-24V14.4c0-2.8,0.9-5.1,2.8-7c1.9-1.9,4.2-2.8,7-2.8c2.7,0,5,0.9,7,2.8
			s3,4.2,3,7V17h14.9c2.7,0,5,0.9,7,2.8s3,4.2,3,7c0,2.7-1,5-3,7s-4.3,3-7,3h-14.9v15c0,4.1,1.5,7.6,4.4,10.6S590.5,66.8,594.6,66.8
			z"/>
		<path class="st0" d="M337.7,17.3c9.9,0.2,18.2,3.7,24.8,10.4c6.6,6.7,10.1,15,10.4,24.9c-0.3,9.9-3.8,18.2-10.4,24.9
			c-6.6,6.7-14.9,10.1-24.8,10.4c-10-0.2-18.3-3.7-24.9-10.4c-6.6-6.7-10.1-15-10.4-24.9c0.3-9.9,3.8-18.2,10.4-24.9
			C319.4,21,327.7,17.6,337.7,17.3z M352.8,52.6c0-4.1-1.5-7.7-4.5-10.7c-3-3-6.5-4.5-10.7-4.5c-4.2,0-7.8,1.5-10.8,4.5
			c-3,3-4.5,6.6-4.5,10.7c0,4.1,1.5,7.7,4.5,10.7c3,3,6.6,4.5,10.8,4.5c4.1,0,7.7-1.5,10.7-4.5S352.8,56.7,352.8,52.6z"/>
		<path class="st0" d="M466,87.7c-9.7-0.2-17.9-3.6-24.6-10.2c-6.7-6.6-10.2-14.8-10.4-24.5c0.2-10.1,3.7-18.4,10.3-25
			c6.6-6.6,14.7-10,24-10.3h13.8c2.8,0,5.1,1,7,2.9s2.9,4.3,2.9,7c0,2.7-1,5.1-2.9,7c-1.9,2-4.3,3-7,3H466c-4.1,0-7.7,1.5-10.7,4.4
			c-3,3-4.5,6.5-4.5,10.6c0,4.2,1.4,7.7,4.3,10.5s6.5,4.3,10.9,4.5h13c2.8,0,5.1,1,7,3s2.9,4.3,2.9,7c0,2.8-1,5.1-2.9,7
			s-4.3,2.9-7,2.9L466,87.7z"/>
		<path class="st0" d="M475.8,52.7c0,2.7-1,5-3,7c-2,2-4.3,3-7,3h-15.1c-2.8,0-5.1-1-7-3c-1.9-2-2.8-4.3-2.8-7c0-2.8,0.9-5.1,2.8-7
			s4.2-2.8,7-2.8h15.1c2.7,0,5,0.9,7,2.8C474.8,47.5,475.8,49.9,475.8,52.7z"/>
	</g>
</g>
</svg>
