<?xml version="1.0" encoding="utf-8"?>
<!-- Generator: Adobe Illustrator 25.3.1, SVG Export Plug-In . SVG Version: 6.00 Build 0)  -->
<svg version="1.1" id="Layer_1" xmlns="http://www.w3.org/2000/svg" xmlns:xlink="http://www.w3.org/1999/xlink" x="0px" y="0px"
	 viewBox="0 0 108.2 108.2" style="enable-background:new 0 0 108.2 108.2;" xml:space="preserve">
<style type="text/css">
	.st0{fill:#FFFFFF;}
</style>
<g>
	<path class="st0" d="M42.6,38.5c-2.3,0-4.4,1.9-4.4,4.1s1.9,4.1,4.4,4.1c2.5,0,4.4-1.8,4.4-4.1S44.9,38.5,42.6,38.5z"/>
	<path class="st0" d="M28,67.9c-2.3,0-4.4,1.9-4.4,4.1S25.6,76,28,76c2.5,0,4.4-1.8,4.4-4.1S30.4,67.9,28,67.9z"/>
	<path class="st0" d="M80.5,73.3c-2.3,0-4.4,1.9-4.4,4.1c0,2.2,1.9,4.1,4.4,4.1c2.5,0,4.4-1.8,4.4-4.1
		C84.9,75.1,82.9,73.3,80.5,73.3z"/>
	<path class="st0" d="M71.7,62.4c-10.3,0-19-8.2-19-18.3s8.7-18.3,19-18.3c10.3,0,18.7,8.2,18.7,18.3S82,62.4,71.7,62.4z M71.6,33
		c-6.4,0-11.4,5-11.4,11.1s5.2,11.1,11.5,11.1c6.4,0,11.2-5,11.2-11.1S77.9,33,71.6,33z"/>
	<path class="st0" d="M54.1,108.2C24.3,108.2,0,83.9,0,54.1S24.3,0,54.1,0c29.8,0,54.1,24.3,54.1,54.1S84,108.2,54.1,108.2z
		 M54.1,9.4c-24.8,0-44.8,20-44.8,44.8c0,24.8,20,44.7,44.8,44.7C79,98.9,98.8,79,98.8,54.1C98.8,29.3,79,9.4,54.1,9.4z"/>
	<path class="st0" d="M57.3,87.5c-5.6,0-10.1-4.3-10.1-9.5s4.5-9.5,10.1-9.5c5.6,0,10.1,4.3,10.1,9.5S62.8,87.5,57.3,87.5z
		 M57.3,74.3c-2.2,0-3.9,1.7-3.9,3.7c0,2.1,1.6,3.8,3.9,3.8c2.2,0,3.9-1.7,3.9-3.8C61.1,75.9,59.5,74.3,57.3,74.3z"/>
	<path class="st0" d="M28.4,34c-5.6,0-10.1-4.3-10.1-9.5S22.9,15,28.4,15c5.6,0,10.1,4.3,10.1,9.5S34,34,28.4,34z M28.4,20.7
		c-2.2,0-3.9,1.7-3.9,3.7s1.6,3.8,3.9,3.8c2.2,0,3.9-1.7,3.9-3.8S30.7,20.7,28.4,20.7z"/>
</g>
</svg>
