<?xml version="1.0" encoding="utf-8"?>
<!-- Generator: Adobe Illustrator 25.2.3, SVG Export Plug-In . SVG Version: 6.00 Build 0)  -->
<svg version="1.1" id="Layer_1" xmlns="http://www.w3.org/2000/svg" xmlns:xlink="http://www.w3.org/1999/xlink" x="0px" y="0px"
	 viewBox="0 0 321.14 58.35" style="enable-background:new 0 0 321.14 58.35;" xml:space="preserve">
<style type="text/css">
	.st0{fillRule:evenodd;clip-rule:evenodd;fill:#FFFFFF;}
	.st1{fill:#FFFFFF;}
	.st2{fill:#2A6DFF;}
</style>
<g>
	<path class="st0" d="M166,38.8c0.78,0,1.41-0.63,1.41-1.41c0-0.78-0.63-1.41-1.41-1.41c-0.78,0-1.41,0.63-1.41,1.41
		C164.59,38.17,165.22,38.8,166,38.8z M166,33.23c2.3,0,4.17,1.87,4.17,4.16s-1.87,4.16-4.17,4.16c-2.3,0-4.17-1.87-4.17-4.16
		S163.7,33.23,166,33.23z"/>
	<path class="st0" d="M153.65,16.67c0.78,0,1.41-0.63,1.41-1.41c0-0.78-0.63-1.41-1.41-1.41c-0.78,0-1.41,0.63-1.41,1.41
		C152.24,16.03,152.87,16.67,153.65,16.67z M153.65,11.1c2.3,0,4.17,1.87,4.17,4.16c0,2.3-1.87,4.16-4.17,4.16
		c-2.3,0-4.17-1.87-4.17-4.16C149.48,12.96,151.35,11.1,153.65,11.1z"/>
	<path class="st0" d="M171.36,27.87c2.58,0,4.67-2.09,4.67-4.66c0-2.57-2.1-4.66-4.67-4.66c-2.58,0-4.67,2.09-4.67,4.66
		C166.69,25.77,168.78,27.87,171.36,27.87z M171.36,15.78c4.1,0,7.44,3.33,7.44,7.42c0,4.09-3.34,7.42-7.44,7.42
		c-4.1,0-7.43-3.33-7.43-7.42C163.93,19.11,167.26,15.78,171.36,15.78z"/>
	<path class="st0" d="M173,40.15c0-1.03,0.83-1.86,1.87-1.86c1.03,0,1.86,0.83,1.86,1.86c0,1.03-0.83,1.86-1.86,1.86
		C173.83,42.01,173,41.18,173,40.15"/>
	<path class="st0" d="M158.08,22.47c0-1.03,0.83-1.86,1.87-1.86c1.03,0,1.86,0.83,1.86,1.86c0,1.03-0.83,1.86-1.86,1.86
		C158.91,24.33,158.08,23.5,158.08,22.47"/>
	<path class="st0" d="M150.8,36.79c0-1.01,0.82-1.84,1.84-1.84c1.02,0,1.84,0.82,1.84,1.84c0,1.01-0.82,1.84-1.84,1.84
		C151.62,38.63,150.8,37.81,150.8,36.79"/>
</g>
<path class="st1" d="M23.79,53.66c-0.91,0-1.68-0.32-2.33-0.97c-0.65-0.65-0.97-1.45-0.97-2.4V35.21L3.2,8.33
	C2.64,7.43,2.42,6.57,2.55,5.77c0.13-0.8,0.51-1.45,1.13-1.94c0.63-0.5,1.35-0.74,2.17-0.74c0.73,0,1.32,0.16,1.75,0.49
	C8.03,3.9,8.44,4.36,8.83,4.96l16.45,26.1h-2.59L39.4,4.71c0.35-0.52,0.75-0.92,1.23-1.2c0.47-0.28,1.06-0.42,1.75-0.42
	c0.78,0,1.42,0.27,1.94,0.81c0.52,0.54,0.82,1.21,0.91,2.01c0.09,0.8-0.13,1.61-0.65,2.43L27.16,35.21V50.3
	c0,0.95-0.32,1.75-0.97,2.4C25.54,53.34,24.74,53.66,23.79,53.66z"/>
<path class="st1" d="M70.87,54.31c-3.8,0-7.28-0.64-10.43-1.91c-3.15-1.27-5.86-3.07-8.13-5.38c-2.27-2.31-4.03-5.05-5.28-8.22
	c-1.25-3.17-1.88-6.66-1.88-10.46c0-3.8,0.63-7.27,1.88-10.43c1.25-3.15,3.01-5.88,5.28-8.19c2.27-2.31,4.98-4.1,8.13-5.38
	c3.15-1.27,6.63-1.91,10.43-1.91c3.8,0,7.26,0.64,10.39,1.91c3.13,1.27,5.84,3.07,8.13,5.38c2.29,2.31,4.06,5.04,5.31,8.19
	c1.25,3.15,1.88,6.63,1.88,10.43c0,3.8-0.63,7.29-1.88,10.46c-1.25,3.17-3.02,5.92-5.31,8.22c-2.29,2.31-5,4.1-8.13,5.38
	C78.14,53.67,74.67,54.31,70.87,54.31z M70.87,48.22c2.81,0,5.39-0.51,7.74-1.52c2.35-1.01,4.39-2.42,6.12-4.21
	c1.73-1.79,3.05-3.9,3.98-6.31c0.93-2.42,1.39-5.03,1.39-7.84c0-2.81-0.46-5.42-1.39-7.84c-0.93-2.42-2.26-4.52-3.98-6.31
	c-1.73-1.79-3.77-3.18-6.12-4.18c-2.35-0.99-4.93-1.49-7.74-1.49c-2.81,0-5.39,0.5-7.74,1.49c-2.35,0.99-4.38,2.39-6.09,4.18
	c-1.71,1.79-3.03,3.9-3.98,6.31c-0.95,2.42-1.42,5.03-1.42,7.84c0,2.81,0.47,5.42,1.42,7.84c0.95,2.42,2.28,4.52,3.98,6.31
	c1.71,1.79,3.73,3.2,6.09,4.21C65.49,47.72,68.07,48.22,70.87,48.22z"/>
<path class="st1" d="M109.15,53.66c-0.95,0-1.74-0.32-2.36-0.97c-0.63-0.65-0.94-1.45-0.94-2.4V6.45c0-0.95,0.32-1.75,0.97-2.4
	c0.65-0.65,1.42-0.97,2.33-0.97c0.95,0,1.75,0.32,2.4,0.97c0.65,0.65,0.97,1.45,0.97,2.4v40.48h23.44c0.95,0,1.75,0.32,2.4,0.97
	c0.65,0.65,0.97,1.45,0.97,2.4c0,0.95-0.32,1.75-0.97,2.4c-0.65,0.65-1.45,0.97-2.4,0.97H109.15z"/>
<path class="st1" d="M164.97,54.31c-3.8,0-7.28-0.64-10.43-1.91c-3.15-1.27-5.86-3.07-8.13-5.38c-2.27-2.31-4.03-5.05-5.28-8.22
	c-1.25-3.17-1.88-6.66-1.88-10.46c0-3.8,0.63-7.27,1.88-10.43c1.25-3.15,3.01-5.88,5.28-8.19c2.27-2.31,4.98-4.1,8.13-5.38
	c3.15-1.27,6.63-1.91,10.43-1.91c3.8,0,7.26,0.64,10.39,1.91c3.13,1.27,5.84,3.07,8.13,5.38c2.29,2.31,4.06,5.04,5.31,8.19
	c1.25,3.15,1.88,6.63,1.88,10.43c0,3.8-0.63,7.29-1.88,10.46c-1.25,3.17-3.02,5.92-5.31,8.22c-2.29,2.31-5,4.1-8.13,5.38
	C172.23,53.67,168.77,54.31,164.97,54.31z M164.97,48.22c2.81,0,5.39-0.51,7.74-1.52c2.35-1.01,4.39-2.42,6.12-4.21
	c1.73-1.79,3.05-3.9,3.98-6.31c0.93-2.42,1.39-5.03,1.39-7.84c0-2.81-0.46-5.42-1.39-7.84c-0.93-2.42-2.26-4.52-3.98-6.31
	c-1.73-1.79-3.77-3.18-6.12-4.18c-2.35-0.99-4.93-1.49-7.74-1.49c-2.81,0-5.39,0.5-7.74,1.49c-2.35,0.99-4.38,2.39-6.09,4.18
	c-1.71,1.79-3.03,3.9-3.98,6.31c-0.95,2.42-1.42,5.03-1.42,7.84c0,2.81,0.47,5.42,1.42,7.84c0.95,2.42,2.28,4.52,3.98,6.31
	c1.71,1.79,3.73,3.2,6.09,4.21C159.58,47.72,162.16,48.22,164.97,48.22z"/>
<g>
	<path class="st2" d="M200.67,53.66c-1.04,0-1.84-0.27-2.4-0.81c-0.56-0.54-0.84-1.35-0.84-2.43V21.48c0-1.04,0.28-1.83,0.84-2.4
		c0.56-0.56,1.36-0.84,2.4-0.84c1.08,0,1.89,0.27,2.43,0.81c0.54,0.54,0.81,1.35,0.81,2.43v28.95c0,1.04-0.27,1.84-0.81,2.4
		C202.56,53.38,201.75,53.66,200.67,53.66z M200.6,31.52c0-2.59,0.64-4.91,1.91-6.96c1.27-2.05,2.99-3.68,5.15-4.89
		c2.16-1.21,4.53-1.81,7.12-1.81c2.59,0,4.52,0.42,5.8,1.26c1.27,0.84,1.76,1.85,1.46,3.01c-0.13,0.6-0.38,1.07-0.74,1.39
		c-0.37,0.32-0.79,0.53-1.26,0.62c-0.48,0.09-0.99,0.06-1.55-0.06c-2.76-0.56-5.25-0.6-7.45-0.13c-2.2,0.48-3.94,1.36-5.21,2.66
		c-1.27,1.3-1.91,2.94-1.91,4.92H200.6z"/>
	<path class="st2" d="M241.66,53.92c-3.58,0-6.77-0.77-9.55-2.3c-2.78-1.53-4.97-3.65-6.54-6.35c-1.58-2.7-2.36-5.8-2.36-9.29
		c0-3.54,0.74-6.66,2.23-9.36c1.49-2.7,3.55-4.81,6.18-6.35c2.63-1.53,5.66-2.3,9.07-2.3c3.37,0,6.26,0.74,8.68,2.23
		c2.42,1.49,4.26,3.54,5.54,6.15c1.27,2.61,1.91,5.62,1.91,9.03c0,0.82-0.28,1.5-0.84,2.04c-0.56,0.54-1.27,0.81-2.14,0.81h-26.1
		v-5.18h25.9l-2.66,1.81c-0.04-2.16-0.48-4.09-1.3-5.8c-0.82-1.71-1.99-3.05-3.5-4.05c-1.51-0.99-3.35-1.49-5.5-1.49
		c-2.46,0-4.57,0.54-6.31,1.62c-1.75,1.08-3.08,2.56-3.98,4.44c-0.91,1.88-1.36,4.01-1.36,6.38c0,2.37,0.54,4.49,1.62,6.35
		c1.08,1.86,2.57,3.33,4.47,4.4c1.9,1.08,4.08,1.62,6.54,1.62c1.34,0,2.71-0.25,4.11-0.74c1.4-0.5,2.54-1.07,3.4-1.72
		c0.65-0.47,1.35-0.72,2.1-0.74c0.75-0.02,1.41,0.21,1.98,0.68c0.73,0.65,1.12,1.36,1.17,2.14c0.04,0.78-0.3,1.45-1.04,2.01
		c-1.47,1.17-3.29,2.12-5.47,2.85C245.73,53.56,243.65,53.92,241.66,53.92z"/>
	<path class="st2" d="M267.11,53.66c-0.95,0-1.72-0.29-2.3-0.87c-0.58-0.58-0.87-1.35-0.87-2.3V6.26c0-0.95,0.29-1.72,0.87-2.3
		c0.58-0.58,1.35-0.87,2.3-0.87c0.95,0,1.72,0.29,2.3,0.87c0.58,0.58,0.87,1.35,0.87,2.3v44.23c0,0.95-0.29,1.72-0.87,2.3
		C268.83,53.37,268.06,53.66,267.11,53.66z M270.16,40.71l-4.02-4.4l19.88-17.74c0.65-0.6,1.37-0.88,2.17-0.84
		c0.8,0.04,1.48,0.39,2.04,1.04c0.6,0.65,0.88,1.36,0.84,2.14c-0.04,0.78-0.39,1.47-1.04,2.07L270.16,40.71z M290.23,53.34
		c-0.69,0.56-1.46,0.81-2.3,0.74c-0.84-0.06-1.54-0.44-2.1-1.13L272.68,36.7l4.53-4.27L290.69,49c0.56,0.69,0.81,1.44,0.74,2.23
		C291.37,52.04,290.97,52.74,290.23,53.34z"/>
	<path class="st2" d="M298,25.11c-0.91,0-1.64-0.26-2.2-0.78c-0.56-0.52-0.84-1.17-0.84-1.94c0-0.86,0.28-1.55,0.84-2.07
		c0.56-0.52,1.3-0.78,2.2-0.78h14.96c0.91,0,1.64,0.26,2.2,0.78c0.56,0.52,0.84,1.21,0.84,2.07c0,0.78-0.28,1.42-0.84,1.94
		c-0.56,0.52-1.3,0.78-2.2,0.78H298z M312.38,53.66c-2.16,0-4.1-0.55-5.83-1.65c-1.73-1.1-3.09-2.6-4.08-4.5
		c-0.99-1.9-1.49-4.04-1.49-6.41V10.21c0-0.95,0.3-1.73,0.91-2.33c0.6-0.6,1.38-0.91,2.33-0.91c0.95,0,1.73,0.3,2.33,0.91
		c0.6,0.6,0.91,1.38,0.91,2.33V41.1c0,1.73,0.47,3.17,1.42,4.34c0.95,1.17,2.11,1.75,3.5,1.75h2.2c0.78,0,1.43,0.3,1.98,0.91
		c0.54,0.6,0.81,1.38,0.81,2.33c0,0.95-0.36,1.73-1.07,2.33c-0.71,0.61-1.63,0.91-2.75,0.91H312.38z"/>
</g>
</svg>
