<?xml version="1.0" encoding="utf-8"?>
<!-- Generator: Adobe Illustrator 25.4.1, SVG Export Plug-In . SVG Version: 6.00 Build 0)  -->
<svg version="1.1" id="Layer_1" xmlns="http://www.w3.org/2000/svg" xmlns:xlink="http://www.w3.org/1999/xlink" x="0px" y="0px"
	 viewBox="0 0 688.5 125.6" style="enable-background:new 0 0 688.5 125.6;" xml:space="preserve">
<style type="text/css">
	.st0{fill:#2A6DFF;}
	.st1{fill:#FFFFFF;}
</style>
<g>
	<path class="st0" d="M682.2,29.5c0,6.1-2.5,12.2-7,16.7c6.6,4,10.4,10.6,10.4,18.7c0,13.8-10.8,22.7-23.9,22.7
		c-4.9,0-12.6-1.1-17.1-3.3l-0.5,0.2v19.3h-19.9V34.2c0-16.3,15.7-25.7,31-25.7C668.1,8.5,682.3,15,682.2,29.5z M652,41.1h2.9
		c6.7,0,7.3-4.7,7.3-7.4c0-4.4-2.2-7.4-7-7.4c-4.8,0-11,3-11,9.5v24.6c0,5.6,6.5,10.1,12.7,10.1c5.3,0,9-3.3,8.9-8
		c0-5.9-5.3-7.6-10.4-7.6H652V42.2V41.1z"/>
	<path class="st0" d="M644.2,80.7v25.9c0,2.8-1,5.2-2.9,7.1c-1.9,1.9-4.3,2.9-7.1,2.9c-2.7,0-5.1-1-7.1-2.9c-2-1.9-3-4.3-3-7.1V81.4
		"/>
</g>
<g>
	<g>
		<path class="st1" d="M426.1,46.2C426.1,46.1,425.8,45.9,426.1,46.2C426,46.1,426,45.5,426.1,46.2L426.1,46.2
			c-3-3.1-6.2-4.4-10.3-4.4c-4.2,0-7.8,1.5-10.7,4.5c-3,3-4.4,6.6-4.4,10.7v25.2c0,2.8-1,5.2-3,7.1c-2,1.9-4.3,2.9-7.1,2.9
			c-2.8,0-5.2-1-7.1-2.9c-1.9-1.9-2.9-4.3-2.9-7.1V56.2c0.3-9.4,3.8-17.5,10.3-24.1c6.6-6.7,14.9-10.1,24.8-10.3
			c5.7,0.1,10.9,1.4,15.5,3.7c3.4,1.7,4.2,2.3,4.2,2.3c0,0,0,0,0,0C426.9,36.6,426.1,46.2,426.1,46.2z"/>
		<path class="st1" d="M287.6,9.1c2.7,0,5,1,7,3s3,4.3,3,7v62.3c0,2.8-1,5.1-3,7c-2,1.9-4.3,2.8-7,2.8c-2.8,0-5.1-0.9-7-2.8
			c-1.9-1.9-2.8-4.2-2.8-7V19c0-2.7,0.9-5,2.8-7C282.5,10,284.8,9.1,287.6,9.1z"/>
		<path class="st1" d="M173.2,65.2c2.6,0,4.9,0.9,6.9,2.8c2,1.9,3,4.2,3,7c0,2.7-1,5-2.9,6.9c-1.9,1.9-4.2,2.9-6.9,3
			c-9.8-0.2-24.7-3.5-31.2-10.2c-6.6-6.6-10-14.6-10.3-24V31.4c0-2.8,0.9-5.1,2.8-7c1.9-1.9,4.2-2.8,7-2.8c2.7,0,5,0.9,7,2.8
			c2,1.9,3,4.2,3,7v18.7c0,4.1,1.5,7.6,4.4,10.6C158.8,63.7,169.1,65.2,173.2,65.2z M160.9,116.2c-2.7-0.1-5-1.1-6.9-3
			c-1.9-1.9-2.9-4.2-2.9-6.9c0-2.8,1-5.1,2.9-7c2-1.9,4.3-2.8,6.9-2.8c4.2,0,7.7-1.5,10.6-4.5c2.9-3,4.4-6.5,4.4-10.6v-50
			c0-2.8,0.9-5.1,2.8-7s4.2-2.8,7-2.8c2.7,0,5,0.9,7,2.8c2,1.9,3,4.2,3,7v50.8c-0.3,9.3-3.7,17.2-10.3,23.8
			C178.9,112.7,170.7,116.1,160.9,116.2z"/>
		<path class="st1" d="M236.4,21.2c9.9,0.2,18.2,3.7,24.8,10.4c6.6,6.7,10.1,15,10.4,24.9c-0.3,9.9-3.8,18.2-10.4,24.9
			c-6.6,6.7-14.9,10.1-24.8,10.4c-10-0.2-18.3-3.7-24.9-10.4c-6.6-6.7-10.1-15-10.4-24.9c0.3-9.9,3.8-18.2,10.4-24.9
			C218.1,24.8,226.4,21.4,236.4,21.2z M251.5,56.4c0-4.1-1.5-7.7-4.5-10.7c-3-3-6.5-4.5-10.7-4.5c-4.2,0-7.8,1.5-10.8,4.5
			c-3,3-4.5,6.6-4.5,10.7c0,4.1,1.5,7.7,4.5,10.7c3,3,6.6,4.5,10.8,4.5c4.1,0,7.7-1.5,10.7-4.5C250,64.1,251.5,60.5,251.5,56.4z"/>
		<path class="st1" d="M506.6,9.2c2.7,0,5,1,7,3s3,4.3,3,7v62.3c0,2.8-1,5.1-3,7c-2,1.9-4.3,2.8-7,2.8c-2.8,0-5.1-0.9-7-2.8
			c-1.9-1.9-2.8-4.2-2.8-7V19.1c0-2.7,0.9-5,2.8-7S503.8,9.2,506.6,9.2z M554.8,31.4c-0.2,9.6-3.7,17.9-10.6,24.9
			c6.9,7,10.5,15.4,10.6,25c0,2.8-0.9,5.1-2.8,7c-1.9,1.9-4.2,2.8-7,2.8c-2.7,0-5-0.9-7-2.8c-2-1.9-3-4.2-3-7
			c0-4.1-1.5-7.6-4.4-10.6c-2.9-3-11.3-4.5-15.4-4.5c-2.6,0-4.9-0.9-6.9-2.8c-2-1.9-3-4.2-3-7c0-2.9,1-5.2,3-7.1
			c2-1.9,4.3-2.8,6.9-2.8c4.2,0,12.5-1.5,15.4-4.5c2.9-3,4.4-6.5,4.4-10.6c0-2.8,1-5.1,3-7s4.3-2.8,7-2.8c2.8,0,5.1,0.9,7,2.8
			C553.8,26.3,554.8,28.6,554.8,31.4z"/>
		<path class="st1" d="M595.8,71.4c2.6,0,4.9,0.9,6.9,2.8c2,1.9,3,4.2,3,7c0,2.7-1,5-2.9,6.9c-1.9,1.9-4.2,2.9-6.9,3
			c-9.8-0.2-18-3.5-24.5-10.2c-6.6-6.6-10-14.6-10.3-24V19c0-2.8,0.9-5.1,2.8-7c1.9-1.9,4.2-2.8,7-2.8c2.7,0,5,0.9,7,2.8
			c2,1.9,3,4.2,3,7v2.5h14.9c2.7,0,5,0.9,7,2.8s3,4.2,3,7c0,2.7-1,5-3,7s-4.3,3-7,3h-14.9v15c0,4.1,1.5,7.6,4.4,10.6
			C588.1,69.9,591.6,71.4,595.8,71.4z"/>
		<path class="st1" d="M338.8,21.9c9.9,0.2,18.2,3.7,24.8,10.4c6.6,6.7,10.1,15,10.4,24.9c-0.3,9.9-3.8,18.2-10.4,24.9
			c-6.6,6.7-14.9,10.1-24.8,10.4c-10-0.2-18.3-3.7-24.9-10.4c-6.6-6.7-10.1-15-10.4-24.9c0.3-9.9,3.8-18.2,10.4-24.9
			C320.5,25.6,328.8,22.2,338.8,21.9z M354,57.2c0-4.1-1.5-7.7-4.5-10.7c-3-3-6.5-4.5-10.7-4.5c-4.2,0-7.8,1.5-10.8,4.5
			c-3,3-4.5,6.6-4.5,10.7c0,4.1,1.5,7.7,4.5,10.7c3,3,6.6,4.5,10.8,4.5c4.1,0,7.7-1.5,10.7-4.5C352.5,64.9,354,61.3,354,57.2z"/>
		<path class="st1" d="M467.2,92.3c-9.7-0.2-17.9-3.6-24.6-10.2c-6.7-6.6-10.2-14.8-10.4-24.5c0.2-10.1,3.7-18.4,10.3-25
			c6.6-6.6,14.7-10,24-10.3h13.8c2.8,0,5.1,1,7,2.9c1.9,1.9,2.9,4.3,2.9,7c0,2.7-1,5.1-2.9,7s-4.3,3-7,3h-13.1
			c-4.1,0-7.7,1.5-10.7,4.4s-4.5,6.5-4.5,10.6c0,4.2,1.4,7.7,4.3,10.5c2.8,2.8,6.5,4.3,10.9,4.5h13c2.8,0,5.1,1,7,3s2.9,4.3,2.9,7
			c0,2.8-1,5.1-2.9,7s-4.3,2.9-7,2.9L467.2,92.3z"/>
		<path class="st1" d="M476.9,57.3c0,2.7-1,5-3,7c-2,2-4.3,3-7,3h-15.1c-2.8,0-5.1-1-7-3c-1.9-2-2.8-4.3-2.8-7c0-2.8,0.9-5.1,2.8-7
			s4.2-2.8,7-2.8H467c2.7,0,5,0.9,7,2.8C475.9,52.1,476.9,54.5,476.9,57.3z"/>
	</g>
	<g>
		<path class="st1" d="M47.6,46.5c-2.3,0-4.4,1.9-4.4,4.1s1.9,4.1,4.4,4.1c2.5,0,4.4-1.8,4.4-4.1S49.9,46.5,47.6,46.5z"/>
		<path class="st1" d="M33,75.9c-2.3,0-4.4,1.9-4.4,4.1S30.6,84,33,84c2.5,0,4.4-1.8,4.4-4.1S35.4,75.9,33,75.9z"/>
		<path class="st1" d="M85.5,81.3c-2.3,0-4.4,1.9-4.4,4.1c0,2.2,1.9,4.1,4.4,4.1c2.5,0,4.4-1.8,4.4-4.1
			C89.9,83.1,87.9,81.3,85.5,81.3z"/>
		<path class="st1" d="M76.7,70.4c-10.3,0-19-8.2-19-18.3s8.7-18.3,19-18.3c10.3,0,18.7,8.2,18.7,18.3S87,70.4,76.7,70.4z M76.6,41
			c-6.4,0-11.4,5-11.4,11.1s5.2,11.1,11.5,11.1c6.4,0,11.2-5,11.2-11.1S82.9,41,76.6,41z"/>
		<path class="st1" d="M59.1,116.2C29.3,116.2,5,91.9,5,62.1S29.3,8,59.1,8c29.8,0,54.1,24.3,54.1,54.1S89,116.2,59.1,116.2z
			 M59.1,17.4c-24.8,0-44.8,20-44.8,44.8c0,24.8,20,44.7,44.8,44.7c24.8,0,44.7-19.9,44.7-44.7C103.8,37.3,84,17.4,59.1,17.4z"/>
		<path class="st1" d="M62.3,95.5c-5.6,0-10.1-4.3-10.1-9.5s4.5-9.5,10.1-9.5c5.6,0,10.1,4.3,10.1,9.5S67.8,95.5,62.3,95.5z
			 M62.3,82.3c-2.2,0-3.9,1.7-3.9,3.7c0,2.1,1.6,3.8,3.9,3.8c2.2,0,3.9-1.7,3.9-3.8C66.1,83.9,64.5,82.3,62.3,82.3z"/>
		<path class="st1" d="M33.4,42c-5.6,0-10.1-4.3-10.1-9.5S27.9,23,33.4,23c5.6,0,10.1,4.3,10.1,9.5S39,42,33.4,42z M33.4,28.7
			c-2.2,0-3.9,1.7-3.9,3.7s1.6,3.8,3.9,3.8c2.2,0,3.9-1.7,3.9-3.8S35.7,28.7,33.4,28.7z"/>
	</g>
</g>
</svg>
