<?xml version="1.0" encoding="UTF-8"?>
<svg width="722px" height="112px" viewBox="0 0 722 112" version="1.1" xmlns="http://www.w3.org/2000/svg" xmlns:xlink="http://www.w3.org/1999/xlink">
    <!-- Generator: Sketch 57.1 (83088) - https://sketch.com -->
    <title>Group 2</title>
    <desc>Created with Sketch.</desc>
    <g id="Web" stroke="none" strokeWidth="1" fill="none" fillRule="evenodd">
        <g id="Artboard" transform="translate(-100.000000, -192.000000)">
            <g id="Group-2" transform="translate(100.000000, 150.000000)">
                <text id="YOL" font-family="GT-Haptik-Medium-2" font-size="153.26" font-weight="400" fill="#FFFFFF">
                    <tspan x="0" y="154">YOL</tspan>
                </text>
                <path d="M464.056032,86.14318 C469.07193,76.6536526 476.752409,71.90896 487.097698,71.90896 C489.710145,71.90896 492.270305,72.2217969 494.778254,72.84748 L494.778254,90.83578 C491.643318,90.1058164 488.769669,89.74084 486.157222,89.74084 C478.633375,89.74084 473.173443,91.9828376 469.777262,96.4669 C466.381081,100.950962 464.683016,107.520537 464.683016,116.17582 L464.683016,151.996 L447.754444,151.996 L447.754444,73.786 L464.056032,73.786 L464.056032,86.14318 Z M501.675079,113.20384 C501.675079,105.487081 503.294772,98.5003913 506.534206,92.24356 C509.773641,85.9867287 514.371478,81.0334782 520.327857,77.38366 C526.284236,73.7338418 533.180993,71.90896 541.018333,71.90896 C548.960172,71.90896 555.80468,73.6556325 561.552063,77.14903 C567.299447,80.6424275 571.662168,85.5174687 574.640357,91.7743 C577.618547,98.0311313 579.107619,105.17424 579.107619,113.20384 L579.107619,118.05286 L518.917143,118.05286 L518.917143,118.20928 C519.648628,124.570392 522.261036,129.471503 526.754444,132.91276 C531.247853,136.354017 536.472669,138.07462 542.429048,138.07462 C551.520363,138.07462 559.357586,134.685554 565.940952,127.90732 L573.935,141.51586 C570.277574,145.165678 565.836481,148.137629 560.611587,150.4318 C555.386693,152.725971 549.378156,153.87304 542.585794,153.87304 C534.330461,153.87304 527.120216,152.178507 520.954841,148.78939 C514.789467,145.400273 510.034884,140.629511 506.690952,134.47696 C503.34702,128.324409 501.675079,121.23344 501.675079,113.20384 Z M560.611587,105.22642 C560.089098,99.5952718 558.129792,95.1373464 554.733611,91.85251 C551.33743,88.5676736 546.66122,86.92528 540.704841,86.92528 C534.643964,86.92528 529.784886,88.5155341 526.12746,91.69609 C522.470035,94.8766459 520.118868,99.3867108 519.073889,105.22642 L560.611587,105.22642 Z M610.613571,129.15868 L610.613571,151.996 L593.685,151.996 L593.685,42.502 L610.613571,42.502 L610.613571,107.88556 L642.903254,73.786 L665.944921,73.786 L632.087778,107.72914 L665.944921,151.996 L644.000476,151.996 L620.645317,119.1478 L610.613571,129.15868 Z M721.746508,150.58822 C716.73061,152.048147 711.662539,152.7781 706.542143,152.7781 C699.122794,152.7781 693.558365,150.927149 689.84869,147.22519 C686.139016,143.523231 684.284206,137.501122 684.284206,129.15868 L684.284206,88.17664 L669.393333,88.17664 L669.393333,73.786 L684.284206,73.786 L684.284206,52.82572 L701.212778,52.82572 L701.212778,73.786 L721.903254,73.786 L721.903254,88.17664 L701.212778,88.17664 L701.212778,128.06374 C701.212778,130.879314 701.86588,132.964893 703.172103,134.32054 C704.478327,135.676187 706.646625,136.354 709.677063,136.354 C712.394008,136.354 716.417116,135.936884 721.746508,135.10264 L721.746508,150.58822 Z" id="rekt" fill="#2A6DFF" fillRule="nonzero"></path>
                <g id="MOON-2" transform="translate(369.230000, 99.050000) scale(-1, -1) translate(-369.230000, -99.050000) translate(314.230000, 44.050000)" fill="#FFFFFF">
                    <path d="M51.979405,45.8557127 C46.6530355,45.8557127 42.3187639,41.5304564 42.3187639,36.2151658 C42.3187639,30.8998751 46.6530355,26.5746188 51.979405,26.5746188 C57.3092925,26.5746188 61.6418051,30.8998751 61.6418051,36.2151658 C61.6418051,41.5304564 57.3092925,45.8557127 51.979405,45.8557127 L51.979405,45.8557127 Z M51.979405,32.9554251 C50.1781493,32.9554251 48.714629,34.4176567 48.714629,36.2151658 C48.714629,38.0126749 50.1781493,39.4749064 51.979405,39.4749064 C53.7824198,39.4749064 55.2476991,38.0126749 55.2476991,36.2151658 C55.2476991,34.4176567 53.7824198,32.9554251 51.979405,32.9554251 L51.979405,32.9554251 Z" id="Fill-1"></path>
                    <path d="M80.584894,97.1180749 C75.2567654,97.1180749 70.9242529,92.7928186 70.9242529,87.4775279 C70.9242529,82.1622373 75.2567654,77.836981 80.584894,77.836981 C85.9112634,77.836981 90.2455351,82.1622373 90.2455351,87.4775279 C90.2455351,92.7928186 85.9112634,97.1180749 80.584894,97.1180749 L80.584894,97.1180749 Z M80.584894,84.2177873 C78.7836382,84.2177873 77.3183589,85.6800188 77.3183589,87.4775279 C77.3183589,89.275037 78.7836382,90.7372686 80.584894,90.7372686 C82.3861497,90.7372686 83.84967,89.275037 83.84967,87.4775279 C83.84967,85.6800188 82.3861497,84.2177873 80.584894,84.2177873 L80.584894,84.2177873 Z" id="Fill-2"></path>
                    <path d="M39.5623501,86.2663157 C30.0670586,86.2663157 22.3431193,78.5566868 22.3431193,69.0811455 C22.3431193,59.6056043 30.0670586,51.8977307 39.5623501,51.8977307 C49.0576415,51.8977307 56.7815809,59.6056043 56.7815809,69.0811455 C56.7815809,78.5566868 49.0576415,86.2663157 39.5623501,86.2663157 L39.5623501,86.2663157 Z M39.5623501,58.278537 C33.5939314,58.278537 28.7372253,63.1233858 28.7372253,69.0811455 C28.7372253,75.0389052 33.5939314,79.883754 39.5623501,79.883754 C45.5307687,79.883754 50.3874749,75.0389052 50.3874749,69.0811455 C50.3874749,63.1233858 45.5307687,58.278537 39.5623501,58.278537 L39.5623501,58.278537 Z" id="Fill-3"></path>
                    <path d="M55.1878918,109.516324 C31.3142172,109.516324 9.86097994,93.5599196 3.02007804,70.7118935 C-1.14532584,56.7987517 0.367447531,42.1009549 7.27871098,29.3252993 C14.1917335,16.551399 25.6747388,7.22506508 39.6151213,3.06832524 C44.7057795,1.55167692 49.9582694,0.7810651 55.2283496,0.7810651 C79.1037833,0.7810651 100.555261,16.7374693 107.396163,39.5872508 C111.563326,53.4986373 110.050553,68.1929232 103.13753,80.9720896 C96.226267,93.7477453 84.7415026,103.072324 70.8028792,107.229064 C65.7104619,108.747467 60.456213,109.516324 55.1878918,109.516324 L55.1878918,109.516324 Z M54.5685954,13.5131522 C50.5980777,13.5131522 46.6388262,14.1070995 42.7954552,15.2785866 C32.2873441,18.479667 23.6301026,25.6578969 18.420307,35.4990451 C13.2089019,45.3369118 12.06941,56.6547244 15.2078411,67.3671046 C20.3661343,84.9623818 36.5362969,97.2531522 54.531578,97.2531522 C58.5004863,97.2531522 62.4629567,96.659205 66.3047183,95.4877179 C76.8144388,92.2882782 85.4700708,85.1084075 90.6814759,75.2672594 C95.892881,65.4293927 97.0323729,54.1115801 93.8923323,43.4008406 C88.7340392,25.8039226 72.5638765,13.5131522 54.5685954,13.5131522 L54.5685954,13.5131522 Z" id="Fill-4"></path>
                    <path d="M35.7716215,29.8255826 C35.7716215,32.2058779 33.8384378,34.1367959 31.4514222,34.1367959 C29.0661656,34.1367959 27.1329819,32.2058779 27.1329819,29.8255826 C27.1329819,27.4452873 29.0661656,25.5161247 31.4514222,25.5161247 C33.8384378,25.5161247 35.7716215,27.4452873 35.7716215,29.8255826" id="Fill-5"></path>
                    <path d="M70.3261797,70.7733318 C70.3261797,73.1553825 68.392996,75.0845451 66.0059804,75.0845451 C63.6207238,75.0845451 61.6875401,73.1553825 61.6875401,70.7733318 C61.6875401,68.3930366 63.6207238,66.4638739 66.0059804,66.4638739 C68.392996,66.4638739 70.3261797,68.3930366 70.3261797,70.7733318" id="Fill-6"></path>
                    <path d="M87.1812895,37.6001606 C87.1812895,39.9506144 85.2727324,41.8552017 82.9191384,41.8552017 C80.5637855,41.8552017 78.6552284,39.9506144 78.6552284,37.6001606 C78.6552284,35.2514622 80.5637855,33.3468749 82.9191384,33.3468749 C85.2727324,33.3468749 87.1812895,35.2514622 87.1812895,37.6001606" id="Fill-7"></path>
                </g>
            </g>
        </g>
    </g>
</svg>
