<?xml version="1.0" encoding="UTF-8"?>
<svg width="202px" height="40px" viewBox="0 0 202 40" version="1.1" xmlns="http://www.w3.org/2000/svg" xmlns:xlink="http://www.w3.org/1999/xlink">
    <!-- Generator: Sketch 53.2 (72643) - https://sketchapp.com -->
    <title>Group</title>
    <desc>Created with Sketch.</desc>
    <g id="Page-1" stroke="none" strokeWidth="1" fill="none" fillRule="evenodd">
        <g id="Waiting-Phase" transform="translate(-100.000000, -101.000000)">
            <g id="Group" transform="translate(100.000000, 101.000000)">
                <path d="M8.61706349,29.24 L-9.9475983e-14,12 L5.13015873,12 L10.9015873,24.2 L16.5126984,12 L21.1218254,12 L8.29642857,40 L3.68730159,40 L8.61706349,29.24 Z M22.284127,22 C22.284127,19.99999 22.7450351,18.200008 23.6668651,16.6 C24.5886951,14.999992 25.8578623,13.7533378 27.4744048,12.86 C29.0909472,11.9666622 30.9011805,11.52 32.9051587,11.52 C34.909137,11.52 36.7193702,11.9666622 38.3359127,12.86 C39.9524552,13.7533378 41.2216224,14.999992 42.1434524,16.6 C43.0652824,18.200008 43.5261905,19.99999 43.5261905,22 C43.5261905,24.00001 43.0652824,25.799992 42.1434524,27.4 C41.2216224,29.000008 39.9524552,30.2466622 38.3359127,31.14 C36.7193702,32.0333378 34.909137,32.48 32.9051587,32.48 C30.9011805,32.48 29.0909472,32.0333378 27.4744048,31.14 C25.8578623,30.2466622 24.5886951,29.000008 23.6668651,27.4 C22.7450351,25.799992 22.284127,24.00001 22.284127,22 Z M39.077381,22 C39.077381,20.133324 38.5029158,18.6200058 37.3539683,17.46 C36.2050207,16.2999942 34.722099,15.72 32.9051587,15.72 C31.0882184,15.72 29.6052967,16.2999942 28.4563492,17.46 C27.3074017,18.6200058 26.7329365,20.133324 26.7329365,22 C26.7329365,23.866676 27.3074017,25.3799942 28.4563492,26.54 C29.6052967,27.7000058 31.0882184,28.28 32.9051587,28.28 C34.722099,28.28 36.2050207,27.7000058 37.3539683,26.54 C38.5029158,25.3799942 39.077381,23.866676 39.077381,22 Z M51.6623016,32 L47.2535714,32 L47.2535714,4 L51.6623016,4 L51.6623016,32 Z M55.3896825,22 C55.3896825,19.99999 55.8505906,18.200008 56.7724206,16.6 C57.6942506,14.999992 58.9634178,13.7533378 60.5799603,12.86 C62.1965028,11.9666622 64.006736,11.52 66.0107143,11.52 C68.0146926,11.52 69.8249258,11.9666622 71.4414683,12.86 C73.0580107,13.7533378 74.3271779,14.999992 75.2490079,16.6 C76.1708379,18.200008 76.631746,19.99999 76.631746,22 C76.631746,24.00001 76.1708379,25.799992 75.2490079,27.4 C74.3271779,29.000008 73.0580107,30.2466622 71.4414683,31.14 C69.8249258,32.0333378 68.0146926,32.48 66.0107143,32.48 C64.006736,32.48 62.1965028,32.0333378 60.5799603,31.14 C58.9634178,30.2466622 57.6942506,29.000008 56.7724206,27.4 C55.8505906,25.799992 55.3896825,24.00001 55.3896825,22 Z M72.1829365,22 C72.1829365,20.133324 71.6084714,18.6200058 70.4595238,17.46 C69.3105763,16.2999942 67.8276546,15.72 66.0107143,15.72 C64.193774,15.72 62.7108523,16.2999942 61.5619048,17.46 C60.4129572,18.6200058 59.8384921,20.133324 59.8384921,22 C59.8384921,23.866676 60.4129572,25.3799942 61.5619048,26.54 C62.7108523,27.7000058 64.193774,28.28 66.0107143,28.28 C67.8276546,28.28 69.3105763,27.7000058 70.4595238,26.54 C71.6084714,25.3799942 72.1829365,23.866676 72.1829365,22 Z" id="yolo" fill="#FFFFFF" fillRule="nonzero"></path>
                <path d="M136.029365,15.16 C137.311911,12.7333212 139.27578,11.52 141.921032,11.52 C142.589025,11.52 143.243648,11.5999992 143.884921,11.76 L143.884921,16.36 C143.083329,16.1733324 142.348548,16.08 141.680556,16.08 C139.756736,16.08 138.360652,16.6533276 137.492262,17.8 C136.623871,18.9466724 136.189683,20.6266556 136.189683,22.84 L136.189683,32 L131.861111,32 L131.861111,12 L136.029365,12 L136.029365,15.16 Z M145.648413,22.08 C145.648413,20.1066568 146.062562,18.320008 146.890873,16.72 C147.719184,15.119992 148.894834,13.853338 150.417857,12.92 C151.940881,11.986662 153.704355,11.52 155.708333,11.52 C157.739031,11.52 159.489146,11.9666622 160.95873,12.86 C162.428314,13.7533378 163.543845,14.999992 164.305357,16.6 C165.066869,18.200008 165.447619,20.0266564 165.447619,22.08 L165.447619,23.32 L150.057143,23.32 L150.057143,23.36 C150.244181,24.9866748 150.912164,26.2399956 152.061111,27.12 C153.210059,28.0000044 154.546024,28.44 156.069048,28.44 C158.393662,28.44 160.397611,27.573342 162.080952,25.84 L164.125,29.32 C163.18981,30.253338 162.054239,31.0133304 160.718254,31.6 C159.382268,32.1866696 157.845908,32.48 156.109127,32.48 C153.99827,32.48 152.154638,32.046671 150.578175,31.18 C149.001712,30.313329 147.785983,29.0933412 146.930952,27.52 C146.075922,25.9466588 145.648413,24.1333436 145.648413,22.08 Z M160.718254,20.04 C160.584655,18.5999928 160.083668,17.4600042 159.215278,16.62 C158.346887,15.7799958 157.151198,15.36 155.628175,15.36 C154.078431,15.36 152.835984,15.7666626 151.900794,16.58 C150.965604,17.3933374 150.364419,18.5466592 150.097222,20.04 L160.718254,20.04 Z M173.503571,26.16 L173.503571,32 L169.175,32 L169.175,4 L173.503571,4 L173.503571,20.72 L181.759921,12 L187.651587,12 L178.994444,20.68 L187.651587,32 L182.040476,32 L176.068651,23.6 L173.503571,26.16 Z M201.919841,31.64 C200.637295,32.0133352 199.341409,32.2 198.032143,32.2 C196.135043,32.2 194.71224,31.7266714 193.76369,30.78 C192.815141,29.8333286 192.340873,28.293344 192.340873,26.16 L192.340873,15.68 L188.533333,15.68 L188.533333,12 L192.340873,12 L192.340873,6.64 L196.669444,6.64 L196.669444,12 L201.959921,12 L201.959921,15.68 L196.669444,15.68 L196.669444,25.88 C196.669444,26.6000036 196.83644,27.1333316 197.170437,27.48 C197.504433,27.8266684 198.058859,28 198.83373,28 C199.528443,28 200.557136,27.8933344 201.919841,27.68 L201.919841,31.64 Z" id="rekt" fill="#2A6DFF" fillRule="nonzero"></path>
                <g id="MOON-2" transform="translate(103.684921, 20.000000) scale(-1, -1) translate(-103.684921, -20.000000) translate(83.684921, 0.000000)" fill="#2A6DFF">
                    <path d="M19.0847758,16.871746 C17.1584215,16.871746 15.590873,15.3073016 15.590873,13.3847619 C15.590873,11.4622222 17.1584215,9.89777778 19.0847758,9.89777778 C21.0124024,9.89777778 22.5793147,11.4622222 22.5793147,13.3847619 C22.5793147,15.3073016 21.0124024,16.871746 19.0847758,16.871746 L19.0847758,16.871746 Z M19.0847758,12.2057143 C18.433327,12.2057143 17.9040249,12.7346032 17.9040249,13.3847619 C17.9040249,14.0349206 18.433327,14.5638095 19.0847758,14.5638095 C19.7368607,14.5638095 20.2667989,14.0349206 20.2667989,13.3847619 C20.2667989,12.7346032 19.7368607,12.2057143 19.0847758,12.2057143 L19.0847758,12.2057143 Z" id="Fill-1"></path>
                    <path d="M29.4303414,35.4133333 C27.503351,35.4133333 25.9364386,33.8488889 25.9364386,31.9263492 C25.9364386,30.0038095 27.503351,28.4393651 29.4303414,28.4393651 C31.3566956,28.4393651 32.9242441,30.0038095 32.9242441,31.9263492 C32.9242441,33.8488889 31.3566956,35.4133333 29.4303414,35.4133333 L29.4303414,35.4133333 Z M29.4303414,30.7473016 C28.7788927,30.7473016 28.2489544,31.2761905 28.2489544,31.9263492 C28.2489544,32.5765079 28.7788927,33.1053968 29.4303414,33.1053968 C30.0817901,33.1053968 30.6110922,32.5765079 30.6110922,31.9263492 C30.6110922,31.2761905 30.0817901,30.7473016 29.4303414,30.7473016 L29.4303414,30.7473016 Z" id="Fill-2"></path>
                    <path d="M14.5939783,31.488254 C11.1598765,31.488254 8.36640842,28.6996825 8.36640842,25.272381 C8.36640842,21.8450794 11.1598765,19.0571429 14.5939783,19.0571429 C18.0280801,19.0571429 20.8215482,21.8450794 20.8215482,25.272381 C20.8215482,28.6996825 18.0280801,31.488254 14.5939783,31.488254 L14.5939783,31.488254 Z M14.5939783,21.3650794 C12.4354182,21.3650794 10.6789242,23.1174603 10.6789242,25.272381 C10.6789242,27.4273016 12.4354182,29.1796825 14.5939783,29.1796825 C16.7525384,29.1796825 18.5090325,27.4273016 18.5090325,25.272381 C18.5090325,23.1174603 16.7525384,21.3650794 14.5939783,21.3650794 L14.5939783,21.3650794 Z" id="Fill-3"></path>
                    <path d="M20.2451688,39.8977778 C11.6109284,39.8977778 3.85207231,34.1263492 1.37796674,25.8622222 C-0.12850844,20.8298413 0.418606702,15.5136508 2.91815949,10.8926984 C5.41834845,6.27238095 9.57133409,2.89904762 14.6130637,1.39555556 C16.4541698,0.846984127 18.3538045,0.568253968 20.259801,0.568253968 C28.8946775,0.568253968 36.6528975,6.33968254 39.127003,14.6044444 C40.6341144,19.6361905 40.0869992,24.9511111 37.5868103,29.5733333 C35.0872575,34.1942857 30.9336357,37.5669841 25.8925422,39.0704762 C24.0507999,39.6196825 22.1505291,39.8977778 20.2451688,39.8977778 L20.2451688,39.8977778 Z M20.259801,4.03047619 C18.6903439,4.03047619 17.1253401,4.26031746 15.6061413,4.71365079 C11.4525195,5.95238095 8.03050517,8.73015873 5.97118922,12.5384127 C3.91123709,16.3453968 3.46082137,20.7250794 4.70137314,24.8704762 C6.74033132,31.6793651 13.1320358,36.4355556 20.2451688,36.4355556 C21.8139897,36.4355556 23.3802658,36.2057143 24.8988284,35.752381 C29.0530864,34.5142857 32.4744646,31.735873 34.5344167,27.927619 C36.5943689,24.1206349 37.0447846,19.7409524 35.8035966,15.5961905 C33.7646384,8.78666667 27.372934,4.03047619 20.259801,4.03047619 L20.259801,4.03047619 Z" id="Fill-4"></path>
                    <path d="M13.2230096,11.0736508 C13.2230096,11.9346032 12.5238473,12.6330159 11.6605505,12.6330159 C10.7978899,12.6330159 10.0987276,11.9346032 10.0987276,11.0736508 C10.0987276,10.2126984 10.7978899,9.51492063 11.6605505,9.51492063 C12.5238473,9.51492063 13.2230096,10.2126984 13.2230096,11.0736508" id="Fill-5"></path>
                    <path d="M25.7201373,25.8844444 C25.7201373,26.7460317 25.0209751,27.4438095 24.1576783,27.4438095 C23.2950176,27.4438095 22.5958554,26.7460317 22.5958554,25.8844444 C22.5958554,25.0234921 23.2950176,24.3257143 24.1576783,24.3257143 C25.0209751,24.3257143 25.7201373,25.0234921 25.7201373,25.8844444" id="Fill-6"></path>
                    <path d="M31.8160179,13.8857143 C31.8160179,14.735873 31.1257622,15.4247619 30.2745528,15.4247619 C29.4227072,15.4247619 28.7324515,14.735873 28.7324515,13.8857143 C28.7324515,13.0361905 29.4227072,12.3473016 30.2745528,12.3473016 C31.1257622,12.3473016 31.8160179,13.0361905 31.8160179,13.8857143" id="Fill-7"></path>
                </g>
            </g>
        </g>
    </g>
</svg>
