<?xml version="1.0" encoding="UTF-8"?>
<svg width="20px" height="13px" viewBox="0 0 20 13" version="1.1" xmlns="http://www.w3.org/2000/svg" xmlns:xlink="http://www.w3.org/1999/xlink">
    <!-- Generator: Sketch 55.2 (78181) - https://sketchapp.com -->
    <title>Group 13</title>
    <desc>Created with Sketch.</desc>
    <g id="Web" stroke="none" strokeWidth="1" fill="none" fillRule="evenodd">
        <g id="Webbsite-1.0" transform="translate(-245.000000, -979.000000)" fill="#FFFFFF" fillRule="nonzero">
            <g id="iconfinder_24_487851" transform="translate(236.000000, 967.000000)">
                <g id="Group" transform="translate(8.874396, 11.280193)">
                    <g id="Group-10" transform="translate(0.125604, 0.719807)">
                        <g id="Group-11" transform="translate(0.400000, 0.000000)">
                            <g id="Group-13" transform="translate(0.000000, -0.000000)">
                                <path d="M8.78439792,7.45110038 C9.80425836,8.43220612 10.6609411,7.45110038 10.6609411,7.45110038 L18.6974414,-1.08801856e-13 L0.707103239,-1.08801856e-13 L8.78439792,7.45110038 Z" id="Path"></path>
                                <path d="M10.9601002,8.28636608 L12.5238862,6.90751476 L18.6974414,12.5687601 L0.707103239,12.5687601 L6.88065844,6.90751476 L8.34925747,8.2598497 C8.34925747,8.2598497 9.62748256,9.46634461 10.9601002,8.28636608 Z" id="Path"></path>
                                <polygon id="Path" points="4.4408921e-16 0.6496511 6.1735552 6.28438003 4.4408921e-16 11.9721417"></polygon>
                                <polygon id="Path" points="19.3093577 0.6496511 13.1494006 6.28438003 19.3093577 11.9721417"></polygon>
                            </g>
                        </g>
                    </g>
                </g>
            </g>
        </g>
    </g>
</svg>
