<?xml version="1.0" encoding="UTF-8"?>
<svg width="23px" height="19px" viewBox="0 0 23 19" version="1.1" xmlns="http://www.w3.org/2000/svg" xmlns:xlink="http://www.w3.org/1999/xlink">
    <!-- Generator: Sketch 55.2 (78181) - https://sketchapp.com -->
    <title>Group 12</title>
    <desc>Created with Sketch.</desc>
    <g id="Web" stroke="none" strokeWidth="1" fill="none" fillRule="evenodd">
        <g id="Webbsite-1.0" transform="translate(-175.000000, -976.000000)" fill="#FFFFFF">
            <g id="Group-12" transform="translate(175.793952, 976.275420)">
                <path d="M6.699932,18.488976 C6.699932,18.501972 6.699248,18.513448 6.698108,18.522872 C6.68914,18.519984 6.678652,18.514968 6.666796,18.509192 L0.19038,15.270984 C0.099712,15.225612 -5.77315973e-15,15.06434 -5.77315973e-15,14.962804 L0.00038,0.115824 L6.699932,3.465676 L6.699932,18.488976 Z" id="Path"></path>
                <polygon id="Path" points="7.517388 11.417252 7.517388 4.657204 13.526632 14.421456"></polygon>
                <polygon id="Path" points="10.196616 7.451192 14.801912 -5.59552404e-14 21.560896 3.37934 14.625516 14.649"></polygon>
                <path d="M21.73334,18.484036 C21.73334,18.496956 21.73258,18.508508 21.731516,18.517856 C21.722548,18.514284 21.71206,18.509952 21.700584,18.504176 L15.210108,15.259508 L21.73334,4.658648 L21.73334,18.484036 Z" id="Path"></path>
            </g>
        </g>
    </g>
</svg>
